ISO-10303-21;
HEADER;
FILE_DESCRIPTION (( 'STEP AP214' ),
    '1' );
FILE_NAME ('bracket.STEP',
    '2023-04-18T12:11:12',
    ( '' ),
    ( '' ),
    'SwSTEP 2.0',
    'SolidWorks 2021',
    '' );
FILE_SCHEMA (( 'AUTOMOTIVE_DESIGN' ));
ENDSEC;

DATA;
#1 = DIRECTION ( 'NONE',  ( 0.000000000000000000, 0.000000000000000000, -1.000000000000000000 ) ) ;
#2 = ORIENTED_EDGE ( 'NONE', *, *, #535, .F. ) ;
#3 =( NAMED_UNIT ( * ) PLANE_ANGLE_UNIT ( ) SI_UNIT ( $, .RADIAN. ) );
#4 = EDGE_CURVE ( 'NONE', #321, #518, #597, .T. ) ;
#5 = CARTESIAN_POINT ( 'NONE',  ( 0.7500000000000001110, -0.2500000000000000000, 1.704503720716724402 ) ) ;
#6 = DIRECTION ( 'NONE',  ( 0.000000000000000000, 0.000000000000000000, -1.000000000000000000 ) ) ;
#7 = LINE ( 'NONE', #24, #281 ) ;
#8 = CARTESIAN_POINT ( 'NONE',  ( -0.7500000000000001110, 0.1250000000000000000, -0.2500000000000000000 ) ) ;
#9 = CIRCLE ( 'NONE', #638, 0.2500000000000000555 ) ;
#10 = VECTOR ( 'NONE', #431, 39.37007874015748143 ) ;
#11 =( LENGTH_UNIT ( ) NAMED_UNIT ( * ) SI_UNIT ( $, .METRE. ) );
#12 = EDGE_CURVE ( 'NONE', #16, #143, #171, .T. ) ;
#13 = DIRECTION ( 'NONE',  ( -0.000000000000000000, 1.000000000000000000, 0.000000000000000000 ) ) ;
#14 = DIRECTION ( 'NONE',  ( 0.000000000000000000, 0.000000000000000000, -1.000000000000000000 ) ) ;
#15 = DIRECTION ( 'NONE',  ( 0.000000000000000000, 5.142302105720965594E-16, 1.000000000000000000 ) ) ;
#16 = VERTEX_POINT ( 'NONE', #8 ) ;
#17 = ADVANCED_FACE ( 'NONE', ( #438 ), #62, .F. ) ;
#18 = DIRECTION ( 'NONE',  ( -1.000000000000000000, -0.000000000000000000, -0.000000000000000000 ) ) ;
#19 = FILL_AREA_STYLE ('',( #611 ) ) ;
#20 = LINE ( 'NONE', #185, #214 ) ;
#21 = ORIENTED_EDGE ( 'NONE', *, *, #205, .T. ) ;
#22 = EDGE_CURVE ( 'NONE', #143, #266, #63, .T. ) ;
#23 =( GEOMETRIC_REPRESENTATION_CONTEXT ( 3 ) GLOBAL_UNCERTAINTY_ASSIGNED_CONTEXT ( ( #659 ) ) GLOBAL_UNIT_ASSIGNED_CONTEXT ( ( #346, #58, #492 ) ) REPRESENTATION_CONTEXT ( 'NONE', 'WORKASPACE' ) );
#24 = CARTESIAN_POINT ( 'NONE',  ( 0.7500000000000001110, 3.250000000000001332, 2.250000000000000000 ) ) ;
#25 = FACE_OUTER_BOUND ( 'NONE', #150, .T. ) ;
#26 = DIRECTION ( 'NONE',  ( -0.000000000000000000, 1.000000000000000000, -5.142302105720966580E-16 ) ) ;
#27 = EDGE_CURVE ( 'NONE', #291, #427, #493, .T. ) ;
#28 = DIRECTION ( 'NONE',  ( 0.000000000000000000, -1.000000000000000000, 5.142302105720966580E-16 ) ) ;
#29 = CIRCLE ( 'NONE', #380, 0.1249999999999999584 ) ;
#30 = AXIS2_PLACEMENT_3D ( 'NONE', #505, #457, #672 ) ;
#31 = EDGE_CURVE ( 'NONE', #222, #417, #235, .T. ) ;
#32 = LINE ( 'NONE', #411, #169 ) ;
#33 = VERTEX_POINT ( 'NONE', #612 ) ;
#34 = EDGE_CURVE ( 'NONE', #603, #138, #551, .T. ) ;
#35 = CARTESIAN_POINT ( 'NONE',  ( 0.7500000000000001110, 0.000000000000000000, 0.1249999999999998612 ) ) ;
#36 = CYLINDRICAL_SURFACE ( 'NONE', #30, 0.2500000000000000555 ) ;
#37 = ORIENTED_EDGE ( 'NONE', *, *, #68, .F. ) ;
#38 = AXIS2_PLACEMENT_3D ( 'NONE', #116, #595, #553 ) ;
#39 = CARTESIAN_POINT ( 'NONE',  ( -0.7500000000000001110, 0.1249999999999999861, 1.704503720716724402 ) ) ;
#40 = DIRECTION ( 'NONE',  ( -0.000000000000000000, 1.000000000000000000, -5.142302105720966580E-16 ) ) ;
#41 = ORIENTED_EDGE ( 'NONE', *, *, #70, .T. ) ;
#42 = EDGE_CURVE ( 'NONE', #522, #427, #562, .T. ) ;
#43 = DIRECTION ( 'NONE',  ( -1.000000000000000000, -0.000000000000000000, -0.000000000000000000 ) ) ;
#44 = CIRCLE ( 'NONE', #661, 0.3749999999999999445 ) ;
#45 = CARTESIAN_POINT ( 'NONE',  ( 0.000000000000000000, -0.2500393700787405526, 1.500000000000001998 ) ) ;
#46 = EDGE_LOOP ( 'NONE', ( #341, #246, #693, #89 ) ) ;
#47 = CARTESIAN_POINT ( 'NONE',  ( 0.7500000000000001110, 0.000000000000000000, 1.704503720716724402 ) ) ;
#48 = CARTESIAN_POINT ( 'NONE',  ( 0.7500000000000001110, 0.8909432239323896718, 3.200715744633992887 ) ) ;
#49 = ORIENTED_EDGE ( 'NONE', *, *, #345, .F. ) ;
#50 = PRODUCT ( 'bracket', 'bracket', '', ( #288 ) ) ;
#51 = CARTESIAN_POINT ( 'NONE',  ( -0.7500000000000001110, -0.2500000000000000000, 1.704503720716724402 ) ) ;
#52 = EDGE_LOOP ( 'NONE', ( #412, #429, #482, #575 ) ) ;
#53 = CARTESIAN_POINT ( 'NONE',  ( -0.7500000000000001110, 3.500000000000000888, 2.250000000000000000 ) ) ;
#54 = AXIS2_PLACEMENT_3D ( 'NONE', #290, #555, #14 ) ;
#55 = VERTEX_POINT ( 'NONE', #35 ) ;
#56 =( LENGTH_UNIT ( ) NAMED_UNIT ( * ) SI_UNIT ( $, .METRE. ) );
#57 = ORIENTED_EDGE ( 'NONE', *, *, #68, .T. ) ;
#58 =( NAMED_UNIT ( * ) PLANE_ANGLE_UNIT ( ) SI_UNIT ( $, .RADIAN. ) );
#59 = EDGE_LOOP ( 'NONE', ( #635, #393, #195, #527 ) ) ;
#60 = EDGE_CURVE ( 'NONE', #518, #484, #574, .T. ) ;
#61 = CARTESIAN_POINT ( 'NONE',  ( -0.7500000000000001110, 0.1249999999999999861, 1.704503720716724402 ) ) ;
#62 = PLANE ( 'NONE',  #325 ) ;
#63 = CIRCLE ( 'NONE', #599, 0.3749999999999999445 ) ;
#64 = AXIS2_PLACEMENT_3D ( 'NONE', #397, #28, #357 ) ;
#65 = CARTESIAN_POINT ( 'NONE',  ( 0.7500000000000001110, 0.1250000000000000000, 0.000000000000000000 ) ) ;
#66 = DIRECTION ( 'NONE',  ( -1.000000000000000000, -0.000000000000000000, -0.000000000000000000 ) ) ;
#67 = DIRECTION ( 'NONE',  ( 0.000000000000000000, 0.000000000000000000, -1.000000000000000000 ) ) ;
#68 = EDGE_CURVE ( 'NONE', #461, #69, #199, .T. ) ;
#69 = VERTEX_POINT ( 'NONE', #410 ) ;
#70 = EDGE_CURVE ( 'NONE', #355, #331, #244, .T. ) ;
#71 = CARTESIAN_POINT ( 'NONE',  ( -0.7500000000000001110, 0.1250000000000000000, 0.000000000000000000 ) ) ;
#72 = DIRECTION ( 'NONE',  ( 0.000000000000000000, 0.7660444431189773473, -0.6427876096865401401 ) ) ;
#73 = AXIS2_PLACEMENT_3D ( 'NONE', #320, #99, #313 ) ;
#74 = ORIENTED_EDGE ( 'NONE', *, *, #81, .T. ) ;
#75 = DIRECTION ( 'NONE',  ( 0.000000000000000000, 0.7660444431189772363, -0.6427876096865402511 ) ) ;
#76 = CARTESIAN_POINT ( 'NONE',  ( 0.7500000000000001110, 3.500000000000000000, 0.1249999999999998612 ) ) ;
#77 = PRODUCT_DEFINITION_CONTEXT ( 'detailed design', #539, 'design' ) ;
#78 = EDGE_LOOP ( 'NONE', ( #378, #366, #565, #613 ) ) ;
#79 = VECTOR ( 'NONE', #626, 39.37007874015748143 ) ;
#80 = CIRCLE ( 'NONE', #490, 0.3749999999999999445 ) ;
#81 = EDGE_CURVE ( 'NONE', #396, #291, #9, .T. ) ;
#82 = CARTESIAN_POINT ( 'NONE',  ( 0.7500000000000001110, 3.250000000000000000, 0.1250000000000000000 ) ) ;
#83 = ORIENTED_EDGE ( 'NONE', *, *, #232, .F. ) ;
#84 = CARTESIAN_POINT ( 'NONE',  ( 0.7500000000000001110, 0.000000000000000000, 0.1249999999999998612 ) ) ;
#85 = UNCERTAINTY_MEASURE_WITH_UNIT (LENGTH_MEASURE( 1.000000000000000082E-05 ), #276, 'distance_accuracy_value', 'NONE');
#86 = ORIENTED_EDGE ( 'NONE', *, *, #267, .F. ) ;
#87 = EDGE_CURVE ( 'NONE', #331, #201, #496, .T. ) ;
#88 = DIRECTION ( 'NONE',  ( 0.000000000000000000, 5.142302105720965594E-16, 1.000000000000000000 ) ) ;
#89 = ORIENTED_EDGE ( 'NONE', *, *, #677, .T. ) ;
#90 = CARTESIAN_POINT ( 'NONE',  ( 0.7500000000000001110, 0.1250000000000000000, 0.1250000000000000000 ) ) ;
#91 = CARTESIAN_POINT ( 'NONE',  ( 0.7500000000000001110, 3.125000000000000000, 0.1250000000000000278 ) ) ;
#92 = ORIENTED_EDGE ( 'NONE', *, *, #31, .F. ) ;
#93 = DIRECTION ( 'NONE',  ( 0.000000000000000000, 0.000000000000000000, -1.000000000000000000 ) ) ;
#94 = CARTESIAN_POINT ( 'NONE',  ( -0.7500000000000001110, 0.000000000000000000, 1.704503720716724402 ) ) ;
#95 = EDGE_CURVE ( 'NONE', #610, #222, #29, .T. ) ;
#96 = ORIENTED_EDGE ( 'NONE', *, *, #22, .T. ) ;
#97 = CIRCLE ( 'NONE', #454, 0.2500000000000000555 ) ;
#98 = CARTESIAN_POINT ( 'NONE',  ( 0.7500000000000001110, 3.500000000000000888, 2.250000000000000000 ) ) ;
#99 = DIRECTION ( 'NONE',  ( -1.000000000000000000, -0.000000000000000000, -0.000000000000000000 ) ) ;
#100 = ORIENTED_EDGE ( 'NONE', *, *, #261, .T. ) ;
#101 = CARTESIAN_POINT ( 'NONE',  ( 0.7500000000000001110, 0.1249999999999999861, 1.704503720716724402 ) ) ;
#102 = VECTOR ( 'NONE', #636, 39.37007874015748143 ) ;
#103 = EDGE_CURVE ( 'NONE', #629, #461, #20, .T. ) ;
#104 = DIRECTION ( 'NONE',  ( 0.000000000000000000, -0.6427876096865401401, -0.7660444431189773473 ) ) ;
#105 = AXIS2_PLACEMENT_3D ( 'NONE', #45, #40, #637 ) ;
#106 = ORIENTED_EDGE ( 'NONE', *, *, #628, .F. ) ;
#107 = LINE ( 'NONE', #98, #223 ) ;
#108 = LINE ( 'NONE', #481, #322 ) ;
#109 = ORIENTED_EDGE ( 'NONE', *, *, #167, .F. ) ;
#110 = DIRECTION ( 'NONE',  ( 1.000000000000000000, 0.000000000000000000, 0.000000000000000000 ) ) ;
#111 = ORIENTED_EDGE ( 'NONE', *, *, #615, .T. ) ;
#112 = ADVANCED_FACE ( 'NONE', ( #395 ), #676, .T. ) ;
#113 = APPLICATION_CONTEXT ( 'automotive_design' ) ;
#114 = MECHANICAL_DESIGN_GEOMETRIC_PRESENTATION_REPRESENTATION (  '', ( #359 ), #23 ) ;
#115 = EDGE_LOOP ( 'NONE', ( #582, #591, #664, #479 ) ) ;
#116 = CARTESIAN_POINT ( 'NONE',  ( 0.7500000000000001110, 0.1250000000000000000, 0.1250000000000000000 ) ) ;
#117 = ORIENTED_EDGE ( 'NONE', *, *, #267, .T. ) ;
#118 = ADVANCED_FACE ( 'NONE', ( #25 ), #609, .F. ) ;
#119 = LENGTH_MEASURE_WITH_UNIT ( LENGTH_MEASURE( 0.02539999999999999897 ), #184 );
#120 = EDGE_LOOP ( 'NONE', ( #123, #632, #111, #606 ) ) ;
#121 = CARTESIAN_POINT ( 'NONE',  ( -0.7500000000000001110, 3.125000000000000000, -0.2499999999999999167 ) ) ;
#122 = AXIS2_PLACEMENT_3D ( 'NONE', #101, #529, #475 ) ;
#123 = ORIENTED_EDGE ( 'NONE', *, *, #34, .F. ) ;
#124 = VECTOR ( 'NONE', #88, 39.37007874015748143 ) ;
#125 = CARTESIAN_POINT ( 'NONE',  ( 0.7500000000000001110, 1.082454334712134036, 3.040018842212357519 ) ) ;
#126 = DIRECTION ( 'NONE',  ( -1.000000000000000000, -0.000000000000000000, -0.000000000000000000 ) ) ;
#127 = CARTESIAN_POINT ( 'NONE',  ( 0.7500000000000001110, 3.250000000000000000, 0.1250000000000000000 ) ) ;
#128 = EDGE_LOOP ( 'NONE', ( #561, #86, #314, #500 ) ) ;
#129 = ADVANCED_BREP_SHAPE_REPRESENTATION ( 'bracket', ( #327, #420 ), #614 ) ;
#130 = DIRECTION ( 'NONE',  ( -0.000000000000000000, 1.000000000000000000, -5.142302105720966580E-16 ) ) ;
#131 = ORIENTED_EDGE ( 'NONE', *, *, #239, .F. ) ;
#132 = ADVANCED_FACE ( 'NONE', ( #229 ), #666, .F. ) ;
#133 = CYLINDRICAL_SURFACE ( 'NONE', #256, 0.3749999999999999445 ) ;
#134 = ORIENTED_EDGE ( 'NONE', *, *, #677, .F. ) ;
#135 = CLOSED_SHELL ( 'NONE', ( #532, #517, #570, #415, #132, #112, #686, #189, #593, #473, #596, #17, #227, #299, #456, #541, #271, #486, #118, #514 ) ) ;
#136 = CIRCLE ( 'NONE', #370, 0.1250000000000000000 ) ;
#137 = LINE ( 'NONE', #82, #512 ) ;
#138 = VERTEX_POINT ( 'NONE', #356 ) ;
#139 = DIRECTION ( 'NONE',  ( 1.000000000000000000, 0.000000000000000000, 0.000000000000000000 ) ) ;
#140 = ORIENTED_EDGE ( 'NONE', *, *, #295, .F. ) ;
#141 = DIRECTION ( 'NONE',  ( 0.000000000000000000, 0.000000000000000000, 1.000000000000000000 ) ) ;
#142 = DIRECTION ( 'NONE',  ( 0.000000000000000000, 0.7660444431189769032, -0.6427876096865405842 ) ) ;
#143 = VERTEX_POINT ( 'NONE', #121 ) ;
#144 = CARTESIAN_POINT ( 'NONE',  ( -0.7500000000000001110, 3.250000000000000000, 0.1250000000000000000 ) ) ;
#145 = EDGE_CURVE ( 'NONE', #469, #222, #572, .T. ) ;
#146 = PLANE ( 'NONE',  #402 ) ;
#147 = ORIENTED_EDGE ( 'NONE', *, *, #328, .T. ) ;
#148 = CARTESIAN_POINT ( 'NONE',  ( -0.7500000000000001110, 3.250000000000001332, 2.250000000000000000 ) ) ;
#149 = DIRECTION ( 'NONE',  ( -1.000000000000000000, -0.000000000000000000, -0.000000000000000000 ) ) ;
#150 = EDGE_LOOP ( 'NONE', ( #373, #552, #369, #534, #432, #182, #49, #302, #622, #477, #578, #206, #688, #241, #459, #100 ) ) ;
#151 = PRESENTATION_LAYER_ASSIGNMENT (  '', '', ( #667 ) ) ;
#152 = PRODUCT_RELATED_PRODUCT_CATEGORY ( 'part', '', ( #50 ) ) ;
#153 = CARTESIAN_POINT ( 'NONE',  ( 0.7500000000000001110, 3.500000000000000888, 2.250000000000000000 ) ) ;
#154 = DIRECTION ( 'NONE',  ( 1.000000000000000000, 0.000000000000000000, 0.000000000000000000 ) ) ;
#155 = ORIENTED_EDGE ( 'NONE', *, *, #161, .T. ) ;
#156 = DIRECTION ( 'NONE',  ( -1.000000000000000000, -0.000000000000000000, -0.000000000000000000 ) ) ;
#157 = VECTOR ( 'NONE', #639, 39.37007874015748143 ) ;
#158 = DIRECTION ( 'NONE',  ( 0.000000000000000000, 0.000000000000000000, 1.000000000000000000 ) ) ;
#159 = VECTOR ( 'NONE', #533, 39.37007874015748143 ) ;
#160 = ORIENTED_EDGE ( 'NONE', *, *, #232, .T. ) ;
#161 = EDGE_CURVE ( 'NONE', #484, #355, #515, .T. ) ;
#162 = CYLINDRICAL_SURFACE ( 'NONE', #73, 0.1249999999999999029 ) ;
#163 = EDGE_LOOP ( 'NONE', ( #219, #306, #324, #117 ) ) ;
#164 = AXIS2_PLACEMENT_3D ( 'NONE', #419, #634, #374 ) ;
#165 = FACE_OUTER_BOUND ( 'NONE', #46, .T. ) ;
#166 = ORIENTED_EDGE ( 'NONE', *, *, #345, .T. ) ;
#167 = EDGE_CURVE ( 'NONE', #331, #266, #471, .T. ) ;
#168 = VECTOR ( 'NONE', #658, 39.37007874015748143 ) ;
#169 = VECTOR ( 'NONE', #142, 39.37007874015748854 ) ;
#170 = DIRECTION ( 'NONE',  ( -1.000000000000000000, -0.000000000000000000, -0.000000000000000000 ) ) ;
#171 = LINE ( 'NONE', #384, #157 ) ;
#172 = LINE ( 'NONE', #125, #557 ) ;
#173 = CARTESIAN_POINT ( 'NONE',  ( 0.7500000000000001110, -0.2500000000000000000, 1.704503720716724402 ) ) ;
#174 = VERTEX_POINT ( 'NONE', #414 ) ;
#175 =( NAMED_UNIT ( * ) SI_UNIT ( $, .STERADIAN. ) SOLID_ANGLE_UNIT ( ) );
#176 = CARTESIAN_POINT ( 'NONE',  ( 3.061616997868383018E-17, -0.2500393700787406637, 1.250000000000001998 ) ) ;
#177 = ORIENTED_EDGE ( 'NONE', *, *, #60, .F. ) ;
#178 = LENGTH_MEASURE_WITH_UNIT ( LENGTH_MEASURE( 0.02539999999999999897 ), #56 );
#179 = CARTESIAN_POINT ( 'NONE',  ( 0.7500000000000001110, 3.500000000000000000, 0.1249999999999998612 ) ) ;
#180 = DIRECTION ( 'NONE',  ( 0.000000000000000000, 0.000000000000000000, -1.000000000000000000 ) ) ;
#181 = VECTOR ( 'NONE', #483, 39.37007874015748143 ) ;
#182 = ORIENTED_EDGE ( 'NONE', *, *, #220, .F. ) ;
#183 = SHAPE_DEFINITION_REPRESENTATION ( #275, #129 ) ;
#184 =( LENGTH_UNIT ( ) NAMED_UNIT ( * ) SI_UNIT ( $, .METRE. ) );
#185 = CARTESIAN_POINT ( 'NONE',  ( 0.7500000000000001110, 0.8909432239323896718, 3.200715744633992887 ) ) ;
#186 = ORIENTED_EDGE ( 'NONE', *, *, #655, .F. ) ;
#187 = DIRECTION ( 'NONE',  ( 1.000000000000000000, 0.000000000000000000, 0.000000000000000000 ) ) ;
#188 = ORIENTED_EDGE ( 'NONE', *, *, #4, .T. ) ;
#189 = ADVANCED_FACE ( 'NONE', ( #260 ), #685, .T. ) ;
#190 = DIRECTION ( 'NONE',  ( 0.000000000000000000, 0.6427876096865402511, 0.7660444431189772363 ) ) ;
#191 = ORIENTED_EDGE ( 'NONE', *, *, #387, .F. ) ;
#192 = VECTOR ( 'NONE', #234, 39.37007874015748143 ) ;
#193 = AXIS2_PLACEMENT_3D ( 'NONE', #468, #158, #204 ) ;
#194 = PLANE ( 'NONE',  #470 ) ;
#195 = ORIENTED_EDGE ( 'NONE', *, *, #4, .F. ) ;
#196 = CARTESIAN_POINT ( 'NONE',  ( 0.7500000000000001110, 3.125000000000000000, 0.1250000000000000278 ) ) ;
#197 = CARTESIAN_POINT ( 'NONE',  ( 0.7500000000000001110, 3.250000000000000000, 0.1250000000000000000 ) ) ;
#198 = ORIENTED_EDGE ( 'NONE', *, *, #507, .T. ) ;
#199 = LINE ( 'NONE', #653, #389 ) ;
#200 = FACE_OUTER_BOUND ( 'NONE', #128, .T. ) ;
#201 = VERTEX_POINT ( 'NONE', #153 ) ;
#202 = DIMENSIONAL_EXPONENTS ( 1.000000000000000000, 0.000000000000000000, 0.000000000000000000, 0.000000000000000000, 0.000000000000000000, 0.000000000000000000, 0.000000000000000000 ) ;
#203 = LINE ( 'NONE', #148, #102 ) ;
#204 = DIRECTION ( 'NONE',  ( 1.000000000000000000, 0.000000000000000000, -0.000000000000000000 ) ) ;
#205 = EDGE_CURVE ( 'NONE', #348, #603, #226, .T. ) ;
#206 = ORIENTED_EDGE ( 'NONE', *, *, #641, .T. ) ;
#207 = CARTESIAN_POINT ( 'NONE',  ( 0.7500000000000001110, 0.000000000000000000, 1.704503720716724402 ) ) ;
#208 = CARTESIAN_POINT ( 'NONE',  ( 0.7500000000000001110, 3.125000000000000000, 6.829619984160658046E-17 ) ) ;
#209 = ORIENTED_EDGE ( 'NONE', *, *, #436, .F. ) ;
#210 = CARTESIAN_POINT ( 'NONE',  ( 0.7500000000000001110, 3.250000000000001332, 2.250000000000000000 ) ) ;
#211 = FACE_OUTER_BOUND ( 'NONE', #556, .T. ) ;
#212 = DIMENSIONAL_EXPONENTS ( 1.000000000000000000, 0.000000000000000000, 0.000000000000000000, 0.000000000000000000, 0.000000000000000000, 0.000000000000000000, 0.000000000000000000 ) ;
#213 = ORIENTED_EDGE ( 'NONE', *, *, #60, .T. ) ;
#214 = VECTOR ( 'NONE', #452, 39.37007874015748854 ) ;
#215 = DIRECTION ( 'NONE',  ( -0.000000000000000000, 1.000000000000000000, -5.142302105720966580E-16 ) ) ;
#216 = VECTOR ( 'NONE', #296, 39.37007874015748143 ) ;
#217 = ORIENTED_EDGE ( 'NONE', *, *, #42, .F. ) ;
#218 = DIRECTION ( 'NONE',  ( 0.000000000000000000, -5.142302105720966580E-16, -1.000000000000000000 ) ) ;
#219 = ORIENTED_EDGE ( 'NONE', *, *, #261, .F. ) ;
#220 = EDGE_CURVE ( 'NONE', #568, #540, #44, .T. ) ;
#221 = DIRECTION ( 'NONE',  ( 0.000000000000000000, -0.6427876096865401401, -0.7660444431189773473 ) ) ;
#222 = VERTEX_POINT ( 'NONE', #251 ) ;
#223 = VECTOR ( 'NONE', #371, 39.37007874015748143 ) ;
#224 = AXIS2_PLACEMENT_3D ( 'NONE', #91, #242, #619 ) ;
#225 = DIRECTION ( 'NONE',  ( 0.000000000000000000, -0.000000000000000000, 1.000000000000000000 ) ) ;
#226 = LINE ( 'NONE', #47, #350 ) ;
#227 = ADVANCED_FACE ( 'NONE', ( #583 ), #467, .T. ) ;
#228 = DIRECTION ( 'NONE',  ( 0.000000000000000000, 0.000000000000000000, 1.000000000000000000 ) ) ;
#229 = FACE_OUTER_BOUND ( 'NONE', #679, .T. ) ;
#230 = LINE ( 'NONE', #495, #10 ) ;
#231 = DIRECTION ( 'NONE',  ( 1.000000000000000000, 0.000000000000000000, 0.000000000000000000 ) ) ;
#232 = EDGE_CURVE ( 'NONE', #586, #469, #511, .T. ) ;
#233 = CARTESIAN_POINT ( 'NONE',  ( -0.7500000000000001110, 0.8909432239323896718, 3.200715744633992887 ) ) ;
#234 = DIRECTION ( 'NONE',  ( 0.000000000000000000, 0.000000000000000000, -1.000000000000000000 ) ) ;
#235 = LINE ( 'NONE', #144, #168 ) ;
#236 = ORIENTED_EDGE ( 'NONE', *, *, #379, .T. ) ;
#237 = CARTESIAN_POINT ( 'NONE',  ( 0.7500000000000001110, 0.1250000000000000000, 0.1250000000000000000 ) ) ;
#238 = CARTESIAN_POINT ( 'NONE',  ( 0.000000000000000000, 3.500000000000000444, 1.500000000000000222 ) ) ;
#239 = EDGE_CURVE ( 'NONE', #321, #540, #519, .T. ) ;
#240 = CARTESIAN_POINT ( 'NONE',  ( -0.7500000000000001110, 3.500000000000000000, 0.1249999999999998612 ) ) ;
#241 = ORIENTED_EDGE ( 'NONE', *, *, #95, .T. ) ;
#242 = DIRECTION ( 'NONE',  ( 1.000000000000000000, 0.000000000000000000, 0.000000000000000000 ) ) ;
#243 = ORIENTED_EDGE ( 'NONE', *, *, #220, .T. ) ;
#244 = CIRCLE ( 'NONE', #293, 0.3749999999999999445 ) ;
#245 = CARTESIAN_POINT ( 'NONE',  ( 0.7500000000000001110, 1.082454334712134036, 3.040018842212357519 ) ) ;
#246 = ORIENTED_EDGE ( 'NONE', *, *, #501, .F. ) ;
#247 = DIMENSIONAL_EXPONENTS ( 1.000000000000000000, 0.000000000000000000, 0.000000000000000000, 0.000000000000000000, 0.000000000000000000, 0.000000000000000000, 0.000000000000000000 ) ;
#248 = CARTESIAN_POINT ( 'NONE',  ( -0.7500000000000001110, 3.125000000000000000, 0.1250000000000000278 ) ) ;
#249 = CARTESIAN_POINT ( 'NONE',  ( 0.000000000000000000, -0.2500393700787403861, 1.750000000000001998 ) ) ;
#250 = ORIENTED_EDGE ( 'NONE', *, *, #588, .T. ) ;
#251 = CARTESIAN_POINT ( 'NONE',  ( -0.7500000000000001110, 3.250000000000000000, 0.1250000000000000000 ) ) ;
#252 = EDGE_CURVE ( 'NONE', #405, #417, #418, .T. ) ;
#253 = CARTESIAN_POINT ( 'NONE',  ( 0.7500000000000001110, 0.1250000000000000000, -0.2500000000000000000 ) ) ;
#254 = ORIENTED_EDGE ( 'NONE', *, *, #95, .F. ) ;
#255 = VECTOR ( 'NONE', #407, 39.37007874015748143 ) ;
#256 = AXIS2_PLACEMENT_3D ( 'NONE', #567, #674, #573 ) ;
#257 = DIRECTION ( 'NONE',  ( -1.000000000000000000, -0.000000000000000000, -0.000000000000000000 ) ) ;
#258 = FACE_OUTER_BOUND ( 'NONE', #163, .T. ) ;
#259 = ORIENTED_EDGE ( 'NONE', *, *, #524, .F. ) ;
#260 = FACE_OUTER_BOUND ( 'NONE', #120, .T. ) ;
#261 = EDGE_CURVE ( 'NONE', #417, #620, #203, .T. ) ;
#262 = DIRECTION ( 'NONE',  ( 0.000000000000000000, 0.000000000000000000, -1.000000000000000000 ) ) ;
#263 = EDGE_LOOP ( 'NONE', ( #166, #445, #259, #250 ) ) ;
#264 = AXIS2_PLACEMENT_3D ( 'NONE', #584, #110, #269 ) ;
#265 = DIRECTION ( 'NONE',  ( 0.000000000000000000, 0.000000000000000000, -1.000000000000000000 ) ) ;
#266 = VERTEX_POINT ( 'NONE', #630 ) ;
#267 = EDGE_CURVE ( 'NONE', #201, #620, #107, .T. ) ;
#268 = AXIS2_PLACEMENT_3D ( 'NONE', #207, #308, #363 ) ;
#269 = DIRECTION ( 'NONE',  ( 0.000000000000000000, 0.000000000000000000, 1.000000000000000000 ) ) ;
#270 = ORIENTED_EDGE ( 'NONE', *, *, #390, .F. ) ;
#271 = ADVANCED_FACE ( 'NONE', ( #312 ), #523, .T. ) ;
#272 = LINE ( 'NONE', #448, #181 ) ;
#273 = CARTESIAN_POINT ( 'NONE',  ( 0.7500000000000001110, -0.2500000000000000000, 1.704503720716724402 ) ) ;
#274 = COLOUR_RGB ( '',0.1254901960784313708, 0.7372549019607843590, 0.9411764705882352811 ) ;
#275 = PRODUCT_DEFINITION_SHAPE ( 'NONE', 'NONE',  #558 ) ;
#276 =( CONVERSION_BASED_UNIT ( 'INCH', #279 ) LENGTH_UNIT ( ) NAMED_UNIT ( #212 ) );
#277 = EDGE_CURVE ( 'NONE', #355, #143, #282, .T. ) ;
#278 = ORIENTED_EDGE ( 'NONE', *, *, #579, .T. ) ;
#279 = LENGTH_MEASURE_WITH_UNIT ( LENGTH_MEASURE( 0.02539999999999999897 ), #11 );
#280 = VECTOR ( 'NONE', #170, 39.37007874015748143 ) ;
#281 = VECTOR ( 'NONE', #464, 39.37007874015748143 ) ;
#282 = LINE ( 'NONE', #391, #617 ) ;
#283 = CARTESIAN_POINT ( 'NONE',  ( 0.000000000000000000, 3.250000000000000444, 1.500000000000000222 ) ) ;
#284 = DIRECTION ( 'NONE',  ( -1.000000000000000000, -0.000000000000000000, -0.000000000000000000 ) ) ;
#285 = EDGE_CURVE ( 'NONE', #540, #375, #439, .T. ) ;
#286 = CARTESIAN_POINT ( 'NONE',  ( 0.7500000000000001110, 0.000000000000000000, 1.704503720716724402 ) ) ;
#287 = DIRECTION ( 'NONE',  ( 0.000000000000000000, 1.000000000000000000, -5.142302105720966580E-16 ) ) ;
#288 = PRODUCT_CONTEXT ( 'NONE', #113, 'mechanical' ) ;
#289 = CARTESIAN_POINT ( 'NONE',  ( -0.7500000000000001110, 0.8909432239323896718, 3.200715744633992887 ) ) ;
#290 = CARTESIAN_POINT ( 'NONE',  ( -0.7500000000000001110, 3.125000000000000000, 0.1250000000000000278 ) ) ;
#291 = VERTEX_POINT ( 'NONE', #602 ) ;
#292 = CARTESIAN_POINT ( 'NONE',  ( 0.000000000000000000, 3.250000000000000444, 1.750000000000000222 ) ) ;
#293 = AXIS2_PLACEMENT_3D ( 'NONE', #360, #231, #576 ) ;
#294 = DIRECTION ( 'NONE',  ( 1.000000000000000000, 0.000000000000000000, -0.000000000000000000 ) ) ;
#295 = EDGE_CURVE ( 'NONE', #33, #311, #272, .T. ) ;
#296 = DIRECTION ( 'NONE',  ( -1.000000000000000000, -0.000000000000000000, -0.000000000000000000 ) ) ;
#297 = EDGE_LOOP ( 'NONE', ( #217, #594 ) ) ;
#298 = FACE_OUTER_BOUND ( 'NONE', #334, .T. ) ;
#299 = ADVANCED_FACE ( 'NONE', ( #339 ), #333, .F. ) ;
#300 = ORIENTED_EDGE ( 'NONE', *, *, #494, .T. ) ;
#301 = DIRECTION ( 'NONE',  ( 0.000000000000000000, -1.000000000000000000, 5.142302105720966580E-16 ) ) ;
#302 = ORIENTED_EDGE ( 'NONE', *, *, #406, .T. ) ;
#303 = AXIS2_PLACEMENT_3D ( 'NONE', #680, #689, #93 ) ;
#304 = DIRECTION ( 'NONE',  ( -1.000000000000000000, -0.000000000000000000, -0.000000000000000000 ) ) ;
#305 = CARTESIAN_POINT ( 'NONE',  ( 0.7500000000000001110, 0.02924444461012798771, 1.784852171927542086 ) ) ;
#306 = ORIENTED_EDGE ( 'NONE', *, *, #252, .F. ) ;
#307 = EDGE_CURVE ( 'NONE', #174, #568, #437, .T. ) ;
#308 = DIRECTION ( 'NONE',  ( -0.000000000000000000, 1.000000000000000000, 0.000000000000000000 ) ) ;
#309 = CARTESIAN_POINT ( 'NONE',  ( 0.7500000000000001110, 0.1250000000000000000, 0.000000000000000000 ) ) ;
#310 = AXIS2_PLACEMENT_3D ( 'NONE', #690, #323, #1 ) ;
#311 = VERTEX_POINT ( 'NONE', #394 ) ;
#312 = FACE_OUTER_BOUND ( 'NONE', #409, .T. ) ;
#313 = DIRECTION ( 'NONE',  ( 0.000000000000000000, 0.000000000000000000, 1.000000000000000000 ) ) ;
#314 = ORIENTED_EDGE ( 'NONE', *, *, #87, .F. ) ;
#315 = DIRECTION ( 'NONE',  ( 0.000000000000000000, 0.000000000000000000, -1.000000000000000000 ) ) ;
#316 = DIRECTION ( 'NONE',  ( 0.000000000000000000, 0.000000000000000000, 1.000000000000000000 ) ) ;
#317 = UNCERTAINTY_MEASURE_WITH_UNIT (LENGTH_MEASURE( 1.000000000000000082E-05 ), #491, 'distance_accuracy_value', 'NONE');
#318 = VERTEX_POINT ( 'NONE', #71 ) ;
#319 = DIRECTION ( 'NONE',  ( -1.000000000000000000, -0.000000000000000000, -0.000000000000000000 ) ) ;
#320 = CARTESIAN_POINT ( 'NONE',  ( 0.7500000000000001110, 0.1249999999999999861, 1.704503720716724402 ) ) ;
#321 = VERTEX_POINT ( 'NONE', #173 ) ;
#322 = VECTOR ( 'NONE', #265, 39.37007874015748143 ) ;
#323 = DIRECTION ( 'NONE',  ( 1.000000000000000000, 0.000000000000000000, 0.000000000000000000 ) ) ;
#324 = ORIENTED_EDGE ( 'NONE', *, *, #390, .T. ) ;
#325 = AXIS2_PLACEMENT_3D ( 'NONE', #547, #72, #440 ) ;
#326 = ORIENTED_EDGE ( 'NONE', *, *, #494, .F. ) ;
#327 = MANIFOLD_SOLID_BREP ( 'Cut-Extrude1', #135 ) ;
#328 = EDGE_CURVE ( 'NONE', #518, #375, #662, .T. ) ;
#329 =( NAMED_UNIT ( * ) SI_UNIT ( $, .STERADIAN. ) SOLID_ANGLE_UNIT ( ) );
#330 = DIRECTION ( 'NONE',  ( 1.000000000000000000, 0.000000000000000000, 0.000000000000000000 ) ) ;
#331 = VERTEX_POINT ( 'NONE', #179 ) ;
#332 =( GEOMETRIC_REPRESENTATION_CONTEXT ( 3 ) GLOBAL_UNCERTAINTY_ASSIGNED_CONTEXT ( ( #317 ) ) GLOBAL_UNIT_ASSIGNED_CONTEXT ( ( #491, #3, #175 ) ) REPRESENTATION_CONTEXT ( 'NONE', 'WORKASPACE' ) );
#333 = PLANE ( 'NONE',  #585 ) ;
#334 = EDGE_LOOP ( 'NONE', ( #92, #386, #300, #669 ) ) ;
#335 = EDGE_CURVE ( 'NONE', #484, #16, #230, .T. ) ;
#336 = DIRECTION ( 'NONE',  ( 0.000000000000000000, 1.000000000000000000, 0.000000000000000000 ) ) ;
#337 = VECTOR ( 'NONE', #15, 39.37007874015748143 ) ;
#338 = AXIS2_PLACEMENT_3D ( 'NONE', #559, #187, #460 ) ;
#339 = FACE_OUTER_BOUND ( 'NONE', #59, .T. ) ;
#340 = CARTESIAN_POINT ( 'NONE',  ( -0.7500000000000001110, 0.000000000000000000, 1.704503720716724402 ) ) ;
#341 = ORIENTED_EDGE ( 'NONE', *, *, #641, .F. ) ;
#342 = LINE ( 'NONE', #446, #463 ) ;
#343 = DIRECTION ( 'NONE',  ( 0.000000000000000000, 0.000000000000000000, 1.000000000000000000 ) ) ;
#344 = ORIENTED_EDGE ( 'NONE', *, *, #628, .T. ) ;
#345 = EDGE_CURVE ( 'NONE', #660, #568, #443, .T. ) ;
#346 =( CONVERSION_BASED_UNIT ( 'INCH', #119 ) LENGTH_UNIT ( ) NAMED_UNIT ( #202 ) );
#347 = DIRECTION ( 'NONE',  ( 1.000000000000000000, 0.000000000000000000, 0.000000000000000000 ) ) ;
#348 = VERTEX_POINT ( 'NONE', #286 ) ;
#349 = FACE_OUTER_BOUND ( 'NONE', #474, .T. ) ;
#350 = VECTOR ( 'NONE', #43, 39.37007874015748143 ) ;
#351 = VECTOR ( 'NONE', #104, 39.37007874015748854 ) ;
#352 = ORIENTED_EDGE ( 'NONE', *, *, #145, .T. ) ;
#353 = LINE ( 'NONE', #84, #563 ) ;
#354 = LINE ( 'NONE', #305, #216 ) ;
#355 = VERTEX_POINT ( 'NONE', #498 ) ;
#356 = CARTESIAN_POINT ( 'NONE',  ( -0.7500000000000001110, 0.000000000000000000, 0.1249999999999998612 ) ) ;
#357 = DIRECTION ( 'NONE',  ( 0.000000000000000000, -5.142302105720966580E-16, -1.000000000000000000 ) ) ;
#358 = ORIENTED_EDGE ( 'NONE', *, *, #335, .F. ) ;
#359 = STYLED_ITEM ( 'NONE', ( #543 ), #327 ) ;
#360 = CARTESIAN_POINT ( 'NONE',  ( 0.7500000000000001110, 3.125000000000000000, 0.1250000000000000278 ) ) ;
#361 = LINE ( 'NONE', #309, #376 ) ;
#362 = ORIENTED_EDGE ( 'NONE', *, *, #566, .T. ) ;
#363 = DIRECTION ( 'NONE',  ( 0.000000000000000000, -0.000000000000000000, 1.000000000000000000 ) ) ;
#364 = CARTESIAN_POINT ( 'NONE',  ( 0.7500000000000001110, 0.8909432239323896718, 3.200715744633992887 ) ) ;
#365 = MECHANICAL_DESIGN_GEOMETRIC_PRESENTATION_REPRESENTATION (  '', ( #667 ), #332 ) ;
#366 = ORIENTED_EDGE ( 'NONE', *, *, #588, .F. ) ;
#367 = DIRECTION ( 'NONE',  ( 1.000000000000000000, 0.000000000000000000, 0.000000000000000000 ) ) ;
#368 = CARTESIAN_POINT ( 'NONE',  ( 0.7500000000000001110, 0.8909432239323896718, 3.200715744633992887 ) ) ;
#369 = ORIENTED_EDGE ( 'NONE', *, *, #12, .F. ) ;
#370 = AXIS2_PLACEMENT_3D ( 'NONE', #237, #139, #404 ) ;
#371 = DIRECTION ( 'NONE',  ( -1.000000000000000000, -0.000000000000000000, -0.000000000000000000 ) ) ;
#372 = DIRECTION ( 'NONE',  ( 0.000000000000000000, 1.000000000000000000, 0.000000000000000000 ) ) ;
#373 = ORIENTED_EDGE ( 'NONE', *, *, #453, .F. ) ;
#374 = DIRECTION ( 'NONE',  ( 0.000000000000000000, -0.7660444431189769032, 0.6427876096865405842 ) ) ;
#375 = VERTEX_POINT ( 'NONE', #657 ) ;
#376 = VECTOR ( 'NONE', #336, 39.37007874015748143 ) ;
#377 = CYLINDRICAL_SURFACE ( 'NONE', #38, 0.1250000000000000000 ) ;
#378 = ORIENTED_EDGE ( 'NONE', *, *, #406, .F. ) ;
#379 = EDGE_CURVE ( 'NONE', #427, #522, #618, .T. ) ;
#380 = AXIS2_PLACEMENT_3D ( 'NONE', #444, #388, #392 ) ;
#381 = AXIS2_PLACEMENT_3D ( 'NONE', #253, #316, #692 ) ;
#382 =( NAMED_UNIT ( * ) PLANE_ANGLE_UNIT ( ) SI_UNIT ( $, .RADIAN. ) );
#383 = SURFACE_SIDE_STYLE ('',( #550 ) ) ;
#384 = CARTESIAN_POINT ( 'NONE',  ( -0.7500000000000001110, 0.1250000000000000000, -0.2500000000000000000 ) ) ;
#385 = DIRECTION ( 'NONE',  ( 0.000000000000000000, 1.000000000000000000, -5.142302105720966580E-16 ) ) ;
#386 = ORIENTED_EDGE ( 'NONE', *, *, #145, .F. ) ;
#387 = EDGE_CURVE ( 'NONE', #311, #603, #671, .T. ) ;
#388 = DIRECTION ( 'NONE',  ( 1.000000000000000000, 0.000000000000000000, 0.000000000000000000 ) ) ;
#389 = VECTOR ( 'NONE', #449, 39.37007874015748143 ) ;
#390 = EDGE_CURVE ( 'NONE', #405, #201, #7, .T. ) ;
#391 = CARTESIAN_POINT ( 'NONE',  ( 0.7500000000000001110, 3.125000000000000000, -0.2499999999999999167 ) ) ;
#392 = DIRECTION ( 'NONE',  ( 0.000000000000000000, 0.000000000000000000, -1.000000000000000000 ) ) ;
#393 = ORIENTED_EDGE ( 'NONE', *, *, #328, .F. ) ;
#394 = CARTESIAN_POINT ( 'NONE',  ( -0.7500000000000001110, 0.02924444461012798771, 1.784852171927542086 ) ) ;
#395 = FACE_OUTER_BOUND ( 'NONE', #601, .T. ) ;
#396 = VERTEX_POINT ( 'NONE', #292 ) ;
#397 = CARTESIAN_POINT ( 'NONE',  ( 0.7500000000000001110, 3.250000000000000000, 0.1250000000000000000 ) ) ;
#398 = ORIENTED_EDGE ( 'NONE', *, *, #654, .T. ) ;
#399 = EDGE_CURVE ( 'NONE', #55, #684, #136, .T. ) ;
#400 = PLANE ( 'NONE',  #224 ) ;
#401 = VECTOR ( 'NONE', #257, 39.37007874015748143 ) ;
#402 = AXIS2_PLACEMENT_3D ( 'NONE', #408, #75, #190 ) ;
#403 = ORIENTED_EDGE ( 'NONE', *, *, #654, .F. ) ;
#404 = DIRECTION ( 'NONE',  ( 0.000000000000000000, 0.000000000000000000, 1.000000000000000000 ) ) ;
#405 = VERTEX_POINT ( 'NONE', #508 ) ;
#406 = EDGE_CURVE ( 'NONE', #660, #33, #32, .T. ) ;
#407 = DIRECTION ( 'NONE',  ( 0.000000000000000000, 0.000000000000000000, -1.000000000000000000 ) ) ;
#408 = CARTESIAN_POINT ( 'NONE',  ( 0.7500000000000001110, 1.082454334712134036, 3.040018842212357519 ) ) ;
#409 = EDGE_LOOP ( 'NONE', ( #96, #109, #625, #643 ) ) ;
#410 = CARTESIAN_POINT ( 'NONE',  ( 0.7500000000000001110, 0.02924444461012798771, 1.784852171927542086 ) ) ;
#411 = CARTESIAN_POINT ( 'NONE',  ( -0.7500000000000001110, 0.8909432239323896718, 3.200715744633992887 ) ) ;
#412 = ORIENTED_EDGE ( 'NONE', *, *, #12, .T. ) ;
#413 = AXIS2_PLACEMENT_3D ( 'NONE', #504, #343, #294 ) ;
#414 = CARTESIAN_POINT ( 'NONE',  ( 0.7500000000000001110, -0.1622666661696160750, 1.945549074349177454 ) ) ;
#415 = ADVANCED_FACE ( 'NONE', ( #665, #298 ), #451, .T. ) ;
#416 = CARTESIAN_POINT ( 'NONE',  ( 0.000000000000000000, 3.500000000000000444, 1.750000000000000222 ) ) ;
#417 = VERTEX_POINT ( 'NONE', #627 ) ;
#418 = LINE ( 'NONE', #210, #433 ) ;
#419 = CARTESIAN_POINT ( 'NONE',  ( 0.7500000000000001110, 0.8909432239323896718, 3.200715744633992887 ) ) ;
#420 = AXIS2_PLACEMENT_3D ( 'NONE', #549, #442, #656 ) ;
#421 = ORIENTED_EDGE ( 'NONE', *, *, #466, .T. ) ;
#422 = DIRECTION ( 'NONE',  ( -1.000000000000000000, -0.000000000000000000, -0.000000000000000000 ) ) ;
#423 = FACE_OUTER_BOUND ( 'NONE', #52, .T. ) ;
#424 = EDGE_LOOP ( 'NONE', ( #191, #488, #421, #21 ) ) ;
#425 = AXIS2_PLACEMENT_3D ( 'NONE', #646, #385, #600 ) ;
#426 = CYLINDRICAL_SURFACE ( 'NONE', #105, 0.2500000000000000555 ) ;
#427 = VERTEX_POINT ( 'NONE', #510 ) ;
#428 = PLANE ( 'NONE',  #164 ) ;
#429 = ORIENTED_EDGE ( 'NONE', *, *, #277, .F. ) ;
#430 = FILL_AREA_STYLE ('',( #542 ) ) ;
#431 = DIRECTION ( 'NONE',  ( -1.000000000000000000, -0.000000000000000000, -0.000000000000000000 ) ) ;
#432 = ORIENTED_EDGE ( 'NONE', *, *, #285, .F. ) ;
#433 = VECTOR ( 'NONE', #422, 39.37007874015748143 ) ;
#434 = VECTOR ( 'NONE', #221, 39.37007874015748854 ) ;
#435 = SURFACE_SIDE_STYLE ('',( #604 ) ) ;
#436 = EDGE_CURVE ( 'NONE', #396, #522, #678, .T. ) ;
#437 = LINE ( 'NONE', #650, #280 ) ;
#438 = FACE_OUTER_BOUND ( 'NONE', #263, .T. ) ;
#439 = LINE ( 'NONE', #546, #192 ) ;
#440 = DIRECTION ( 'NONE',  ( 0.000000000000000000, 0.6427876096865401401, 0.7660444431189773473 ) ) ;
#441 = CIRCLE ( 'NONE', #310, 0.3749999999999999445 ) ;
#442 = DIRECTION ( 'NONE',  ( 0.000000000000000000, 0.000000000000000000, 1.000000000000000000 ) ) ;
#443 = LINE ( 'NONE', #289, #434 ) ;
#444 = CARTESIAN_POINT ( 'NONE',  ( -0.7500000000000001110, 3.125000000000000000, 0.1250000000000000278 ) ) ;
#445 = ORIENTED_EDGE ( 'NONE', *, *, #307, .F. ) ;
#446 = CARTESIAN_POINT ( 'NONE',  ( 0.7500000000000001110, 0.1250000000000000000, 0.000000000000000000 ) ) ;
#447 = PRESENTATION_LAYER_ASSIGNMENT (  '', '', ( #359 ) ) ;
#448 = CARTESIAN_POINT ( 'NONE',  ( -0.7500000000000001110, 1.082454334712134036, 3.040018842212357519 ) ) ;
#449 = DIRECTION ( 'NONE',  ( 0.000000000000000000, -0.6427876096865402511, -0.7660444431189772363 ) ) ;
#450 = EDGE_LOOP ( 'NONE', ( #651, #358, #177, #147 ) ) ;
#451 = PLANE ( 'NONE',  #64 ) ;
#452 = DIRECTION ( 'NONE',  ( 0.000000000000000000, 0.7660444431189769032, -0.6427876096865405842 ) ) ;
#453 = EDGE_CURVE ( 'NONE', #266, #620, #616, .T. ) ;
#454 = AXIS2_PLACEMENT_3D ( 'NONE', #644, #215, #262 ) ;
#455 = FACE_OUTER_BOUND ( 'NONE', #450, .T. ) ;
#456 = ADVANCED_FACE ( 'NONE', ( #455 ), #133, .T. ) ;
#457 = DIRECTION ( 'NONE',  ( -0.000000000000000000, 1.000000000000000000, -5.142302105720966580E-16 ) ) ;
#458 = VECTOR ( 'NONE', #26, 39.37007874015748143 ) ;
#459 = ORIENTED_EDGE ( 'NONE', *, *, #31, .T. ) ;
#460 = DIRECTION ( 'NONE',  ( 0.000000000000000000, 0.000000000000000000, -1.000000000000000000 ) ) ;
#461 = VERTEX_POINT ( 'NONE', #245 ) ;
#462 = DIRECTION ( 'NONE',  ( 0.000000000000000000, 0.000000000000000000, 1.000000000000000000 ) ) ;
#463 = VECTOR ( 'NONE', #18, 39.37007874015748143 ) ;
#464 = DIRECTION ( 'NONE',  ( 0.000000000000000000, 1.000000000000000000, 0.000000000000000000 ) ) ;
#465 = EDGE_LOOP ( 'NONE', ( #74, #344 ) ) ;
#466 = EDGE_CURVE ( 'NONE', #69, #348, #528, .T. ) ;
#467 = CYLINDRICAL_SURFACE ( 'NONE', #122, 0.3749999999999999445 ) ;
#468 = CARTESIAN_POINT ( 'NONE',  ( 0.7500000000000001110, 3.250000000000001332, 2.250000000000000000 ) ) ;
#469 = VERTEX_POINT ( 'NONE', #197 ) ;
#470 = AXIS2_PLACEMENT_3D ( 'NONE', #569, #301, #218 ) ;
#471 = LINE ( 'NONE', #633, #648 ) ;
#472 = PLANE ( 'NONE',  #193 ) ;
#473 = ADVANCED_FACE ( 'NONE', ( #349 ), #146, .T. ) ;
#474 = EDGE_LOOP ( 'NONE', ( #140, #186, #57, #198 ) ) ;
#475 = DIRECTION ( 'NONE',  ( 0.000000000000000000, 0.000000000000000000, 1.000000000000000000 ) ) ;
#476 = CARTESIAN_POINT ( 'NONE',  ( -0.7500000000000001110, 3.125000000000000000, 6.829619984160658046E-17 ) ) ;
#477 = ORIENTED_EDGE ( 'NONE', *, *, #387, .T. ) ;
#478 = CARTESIAN_POINT ( 'NONE',  ( -0.7500000000000001110, 0.1250000000000000000, 0.000000000000000000 ) ) ;
#479 = ORIENTED_EDGE ( 'NONE', *, *, #42, .T. ) ;
#480 = VECTOR ( 'NONE', #304, 39.37007874015748143 ) ;
#481 = CARTESIAN_POINT ( 'NONE',  ( 0.7500000000000001110, 0.000000000000000000, 1.704503720716724402 ) ) ;
#482 = ORIENTED_EDGE ( 'NONE', *, *, #161, .F. ) ;
#483 = DIRECTION ( 'NONE',  ( 0.000000000000000000, -0.6427876096865402511, -0.7660444431189772363 ) ) ;
#484 = VERTEX_POINT ( 'NONE', #564 ) ;
#485 = PRODUCT_DEFINITION_FORMATION_WITH_SPECIFIED_SOURCE ( 'ANY', '', #50, .NOT_KNOWN. ) ;
#486 = ADVANCED_FACE ( 'NONE', ( #668 ), #400, .T. ) ;
#487 = DIRECTION ( 'NONE',  ( 0.000000000000000000, 0.000000000000000000, -1.000000000000000000 ) ) ;
#488 = ORIENTED_EDGE ( 'NONE', *, *, #507, .F. ) ;
#489 = AXIS2_PLACEMENT_3D ( 'NONE', #589, #319, #228 ) ;
#490 = AXIS2_PLACEMENT_3D ( 'NONE', #687, #154, #521 ) ;
#491 =( CONVERSION_BASED_UNIT ( 'INCH', #178 ) LENGTH_UNIT ( ) NAMED_UNIT ( #247 ) );
#492 =( NAMED_UNIT ( * ) SI_UNIT ( $, .STERADIAN. ) SOLID_ANGLE_UNIT ( ) );
#493 = LINE ( 'NONE', #176, #526 ) ;
#494 = EDGE_CURVE ( 'NONE', #469, #405, #137, .T. ) ;
#495 = CARTESIAN_POINT ( 'NONE',  ( 0.7500000000000001110, 0.1250000000000000000, -0.2500000000000000000 ) ) ;
#496 = LINE ( 'NONE', #76, #337 ) ;
#497 = APPLICATION_PROTOCOL_DEFINITION ( 'draft international standard', 'automotive_design', 1998, #539 ) ;
#498 = CARTESIAN_POINT ( 'NONE',  ( 0.7500000000000001110, 3.125000000000000000, -0.2499999999999999167 ) ) ;
#499 = CARTESIAN_POINT ( 'NONE',  ( 0.7500000000000001110, 0.1250000000000000000, -0.2500000000000000000 ) ) ;
#500 = ORIENTED_EDGE ( 'NONE', *, *, #167, .T. ) ;
#501 = EDGE_CURVE ( 'NONE', #55, #138, #353, .T. ) ;
#502 = VECTOR ( 'NONE', #66, 39.37007874015748143 ) ;
#503 = DIRECTION ( 'NONE',  ( -1.000000000000000000, -0.000000000000000000, -0.000000000000000000 ) ) ;
#504 = CARTESIAN_POINT ( 'NONE',  ( 0.7500000000000001110, 0.1250000000000000000, 0.000000000000000000 ) ) ;
#505 = CARTESIAN_POINT ( 'NONE',  ( 0.000000000000000000, -0.2500393700787405526, 1.500000000000001998 ) ) ;
#506 = ORIENTED_EDGE ( 'NONE', *, *, #87, .T. ) ;
#507 = EDGE_CURVE ( 'NONE', #69, #311, #354, .T. ) ;
#508 = CARTESIAN_POINT ( 'NONE',  ( 0.7500000000000001110, 3.250000000000001332, 2.250000000000000000 ) ) ;
#509 = ORIENTED_EDGE ( 'NONE', *, *, #524, .T. ) ;
#510 = CARTESIAN_POINT ( 'NONE',  ( 3.061616997868382402E-17, 3.500000000000000444, 1.250000000000000000 ) ) ;
#511 = CIRCLE ( 'NONE', #303, 0.1249999999999999584 ) ;
#512 = VECTOR ( 'NONE', #624, 39.37007874015748143 ) ;
#513 = EDGE_LOOP ( 'NONE', ( #506, #270, #326, #83, #403, #675, #645, #691, #37, #544, #509, #362, #188, #213, #155, #41 ) ) ;
#514 = ADVANCED_FACE ( 'NONE', ( #516 ), #36, .F. ) ;
#515 = LINE ( 'NONE', #499, #79 ) ;
#516 = FACE_OUTER_BOUND ( 'NONE', #115, .T. ) ;
#517 = ADVANCED_FACE ( 'NONE', ( #621, #200 ), #194, .F. ) ;
#518 = VERTEX_POINT ( 'NONE', #592 ) ;
#519 = LINE ( 'NONE', #580, #401 ) ;
#520 = CIRCLE ( 'NONE', #264, 0.1250000000000000000 ) ;
#521 = DIRECTION ( 'NONE',  ( 0.000000000000000000, 0.000000000000000000, -1.000000000000000000 ) ) ;
#522 = VERTEX_POINT ( 'NONE', #416 ) ;
#523 = CYLINDRICAL_SURFACE ( 'NONE', #489, 0.3749999999999999445 ) ;
#524 = EDGE_CURVE ( 'NONE', #629, #174, #525, .T. ) ;
#525 = LINE ( 'NONE', #48, #351 ) ;
#526 = VECTOR ( 'NONE', #130, 39.37007874015748143 ) ;
#527 = ORIENTED_EDGE ( 'NONE', *, *, #239, .T. ) ;
#528 = CIRCLE ( 'NONE', #338, 0.1249999999999999029 ) ;
#529 = DIRECTION ( 'NONE',  ( -1.000000000000000000, -0.000000000000000000, -0.000000000000000000 ) ) ;
#530 = LINE ( 'NONE', #364, #159 ) ;
#531 = ORIENTED_EDGE ( 'NONE', *, *, #566, .F. ) ;
#532 = ADVANCED_FACE ( 'NONE', ( #211 ), #426, .F. ) ;
#533 = DIRECTION ( 'NONE',  ( -1.000000000000000000, -0.000000000000000000, -0.000000000000000000 ) ) ;
#534 = ORIENTED_EDGE ( 'NONE', *, *, #649, .F. ) ;
#535 = EDGE_CURVE ( 'NONE', #318, #610, #682, .T. ) ;
#536 = FACE_OUTER_BOUND ( 'NONE', #78, .T. ) ;
#537 = ORIENTED_EDGE ( 'NONE', *, *, #307, .T. ) ;
#538 = PRESENTATION_STYLE_ASSIGNMENT (( #545 ) ) ;
#539 = APPLICATION_CONTEXT ( 'automotive_design' ) ;
#540 = VERTEX_POINT ( 'NONE', #51 ) ;
#541 = ADVANCED_FACE ( 'NONE', ( #423 ), #631, .F. ) ;
#542 = FILL_AREA_STYLE_COLOUR ( '', #274 ) ;
#543 = PRESENTATION_STYLE_ASSIGNMENT (( #652 ) ) ;
#544 = ORIENTED_EDGE ( 'NONE', *, *, #103, .F. ) ;
#545 = SURFACE_STYLE_USAGE ( .BOTH. , #435 ) ;
#546 = CARTESIAN_POINT ( 'NONE',  ( -0.7500000000000001110, -0.2500000000000000000, 1.704503720716724402 ) ) ;
#547 = CARTESIAN_POINT ( 'NONE',  ( 0.7500000000000001110, 0.8909432239323896718, 3.200715744633992887 ) ) ;
#548 = AXIS2_PLACEMENT_3D ( 'NONE', #238, #287, #462 ) ;
#549 = CARTESIAN_POINT ( 'NONE',  ( 0.000000000000000000, 0.000000000000000000, 0.000000000000000000 ) ) ;
#550 = SURFACE_STYLE_FILL_AREA ( #19 ) ;
#551 = LINE ( 'NONE', #340, #255 ) ;
#552 = ORIENTED_EDGE ( 'NONE', *, *, #22, .F. ) ;
#553 = DIRECTION ( 'NONE',  ( 0.000000000000000000, 0.000000000000000000, 1.000000000000000000 ) ) ;
#554 = CARTESIAN_POINT ( 'NONE',  ( 0.7500000000000001110, -0.2499999999999999722, 0.1249999999999997363 ) ) ;
#555 = DIRECTION ( 'NONE',  ( 1.000000000000000000, 0.000000000000000000, 0.000000000000000000 ) ) ;
#556 = EDGE_LOOP ( 'NONE', ( #106, #571, #236, #209 ) ) ;
#557 = VECTOR ( 'NONE', #284, 39.37007874015748143 ) ;
#558 = PRODUCT_DEFINITION ( 'UNKNOWN', '', #485, #77 ) ;
#559 = CARTESIAN_POINT ( 'NONE',  ( 0.7500000000000001110, 0.1249999999999999861, 1.704503720716724402 ) ) ;
#560 = DIRECTION ( 'NONE',  ( -0.000000000000000000, 1.000000000000000000, -5.142302105720966580E-16 ) ) ;
#561 = ORIENTED_EDGE ( 'NONE', *, *, #453, .T. ) ;
#562 = CIRCLE ( 'NONE', #548, 0.2500000000000000555 ) ;
#563 = VECTOR ( 'NONE', #503, 39.37007874015748143 ) ;
#564 = CARTESIAN_POINT ( 'NONE',  ( 0.7500000000000001110, 0.1250000000000000000, -0.2500000000000000000 ) ) ;
#565 = ORIENTED_EDGE ( 'NONE', *, *, #103, .T. ) ;
#566 = EDGE_CURVE ( 'NONE', #174, #321, #80, .T. ) ;
#567 = CARTESIAN_POINT ( 'NONE',  ( 0.7500000000000001110, 0.1250000000000000000, 0.1250000000000000000 ) ) ;
#568 = VERTEX_POINT ( 'NONE', #577 ) ;
#569 = CARTESIAN_POINT ( 'NONE',  ( 0.7500000000000001110, 3.500000000000000000, 0.1249999999999998612 ) ) ;
#570 = ADVANCED_FACE ( 'NONE', ( #258 ), #472, .T. ) ;
#571 = ORIENTED_EDGE ( 'NONE', *, *, #27, .T. ) ;
#572 = LINE ( 'NONE', #127, #480 ) ;
#573 = DIRECTION ( 'NONE',  ( 0.000000000000000000, 0.000000000000000000, 1.000000000000000000 ) ) ;
#574 = CIRCLE ( 'NONE', #607, 0.3749999999999999445 ) ;
#575 = ORIENTED_EDGE ( 'NONE', *, *, #335, .T. ) ;
#576 = DIRECTION ( 'NONE',  ( 0.000000000000000000, 0.000000000000000000, -1.000000000000000000 ) ) ;
#577 = CARTESIAN_POINT ( 'NONE',  ( -0.7500000000000001110, -0.1622666661696160750, 1.945549074349177454 ) ) ;
#578 = ORIENTED_EDGE ( 'NONE', *, *, #34, .T. ) ;
#579 = EDGE_CURVE ( 'NONE', #586, #610, #642, .T. ) ;
#580 = CARTESIAN_POINT ( 'NONE',  ( 0.7500000000000001110, -0.2500000000000000000, 1.704503720716724402 ) ) ;
#581 = FACE_OUTER_BOUND ( 'NONE', #424, .T. ) ;
#582 = ORIENTED_EDGE ( 'NONE', *, *, #27, .F. ) ;
#583 = FACE_OUTER_BOUND ( 'NONE', #673, .T. ) ;
#584 = CARTESIAN_POINT ( 'NONE',  ( -0.7500000000000001110, 0.1250000000000000000, 0.1250000000000000000 ) ) ;
#585 = AXIS2_PLACEMENT_3D ( 'NONE', #5, #13, #225 ) ;
#586 = VERTEX_POINT ( 'NONE', #590 ) ;
#587 = VECTOR ( 'NONE', #149, 39.37007874015748143 ) ;
#588 = EDGE_CURVE ( 'NONE', #629, #660, #530, .T. ) ;
#589 = CARTESIAN_POINT ( 'NONE',  ( 0.7500000000000001110, 3.125000000000000000, 0.1250000000000000278 ) ) ;
#590 = CARTESIAN_POINT ( 'NONE',  ( 0.7500000000000001110, 3.125000000000000000, 6.829619984160658046E-17 ) ) ;
#591 = ORIENTED_EDGE ( 'NONE', *, *, #81, .F. ) ;
#592 = CARTESIAN_POINT ( 'NONE',  ( 0.7500000000000001110, -0.2499999999999999722, 0.1249999999999997363 ) ) ;
#593 = ADVANCED_FACE ( 'NONE', ( #581 ), #162, .F. ) ;
#594 = ORIENTED_EDGE ( 'NONE', *, *, #379, .F. ) ;
#595 = DIRECTION ( 'NONE',  ( -1.000000000000000000, -0.000000000000000000, -0.000000000000000000 ) ) ;
#596 = ADVANCED_FACE ( 'NONE', ( #536 ), #428, .T. ) ;
#597 = LINE ( 'NONE', #273, #598 ) ;
#598 = VECTOR ( 'NONE', #6, 39.37007874015748143 ) ;
#599 = AXIS2_PLACEMENT_3D ( 'NONE', #248, #605, #67 ) ;
#600 = DIRECTION ( 'NONE',  ( 0.000000000000000000, 0.000000000000000000, 1.000000000000000000 ) ) ;
#601 = EDGE_LOOP ( 'NONE', ( #2, #134, #398, #278 ) ) ;
#602 = CARTESIAN_POINT ( 'NONE',  ( 3.061616997868382402E-17, 3.250000000000000444, 1.250000000000000000 ) ) ;
#603 = VERTEX_POINT ( 'NONE', #94 ) ;
#604 = SURFACE_STYLE_FILL_AREA ( #430 ) ;
#605 = DIRECTION ( 'NONE',  ( 1.000000000000000000, 0.000000000000000000, 0.000000000000000000 ) ) ;
#606 = ORIENTED_EDGE ( 'NONE', *, *, #501, .T. ) ;
#607 = AXIS2_PLACEMENT_3D ( 'NONE', #90, #347, #180 ) ;
#608 = APPLICATION_PROTOCOL_DEFINITION ( 'draft international standard', 'automotive_design', 1998, #113 ) ;
#609 = PLANE ( 'NONE',  #54 ) ;
#610 = VERTEX_POINT ( 'NONE', #476 ) ;
#611 = FILL_AREA_STYLE_COLOUR ( '', #670 ) ;
#612 = CARTESIAN_POINT ( 'NONE',  ( -0.7500000000000001110, 1.082454334712134036, 3.040018842212357519 ) ) ;
#613 = ORIENTED_EDGE ( 'NONE', *, *, #655, .T. ) ;
#614 =( GEOMETRIC_REPRESENTATION_CONTEXT ( 3 ) GLOBAL_UNCERTAINTY_ASSIGNED_CONTEXT ( ( #85 ) ) GLOBAL_UNIT_ASSIGNED_CONTEXT ( ( #276, #382, #329 ) ) REPRESENTATION_CONTEXT ( 'NONE', 'WORKASPACE' ) );
#615 = EDGE_CURVE ( 'NONE', #348, #55, #108, .T. ) ;
#616 = LINE ( 'NONE', #240, #124 ) ;
#617 = VECTOR ( 'NONE', #126, 39.37007874015748143 ) ;
#618 = CIRCLE ( 'NONE', #425, 0.2500000000000000555 ) ;
#619 = DIRECTION ( 'NONE',  ( 0.000000000000000000, 0.000000000000000000, -1.000000000000000000 ) ) ;
#620 = VERTEX_POINT ( 'NONE', #53 ) ;
#621 = FACE_BOUND ( 'NONE', #297, .T. ) ;
#622 = ORIENTED_EDGE ( 'NONE', *, *, #295, .T. ) ;
#623 = DIRECTION ( 'NONE',  ( -1.000000000000000000, -0.000000000000000000, -0.000000000000000000 ) ) ;
#624 = DIRECTION ( 'NONE',  ( 0.000000000000000000, 5.142302105720965594E-16, 1.000000000000000000 ) ) ;
#625 = ORIENTED_EDGE ( 'NONE', *, *, #70, .F. ) ;
#626 = DIRECTION ( 'NONE',  ( 0.000000000000000000, 1.000000000000000000, 0.000000000000000000 ) ) ;
#627 = CARTESIAN_POINT ( 'NONE',  ( -0.7500000000000001110, 3.250000000000001332, 2.250000000000000000 ) ) ;
#628 = EDGE_CURVE ( 'NONE', #291, #396, #97, .T. ) ;
#629 = VERTEX_POINT ( 'NONE', #368 ) ;
#630 = CARTESIAN_POINT ( 'NONE',  ( -0.7500000000000001110, 3.500000000000000000, 0.1249999999999998612 ) ) ;
#631 = PLANE ( 'NONE',  #381 ) ;
#632 = ORIENTED_EDGE ( 'NONE', *, *, #205, .F. ) ;
#633 = CARTESIAN_POINT ( 'NONE',  ( 0.7500000000000001110, 3.500000000000000000, 0.1249999999999998612 ) ) ;
#634 = DIRECTION ( 'NONE',  ( -0.000000000000000000, 0.6427876096865405842, 0.7660444431189769032 ) ) ;
#635 = ORIENTED_EDGE ( 'NONE', *, *, #285, .T. ) ;
#636 = DIRECTION ( 'NONE',  ( 0.000000000000000000, 1.000000000000000000, 0.000000000000000000 ) ) ;
#637 = DIRECTION ( 'NONE',  ( 0.000000000000000000, 5.463695987328525451E-16, 1.000000000000000000 ) ) ;
#638 = AXIS2_PLACEMENT_3D ( 'NONE', #283, #560, #663 ) ;
#639 = DIRECTION ( 'NONE',  ( 0.000000000000000000, 1.000000000000000000, 0.000000000000000000 ) ) ;
#640 = VECTOR ( 'NONE', #372, 39.37007874015748143 ) ;
#641 = EDGE_CURVE ( 'NONE', #138, #318, #520, .T. ) ;
#642 = LINE ( 'NONE', #208, #587 ) ;
#643 = ORIENTED_EDGE ( 'NONE', *, *, #277, .T. ) ;
#644 = CARTESIAN_POINT ( 'NONE',  ( 0.000000000000000000, 3.250000000000000444, 1.500000000000000222 ) ) ;
#645 = ORIENTED_EDGE ( 'NONE', *, *, #615, .F. ) ;
#646 = CARTESIAN_POINT ( 'NONE',  ( 0.000000000000000000, 3.500000000000000444, 1.500000000000000222 ) ) ;
#647 = ORIENTED_EDGE ( 'NONE', *, *, #579, .F. ) ;
#648 = VECTOR ( 'NONE', #156, 39.37007874015748143 ) ;
#649 = EDGE_CURVE ( 'NONE', #375, #16, #441, .T. ) ;
#650 = CARTESIAN_POINT ( 'NONE',  ( 0.7500000000000001110, -0.1622666661696160750, 1.945549074349177454 ) ) ;
#651 = ORIENTED_EDGE ( 'NONE', *, *, #649, .T. ) ;
#652 = SURFACE_STYLE_USAGE ( .BOTH. , #383 ) ;
#653 = CARTESIAN_POINT ( 'NONE',  ( 0.7500000000000001110, 1.082454334712134036, 3.040018842212357519 ) ) ;
#654 = EDGE_CURVE ( 'NONE', #684, #586, #361, .T. ) ;
#655 = EDGE_CURVE ( 'NONE', #461, #33, #172, .T. ) ;
#656 = DIRECTION ( 'NONE',  ( 1.000000000000000000, 0.000000000000000000, 0.000000000000000000 ) ) ;
#657 = CARTESIAN_POINT ( 'NONE',  ( -0.7500000000000001110, -0.2499999999999999722, 0.1249999999999997363 ) ) ;
#658 = DIRECTION ( 'NONE',  ( 0.000000000000000000, 5.142302105720965594E-16, 1.000000000000000000 ) ) ;
#659 = UNCERTAINTY_MEASURE_WITH_UNIT (LENGTH_MEASURE( 1.000000000000000082E-05 ), #346, 'distance_accuracy_value', 'NONE');
#660 = VERTEX_POINT ( 'NONE', #233 ) ;
#661 = AXIS2_PLACEMENT_3D ( 'NONE', #39, #367, #315 ) ;
#662 = LINE ( 'NONE', #554, #502 ) ;
#663 = DIRECTION ( 'NONE',  ( 0.000000000000000000, 0.000000000000000000, -1.000000000000000000 ) ) ;
#664 = ORIENTED_EDGE ( 'NONE', *, *, #436, .T. ) ;
#665 = FACE_BOUND ( 'NONE', #465, .T. ) ;
#666 = CYLINDRICAL_SURFACE ( 'NONE', #681, 0.1249999999999999584 ) ;
#667 = STYLED_ITEM ( 'NONE', ( #538 ), #129 ) ;
#668 = FACE_OUTER_BOUND ( 'NONE', #513, .T. ) ;
#669 = ORIENTED_EDGE ( 'NONE', *, *, #252, .T. ) ;
#670 = COLOUR_RGB ( '',0.1254901960784313708, 0.7372549019607843590, 0.9411764705882352811 ) ;
#671 = CIRCLE ( 'NONE', #683, 0.1249999999999999029 ) ;
#672 = DIRECTION ( 'NONE',  ( 0.000000000000000000, 5.463695987328525451E-16, 1.000000000000000000 ) ) ;
#673 = EDGE_LOOP ( 'NONE', ( #243, #131, #531, #537 ) ) ;
#674 = DIRECTION ( 'NONE',  ( -1.000000000000000000, -0.000000000000000000, -0.000000000000000000 ) ) ;
#675 = ORIENTED_EDGE ( 'NONE', *, *, #399, .F. ) ;
#676 = PLANE ( 'NONE',  #413 ) ;
#677 = EDGE_CURVE ( 'NONE', #684, #318, #342, .T. ) ;
#678 = LINE ( 'NONE', #249, #458 ) ;
#679 = EDGE_LOOP ( 'NONE', ( #254, #647, #160, #352 ) ) ;
#680 = CARTESIAN_POINT ( 'NONE',  ( 0.7500000000000001110, 3.125000000000000000, 0.1250000000000000278 ) ) ;
#681 = AXIS2_PLACEMENT_3D ( 'NONE', #196, #623, #141 ) ;
#682 = LINE ( 'NONE', #478, #640 ) ;
#683 = AXIS2_PLACEMENT_3D ( 'NONE', #61, #330, #487 ) ;
#684 = VERTEX_POINT ( 'NONE', #65 ) ;
#685 = PLANE ( 'NONE',  #268 ) ;
#686 = ADVANCED_FACE ( 'NONE', ( #165 ), #377, .F. ) ;
#687 = CARTESIAN_POINT ( 'NONE',  ( 0.7500000000000001110, 0.1249999999999999861, 1.704503720716724402 ) ) ;
#688 = ORIENTED_EDGE ( 'NONE', *, *, #535, .T. ) ;
#689 = DIRECTION ( 'NONE',  ( 1.000000000000000000, 0.000000000000000000, 0.000000000000000000 ) ) ;
#690 = CARTESIAN_POINT ( 'NONE',  ( -0.7500000000000001110, 0.1250000000000000000, 0.1250000000000000000 ) ) ;
#691 = ORIENTED_EDGE ( 'NONE', *, *, #466, .F. ) ;
#692 = DIRECTION ( 'NONE',  ( 1.000000000000000000, 0.000000000000000000, -0.000000000000000000 ) ) ;
#693 = ORIENTED_EDGE ( 'NONE', *, *, #399, .T. ) ;
ENDSEC;
END-ISO-10303-21;
