ISO-10303-21;
HEADER;
FILE_DESCRIPTION (( 'STEP AP214' ),
    '1' );
FILE_NAME ('rib3.STEP',
    '2023-04-17T22:10:46',
    ( '' ),
    ( '' ),
    'SwSTEP 2.0',
    'SolidWorks 2021',
    '' );
FILE_SCHEMA (( 'AUTOMOTIVE_DESIGN' ));
ENDSEC;

DATA;
#1 = DIRECTION ( 'NONE',  ( -0.08682659386424775028, 0.9924325091389669673, 0.08682659386424779191 ) ) ;
#2 = CARTESIAN_POINT ( 'NONE',  ( -38.29863524074320935, 9.128442572523416843, 28.33668825982577388 ) ) ;
#3 = CYLINDRICAL_SURFACE ( 'NONE', #427, 10.00000000000000000 ) ;
#4 = EDGE_CURVE ( 'NONE', #205, #489, #725, .T. ) ;
#5 = CARTESIAN_POINT ( 'NONE',  ( 37.49999999999997158, 100.0000000000000142, -46.24886635259241530 ) ) ;
#6 = AXIS2_PLACEMENT_3D ( 'NONE', #217, #504, #587 ) ;
#7 = DIRECTION ( 'NONE',  ( -1.000000000000000000, 0.000000000000000000, 0.000000000000000000 ) ) ;
#8 = CARTESIAN_POINT ( 'NONE',  ( 28.33668825982573836, 5.000000000000000000, -37.49999999999999289 ) ) ;
#9 = CARTESIAN_POINT ( 'NONE',  ( 28.33668825982576323, 10.00000000000000000, 28.33668825982576323 ) ) ;
#10 = CARTESIAN_POINT ( 'NONE',  ( 37.57510169773608766, 0.8584163331496680316, 27.61315471681862732 ) ) ;
#11 = CARTESIAN_POINT ( 'NONE',  ( -41.22976716487566051, 100.0000000000000142, 39.17115184300224229 ) ) ;
#12 = CARTESIAN_POINT ( 'NONE',  ( -36.28691937167496206, 100.0000000000000142, -46.24886635259241530 ) ) ;
#13 = EDGE_CURVE ( 'NONE', #390, #842, #71, .T. ) ;
#14 = DIRECTION ( 'NONE',  ( -0.08682659386424783354, -0.9924325091389669673, -0.08682659386424779191 ) ) ;
#15 = ORIENTED_EDGE ( 'NONE', *, *, #210, .T. ) ;
#16 = DIRECTION ( 'NONE',  ( 1.000000000000000000, 0.000000000000000000, 0.000000000000000000 ) ) ;
#17 =( LENGTH_UNIT ( ) NAMED_UNIT ( * ) SI_UNIT ( .MILLI., .METRE. ) );
#18 = EDGE_CURVE ( 'NONE', #89, #43, #863, .T. ) ;
#19 = AXIS2_PLACEMENT_3D ( 'NONE', #723, #69, #548 ) ;
#20 = PLANE ( 'NONE',  #338 ) ;
#21 = AXIS2_PLACEMENT_3D ( 'NONE', #138, #739, #437 ) ;
#22 = EDGE_LOOP ( 'NONE', ( #922, #820, #563, #244 ) ) ;
#23 = DIRECTION ( 'NONE',  ( 0.000000000000000000, 0.9961946980917455452, -0.08715574274765836016 ) ) ;
#24 = DIRECTION ( 'NONE',  ( 0.000000000000000000, 1.000000000000000000, 0.000000000000000000 ) ) ;
#25 = CARTESIAN_POINT ( 'NONE',  ( 41.22976716487564630, 100.0000000000000284, -39.17115184300223518 ) ) ;
#26 = ORIENTED_EDGE ( 'NONE', *, *, #526, .F. ) ;
#27 = DIRECTION ( 'NONE',  ( -0.08682659386424783354, -0.9924325091389670783, -0.08682659386424779191 ) ) ;
#28 = LINE ( 'NONE', #398, #216 ) ;
#29 = PRODUCT_DEFINITION_SHAPE ( 'NONE', 'NONE',  #906 ) ;
#30 = CARTESIAN_POINT ( 'NONE',  ( -38.29863524074323067, 9.128442572523418619, -37.49999999999999289 ) ) ;
#31 = CARTESIAN_POINT ( 'NONE',  ( 38.29863524074323067, 9.128442572523418619, 37.50000000000000000 ) ) ;
#32 = CARTESIAN_POINT ( 'NONE',  ( -27.61315471681860956, 1.294195046887958833, 32.59412820727735749 ) ) ;
#33 = AXIS2_PLACEMENT_3D ( 'NONE', #727, #817, #447 ) ;
#34 = VECTOR ( 'NONE', #7, 1000.000000000000000 ) ;
#35 = APPLICATION_CONTEXT ( 'automotive_design' ) ;
#36 = AXIS2_PLACEMENT_3D ( 'NONE', #622, #698, #116 ) ;
#37 = CARTESIAN_POINT ( 'NONE',  ( -28.33668825982577033, 10.00000000000000000, -28.33668825982575612 ) ) ;
#38 = VERTEX_POINT ( 'NONE', #55 ) ;
#39 = ORIENTED_EDGE ( 'NONE', *, *, #109, .T. ) ;
#40 = CARTESIAN_POINT ( 'NONE',  ( 41.22976716487565341, 100.0000000000000142, -36.24879367441694455 ) ) ;
#41 = EDGE_CURVE ( 'NONE', #43, #766, #575, .T. ) ;
#42 = ORIENTED_EDGE ( 'NONE', *, *, #197, .F. ) ;
#43 = VERTEX_POINT ( 'NONE', #640 ) ;
#44 = FACE_OUTER_BOUND ( 'NONE', #340, .T. ) ;
#45 = PLANE ( 'NONE',  #367 ) ;
#46 = ORIENTED_EDGE ( 'NONE', *, *, #520, .T. ) ;
#47 = VECTOR ( 'NONE', #835, 1000.000000000000000 ) ;
#48 = EDGE_LOOP ( 'NONE', ( #159, #600, #737, #288 ) ) ;
#49 = FACE_OUTER_BOUND ( 'NONE', #831, .T. ) ;
#50 = SHAPE_DEFINITION_REPRESENTATION ( #29, #806 ) ;
#51 = CARTESIAN_POINT ( 'NONE',  ( -38.29863524074323067, 9.128442572523416843, -28.33668825982575257 ) ) ;
#52 = ORIENTED_EDGE ( 'NONE', *, *, #855, .T. ) ;
#53 = ORIENTED_EDGE ( 'NONE', *, *, #252, .F. ) ;
#54 = CARTESIAN_POINT ( 'NONE',  ( -36.24879367441695166, 100.0000000000000142, -41.22976716487566762 ) ) ;
#55 = CARTESIAN_POINT ( 'NONE',  ( -46.24886635259242951, 100.0000000000000142, -36.28691937167495496 ) ) ;
#56 = VERTEX_POINT ( 'NONE', #128 ) ;
#57 = ADVANCED_FACE ( 'NONE', ( #787 ), #943, .F. ) ;
#58 = DIRECTION ( 'NONE',  ( -1.000000000000000000, -0.000000000000000000, 0.000000000000000000 ) ) ;
#59 =( BOUNDED_CURVE ( )  B_SPLINE_CURVE ( 3, ( #54, #422, #871, #946 ),
 .UNSPECIFIED., .F., .F. ) 
 B_SPLINE_CURVE_WITH_KNOTS ( ( 4, 4 ),
 ( 2.359992588465624763, 3.923192718713959692 ),
 .UNSPECIFIED. ) 
 CURVE ( )  GEOMETRIC_REPRESENTATION_ITEM ( )  RATIONAL_B_SPLINE_CURVE ( ( 1.000000000000000000, 0.8065248903853478035, 0.8065248903853478035, 1.000000000000000000 ) ) 
 REPRESENTATION_ITEM ( '' )  );
#60 = CARTESIAN_POINT ( 'NONE',  ( 46.24886635259242951, 100.0000000000000142, 36.28691937167496206 ) ) ;
#61 = VERTEX_POINT ( 'NONE', #204 ) ;
#62 = VECTOR ( 'NONE', #609, 1000.000000000000000 ) ;
#63 =( GEOMETRIC_REPRESENTATION_CONTEXT ( 3 ) GLOBAL_UNCERTAINTY_ASSIGNED_CONTEXT ( ( #682 ) ) GLOBAL_UNIT_ASSIGNED_CONTEXT ( ( #578, #147, #218 ) ) REPRESENTATION_CONTEXT ( 'NONE', 'WORKASPACE' ) );
#64 = CARTESIAN_POINT ( 'NONE',  ( 28.33668825982573836, 10.00000000000000000, -28.33668825982575612 ) ) ;
#65 = DIRECTION ( 'NONE',  ( 1.000000000000000000, -0.000000000000000000, -0.000000000000000000 ) ) ;
#66 = VERTEX_POINT ( 'NONE', #566 ) ;
#67 =( BOUNDED_CURVE ( )  B_SPLINE_CURVE ( 3, ( #681, #686, #251, #544 ),
 .UNSPECIFIED., .F., .F. ) 
 B_SPLINE_CURVE_WITH_KNOTS ( ( 4, 4 ),
 ( 2.359992588465624763, 3.923192718713959692 ),
 .UNSPECIFIED. ) 
 CURVE ( )  GEOMETRIC_REPRESENTATION_ITEM ( )  RATIONAL_B_SPLINE_CURVE ( ( 1.000000000000000000, 0.8065248903853478035, 0.8065248903853478035, 1.000000000000000000 ) ) 
 REPRESENTATION_ITEM ( '' )  );
#68 = VERTEX_POINT ( 'NONE', #951 ) ;
#69 = DIRECTION ( 'NONE',  ( -1.000000000000000000, -0.000000000000000000, -0.000000000000000000 ) ) ;
#70 = DIRECTION ( 'NONE',  ( 1.000000000000000000, 0.000000000000000000, 0.000000000000000000 ) ) ;
#71 = LINE ( 'NONE', #705, #796 ) ;
#72 = EDGE_CURVE ( 'NONE', #89, #56, #246, .T. ) ;
#73 = CARTESIAN_POINT ( 'NONE',  ( -36.24879367441695166, 100.0000000000000142, -41.22976716487566762 ) ) ;
#74 = DIRECTION ( 'NONE',  ( 1.000000000000000000, 0.000000000000000000, 0.000000000000000000 ) ) ;
#75 = DIRECTION ( 'NONE',  ( -1.000000000000000000, 0.000000000000000000, 6.938893903907227392E-16 ) ) ;
#76 = CARTESIAN_POINT ( 'NONE',  ( 46.24886635259242951, 100.0000000000000284, 42.13163570884554332 ) ) ;
#77 = LINE ( 'NONE', #499, #720 ) ;
#78 = VECTOR ( 'NONE', #614, 1000.000000000000114 ) ;
#79 = AXIS2_PLACEMENT_3D ( 'NONE', #236, #685, #23 ) ;
#80 = CARTESIAN_POINT ( 'NONE',  ( -37.49999999999997868, 100.0000000000000142, 46.24886635259242240 ) ) ;
#81 = DIRECTION ( 'NONE',  ( 1.000000000000000000, -3.469446951953614682E-16, 3.035372770005130777E-17 ) ) ;
#82 = ADVANCED_FACE ( 'NONE', ( #194 ), #484, .F. ) ;
#83 = DIRECTION ( 'NONE',  ( 0.000000000000000000, -0.08715574274765836016, 0.9961946980917455452 ) ) ;
#84 = CARTESIAN_POINT ( 'NONE',  ( -28.33668825982574546, 9.128442572523416843, 38.29863524074322356 ) ) ;
#85 = ORIENTED_EDGE ( 'NONE', *, *, #408, .T. ) ;
#86 = DIRECTION ( 'NONE',  ( 0.000000000000000000, 1.000000000000000000, 0.000000000000000000 ) ) ;
#87 = EDGE_CURVE ( 'NONE', #43, #56, #199, .T. ) ;
#88 = CARTESIAN_POINT ( 'NONE',  ( 27.04774041166359311, -5.604298747501743172, 37.00968739258105700 ) ) ;
#89 = VERTEX_POINT ( 'NONE', #858 ) ;
#90 = CARTESIAN_POINT ( 'NONE',  ( 28.33668825982576678, 10.00000000000000000, 28.33668825982576323 ) ) ;
#91 = APPLICATION_PROTOCOL_DEFINITION ( 'draft international standard', 'automotive_design', 1998, #35 ) ;
#92 = AXIS2_PLACEMENT_3D ( 'NONE', #373, #749, #75 ) ;
#93 = CARTESIAN_POINT ( 'NONE',  ( -27.61315471681863443, 1.729973760626251744, -27.61315471681862377 ) ) ;
#94 = ADVANCED_FACE ( 'NONE', ( #501 ), #126, .F. ) ;
#95 = ORIENTED_EDGE ( 'NONE', *, *, #444, .T. ) ;
#96 = LINE ( 'NONE', #31, #933 ) ;
#97 = PLANE ( 'NONE',  #671 ) ;
#98 = CARTESIAN_POINT ( 'NONE',  ( -41.22976716487568893, 100.0000000000000142, -36.24879367441694455 ) ) ;
#99 = PLANE ( 'NONE',  #323 ) ;
#100 = FILL_AREA_STYLE_COLOUR ( '', #631 ) ;
#101 = LINE ( 'NONE', #394, #47 ) ;
#102 = ORIENTED_EDGE ( 'NONE', *, *, #4, .T. ) ;
#103 = CARTESIAN_POINT ( 'NONE',  ( 33.31766175028449339, 9.564221286261709309, 28.33668825982575967 ) ) ;
#104 = SURFACE_STYLE_USAGE ( .BOTH. , #161 ) ;
#105 = AXIS2_PLACEMENT_3D ( 'NONE', #888, #157, #665 ) ;
#106 = VERTEX_POINT ( 'NONE', #60 ) ;
#107 = EDGE_LOOP ( 'NONE', ( #845, #633, #868 ) ) ;
#108 = DIRECTION ( 'NONE',  ( 0.9961946980917455452, 0.08715574274765836016, 0.000000000000000000 ) ) ;
#109 = EDGE_CURVE ( 'NONE', #177, #120, #872, .T. ) ;
#110 = ORIENTED_EDGE ( 'NONE', *, *, #897, .F. ) ;
#111 = EDGE_LOOP ( 'NONE', ( #417, #852, #709, #53 ) ) ;
#112 = LINE ( 'NONE', #188, #613 ) ;
#113 = CARTESIAN_POINT ( 'NONE',  ( -32.59412820727736460, 1.294195046887959721, -27.61315471681862377 ) ) ;
#114 = ORIENTED_EDGE ( 'NONE', *, *, #365, .F. ) ;
#115 = ORIENTED_EDGE ( 'NONE', *, *, #541, .T. ) ;
#116 = DIRECTION ( 'NONE',  ( 0.9961946980917455452, -0.08715574274765841567, 0.000000000000000000 ) ) ;
#117 = DIRECTION ( 'NONE',  ( -1.000000000000000000, 0.000000000000000000, 0.000000000000000000 ) ) ;
#118 = CARTESIAN_POINT ( 'NONE',  ( 46.24886635259239398, 100.0000000000000142, -36.28691937167495496 ) ) ;
#119 = AXIS2_PLACEMENT_3D ( 'NONE', #318, #459, #324 ) ;
#120 = VERTEX_POINT ( 'NONE', #118 ) ;
#121 = CARTESIAN_POINT ( 'NONE',  ( 36.24879367441695166, 100.0000000000000142, 41.22976716487567472 ) ) ;
#122 = VERTEX_POINT ( 'NONE', #635 ) ;
#123 = EDGE_CURVE ( 'NONE', #420, #386, #182, .T. ) ;
#124 = ORIENTED_EDGE ( 'NONE', *, *, #409, .T. ) ;
#125 = CARTESIAN_POINT ( 'NONE',  ( -28.33668825982576323, 9.128442572523416843, -38.29863524074321646 ) ) ;
#126 = PLANE ( 'NONE',  #944 ) ;
#127 = FACE_OUTER_BOUND ( 'NONE', #620, .T. ) ;
#128 = CARTESIAN_POINT ( 'NONE',  ( 28.33668825982573836, 5.000000000000000000, -28.33668825982575612 ) ) ;
#129 = ORIENTED_EDGE ( 'NONE', *, *, #596, .F. ) ;
#130 = AXIS2_PLACEMENT_3D ( 'NONE', #483, #425, #641 ) ;
#131 = VECTOR ( 'NONE', #718, 1000.000000000000114 ) ;
#132 = CARTESIAN_POINT ( 'NONE',  ( -46.24886635259242951, 100.0000000000000142, -37.49999999999999289 ) ) ;
#133 = ADVANCED_FACE ( 'NONE', ( #234 ), #291, .T. ) ;
#134 = SPHERICAL_SURFACE ( 'NONE', #813, 10.00000000000000000 ) ;
#135 = ADVANCED_FACE ( 'NONE', ( #438 ), #819, .F. ) ;
#136 = DIRECTION ( 'NONE',  ( -0.9961946980917455452, -0.08715574274765836016, 3.686660969436542647E-16 ) ) ;
#137 = CARTESIAN_POINT ( 'NONE',  ( 33.31766175028450050, 9.564221286261709309, 37.50000000000000000 ) ) ;
#138 = CARTESIAN_POINT ( 'NONE',  ( 28.33668825982576678, 10.00000000000000000, 28.33668825982576323 ) ) ;
#139 = CARTESIAN_POINT ( 'NONE',  ( 28.33668825982576678, 0.000000000000000000, 28.33668825982576323 ) ) ;
#140 = VERTEX_POINT ( 'NONE', #530 ) ;
#141 = CARTESIAN_POINT ( 'NONE',  ( 37.49999999999997158, 9.564221286261709309, -33.31766175028448629 ) ) ;
#142 = CARTESIAN_POINT ( 'NONE',  ( 41.22976716487568893, 100.0000000000000142, 37.49999999999999289 ) ) ;
#143 = FACE_OUTER_BOUND ( 'NONE', #198, .T. ) ;
#144 = ADVANCED_FACE ( 'NONE', ( #584 ), #661, .T. ) ;
#145 = CARTESIAN_POINT ( 'NONE',  ( -42.13163570884553621, 100.0000000000000142, -46.24886635259242240 ) ) ;
#146 = AXIS2_PLACEMENT_3D ( 'NONE', #511, #742, #354 ) ;
#147 =( NAMED_UNIT ( * ) PLANE_ANGLE_UNIT ( ) SI_UNIT ( $, .RADIAN. ) );
#148 = CIRCLE ( 'NONE', #368, 10.00000000000000000 ) ;
#149 = MECHANICAL_DESIGN_GEOMETRIC_PRESENTATION_REPRESENTATION (  '', ( #704 ), #63 ) ;
#150 = PRESENTATION_LAYER_ASSIGNMENT (  '', '', ( #233 ) ) ;
#151 = CARTESIAN_POINT ( 'NONE',  ( -33.31766175028450050, 9.564221286261709309, -28.33668825982575257 ) ) ;
#152 = EDGE_CURVE ( 'NONE', #332, #163, #763, .T. ) ;
#153 =( BOUNDED_CURVE ( )  B_SPLINE_CURVE ( 3, ( #659, #11, #211, #225 ),
 .UNSPECIFIED., .F., .F. ) 
 B_SPLINE_CURVE_WITH_KNOTS ( ( 4, 4 ),
 ( 2.359992588465626095, 3.923192718713961025 ),
 .UNSPECIFIED. ) 
 CURVE ( )  GEOMETRIC_REPRESENTATION_ITEM ( )  RATIONAL_B_SPLINE_CURVE ( ( 1.000000000000000000, 0.8065248903853478035, 0.8065248903853478035, 1.000000000000000000 ) ) 
 REPRESENTATION_ITEM ( '' )  );
#154 = ORIENTED_EDGE ( 'NONE', *, *, #186, .T. ) ;
#155 = ORIENTED_EDGE ( 'NONE', *, *, #186, .F. ) ;
#156 = CARTESIAN_POINT ( 'NONE',  ( -28.33668825982576323, 10.00000000000000000, -28.33668825982575612 ) ) ;
#157 = DIRECTION ( 'NONE',  ( -4.089774229676364607E-16, -6.938893903907228378E-16, -1.000000000000000000 ) ) ;
#158 = VERTEX_POINT ( 'NONE', #84 ) ;
#159 = ORIENTED_EDGE ( 'NONE', *, *, #297, .T. ) ;
#160 = DIRECTION ( 'NONE',  ( 0.000000000000000000, -0.000000000000000000, 1.000000000000000000 ) ) ;
#161 = SURFACE_SIDE_STYLE ('',( #761 ) ) ;
#162 = CARTESIAN_POINT ( 'NONE',  ( 37.49999999999997158, 0.000000000000000000, 28.33668825982575612 ) ) ;
#163 = VERTEX_POINT ( 'NONE', #139 ) ;
#164 = CYLINDRICAL_SURFACE ( 'NONE', #644, 4.999999999999997335 ) ;
#165 = CARTESIAN_POINT ( 'NONE',  ( -28.33668825982574546, 10.00000000000000000, 28.33668825982576323 ) ) ;
#166 = EDGE_CURVE ( 'NONE', #759, #861, #525, .T. ) ;
#167 = AXIS2_PLACEMENT_3D ( 'NONE', #64, #623, #336 ) ;
#168 = ADVANCED_FACE ( 'NONE', ( #728 ), #20, .T. ) ;
#169 = PLANE ( 'NONE',  #119 ) ;
#170 = AXIS2_PLACEMENT_3D ( 'NONE', #528, #86, #16 ) ;
#171 = PRODUCT_DEFINITION_FORMATION_WITH_SPECIFIED_SOURCE ( 'ANY', '', #259, .NOT_KNOWN. ) ;
#172 = EDGE_LOOP ( 'NONE', ( #931, #822, #191, #870 ) ) ;
#173 = CARTESIAN_POINT ( 'NONE',  ( 46.24886635259239398, 100.0000000000000284, -42.13163570884552200 ) ) ;
#174 = CARTESIAN_POINT ( 'NONE',  ( 27.61315471681860600, 0.8584163331496665883, -37.57510169773608055 ) ) ;
#175 = ORIENTED_EDGE ( 'NONE', *, *, #855, .F. ) ;
#176 = FACE_OUTER_BOUND ( 'NONE', #632, .T. ) ;
#177 = VERTEX_POINT ( 'NONE', #385 ) ;
#178 = EDGE_CURVE ( 'NONE', #697, #489, #264, .T. ) ;
#179 = EDGE_CURVE ( 'NONE', #106, #332, #228, .T. ) ;
#180 = ORIENTED_EDGE ( 'NONE', *, *, #917, .F. ) ;
#181 = FACE_OUTER_BOUND ( 'NONE', #825, .T. ) ;
#182 = CIRCLE ( 'NONE', #717, 9.999999999999998224 ) ;
#183 = CIRCLE ( 'NONE', #781, 10.00000000000000000 ) ;
#184 = VECTOR ( 'NONE', #309, 1000.000000000000000 ) ;
#185 = ORIENTED_EDGE ( 'NONE', *, *, #87, .T. ) ;
#186 = EDGE_CURVE ( 'NONE', #177, #935, #798, .T. ) ;
#187 = ORIENTED_EDGE ( 'NONE', *, *, #210, .F. ) ;
#188 = CARTESIAN_POINT ( 'NONE',  ( 28.33668825982573480, 0.000000000000000000, -37.49999999999998579 ) ) ;
#189 =( BOUNDED_CURVE ( )  B_SPLINE_CURVE ( 3, ( #253, #25, #909, #248 ),
 .UNSPECIFIED., .F., .F. ) 
 B_SPLINE_CURVE_WITH_KNOTS ( ( 4, 4 ),
 ( 2.359992588465626095, 3.923192718713959692 ),
 .UNSPECIFIED. ) 
 CURVE ( )  GEOMETRIC_REPRESENTATION_ITEM ( )  RATIONAL_B_SPLINE_CURVE ( ( 1.000000000000000000, 0.8065248903853481366, 0.8065248903853481366, 1.000000000000000000 ) ) 
 REPRESENTATION_ITEM ( '' )  );
#190 = EDGE_LOOP ( 'NONE', ( #479, #175, #315, #785 ) ) ;
#191 = ORIENTED_EDGE ( 'NONE', *, *, #930, .T. ) ;
#192 = DIRECTION ( 'NONE',  ( -3.700743415417189125E-16, 0.000000000000000000, -1.000000000000000000 ) ) ;
#193 = DIRECTION ( 'NONE',  ( 0.08682659386424776415, -0.9924325091389669673, -0.08682659386424779191 ) ) ;
#194 = FACE_OUTER_BOUND ( 'NONE', #172, .T. ) ;
#195 = ORIENTED_EDGE ( 'NONE', *, *, #840, .T. ) ;
#196 = FACE_OUTER_BOUND ( 'NONE', #936, .T. ) ;
#197 = EDGE_CURVE ( 'NONE', #201, #861, #901, .T. ) ;
#198 = EDGE_LOOP ( 'NONE', ( #206, #346, #129, #187 ) ) ;
#199 = CIRCLE ( 'NONE', #337, 5.000000000000000888 ) ;
#200 = VECTOR ( 'NONE', #1, 1000.000000000000114 ) ;
#201 = VERTEX_POINT ( 'NONE', #449 ) ;
#202 = AXIS2_PLACEMENT_3D ( 'NONE', #827, #27, #319 ) ;
#203 = LINE ( 'NONE', #786, #670 ) ;
#204 = CARTESIAN_POINT ( 'NONE',  ( -28.33668825982576323, 9.564221286261707533, -33.31766175028448629 ) ) ;
#205 = VERTEX_POINT ( 'NONE', #151 ) ;
#206 = ORIENTED_EDGE ( 'NONE', *, *, #471, .F. ) ;
#207 = CARTESIAN_POINT ( 'NONE',  ( 37.49999999999997158, 5.000000000000000000, 28.33668825982575612 ) ) ;
#208 = CARTESIAN_POINT ( 'NONE',  ( 37.00968739258103568, -5.604298747501740507, -27.04774041166360021 ) ) ;
#209 = EDGE_LOOP ( 'NONE', ( #815, #707, #374 ) ) ;
#210 = EDGE_CURVE ( 'NONE', #38, #386, #364, .T. ) ;
#211 = CARTESIAN_POINT ( 'NONE',  ( -39.17115184300222097, 100.0000000000000142, 41.22976716487568183 ) ) ;
#212 = CARTESIAN_POINT ( 'NONE',  ( -28.33668825982574546, 10.00000000000000000, 28.33668825982576323 ) ) ;
#213 = ORIENTED_EDGE ( 'NONE', *, *, #321, .F. ) ;
#214 = VECTOR ( 'NONE', #792, 1000.000000000000000 ) ;
#215 = VECTOR ( 'NONE', #193, 1000.000000000000114 ) ;
#216 = VECTOR ( 'NONE', #612, 1000.000000000000000 ) ;
#217 = CARTESIAN_POINT ( 'NONE',  ( -28.33668825982574546, 10.00000000000000000, 28.33668825982576323 ) ) ;
#218 =( NAMED_UNIT ( * ) SI_UNIT ( $, .STERADIAN. ) SOLID_ANGLE_UNIT ( ) );
#219 = DIRECTION ( 'NONE',  ( 0.08682659386424781967, -0.9924325091389670783, 0.08682659386424779191 ) ) ;
#220 = ORIENTED_EDGE ( 'NONE', *, *, #507, .F. ) ;
#221 = CARTESIAN_POINT ( 'NONE',  ( -42.13163570884550779, 100.0000000000000142, 46.24886635259241530 ) ) ;
#222 = LINE ( 'NONE', #290, #598 ) ;
#223 = EDGE_CURVE ( 'NONE', #941, #615, #744, .T. ) ;
#224 = DIRECTION ( 'NONE',  ( 1.000000000000000000, -0.000000000000000000, -0.000000000000000000 ) ) ;
#225 = CARTESIAN_POINT ( 'NONE',  ( -36.24879367441692324, 100.0000000000000142, 41.22976716487567472 ) ) ;
#226 = LINE ( 'NONE', #442, #912 ) ;
#227 = ADVANCED_FACE ( 'NONE', ( #143 ), #238, .T. ) ;
#228 = LINE ( 'NONE', #10, #864 ) ;
#229 = ORIENTED_EDGE ( 'NONE', *, *, #729, .T. ) ;
#230 = AXIS2_PLACEMENT_3D ( 'NONE', #708, #555, #574 ) ;
#231 = FACE_OUTER_BOUND ( 'NONE', #111, .T. ) ;
#232 = CIRCLE ( 'NONE', #690, 5.000000000000000888 ) ;
#233 = STYLED_ITEM ( 'NONE', ( #326 ), #806 ) ;
#234 = FACE_OUTER_BOUND ( 'NONE', #557, .T. ) ;
#235 = ORIENTED_EDGE ( 'NONE', *, *, #4, .F. ) ;
#236 = CARTESIAN_POINT ( 'NONE',  ( 37.49999999999997158, 0.000000000000000000, -37.49999999999999289 ) ) ;
#237 = CARTESIAN_POINT ( 'NONE',  ( -28.33668825982574901, 10.00000000000000000, 28.33668825982577033 ) ) ;
#238 = CYLINDRICAL_SURFACE ( 'NONE', #538, 10.00000000000000178 ) ;
#239 = ORIENTED_EDGE ( 'NONE', *, *, #645, .F. ) ;
#240 = DIRECTION ( 'NONE',  ( 1.000000000000000000, 0.000000000000000000, -6.938893903907227392E-16 ) ) ;
#241 = EDGE_CURVE ( 'NONE', #489, #122, #443, .T. ) ;
#242 = CARTESIAN_POINT ( 'NONE',  ( -28.33668825982574546, 0.000000000000000000, 28.33668825982576323 ) ) ;
#243 = LINE ( 'NONE', #30, #519 ) ;
#244 = ORIENTED_EDGE ( 'NONE', *, *, #41, .T. ) ;
#245 = DIRECTION ( 'NONE',  ( 3.700743415417189125E-16, -0.000000000000000000, 1.000000000000000000 ) ) ;
#246 = CIRCLE ( 'NONE', #846, 4.999999999999997335 ) ;
#247 = CIRCLE ( 'NONE', #130, 4.999999999999997335 ) ;
#248 = CARTESIAN_POINT ( 'NONE',  ( 36.24879367441692324, 100.0000000000000142, -41.22976716487566762 ) ) ;
#249 = CIRCLE ( 'NONE', #783, 5.000000000000000888 ) ;
#250 = CARTESIAN_POINT ( 'NONE',  ( -28.33668825982576678, 10.00000000000000000, -28.33668825982575612 ) ) ;
#251 = CARTESIAN_POINT ( 'NONE',  ( 41.22976716487568183, 100.0000000000000142, 39.17115184300224229 ) ) ;
#252 = EDGE_CURVE ( 'NONE', #163, #919, #495, .T. ) ;
#253 = CARTESIAN_POINT ( 'NONE',  ( 41.22976716487565341, 100.0000000000000142, -36.24879367441694455 ) ) ;
#254 = ADVANCED_FACE ( 'NONE', ( #299 ), #3, .T. ) ;
#255 = ORIENTED_EDGE ( 'NONE', *, *, #526, .T. ) ;
#256 = ORIENTED_EDGE ( 'NONE', *, *, #533, .F. ) ;
#257 = CARTESIAN_POINT ( 'NONE',  ( 37.49999999999997158, 5.000000000000000000, -28.33668825982575612 ) ) ;
#258 = CYLINDRICAL_SURFACE ( 'NONE', #866, 10.00000000000000178 ) ;
#259 = PRODUCT ( 'rib3', 'rib3', '', ( #778 ) ) ;
#260 = ADVANCED_FACE ( 'NONE', ( #756 ), #169, .T. ) ;
#261 = ORIENTED_EDGE ( 'NONE', *, *, #719, .F. ) ;
#262 = VERTEX_POINT ( 'NONE', #98 ) ;
#263 = SURFACE_SIDE_STYLE ('',( #924 ) ) ;
#264 = CIRCLE ( 'NONE', #92, 5.000000000000000888 ) ;
#265 = AXIS2_PLACEMENT_3D ( 'NONE', #360, #306, #595 ) ;
#266 = ORIENTED_EDGE ( 'NONE', *, *, #541, .F. ) ;
#267 = ORIENTED_EDGE ( 'NONE', *, *, #917, .T. ) ;
#268 = DIRECTION ( 'NONE',  ( 1.000000000000000000, 0.000000000000000000, 0.000000000000000000 ) ) ;
#269 = DIRECTION ( 'NONE',  ( 1.000000000000000000, 0.000000000000000000, 0.000000000000000000 ) ) ;
#270 = DIRECTION ( 'NONE',  ( 1.000000000000000000, 0.000000000000000000, 0.000000000000000000 ) ) ;
#271 = DIRECTION ( 'NONE',  ( 1.000000000000000000, 0.000000000000000000, 0.000000000000000000 ) ) ;
#272 = ORIENTED_EDGE ( 'NONE', *, *, #873, .F. ) ;
#273 = LINE ( 'NONE', #711, #765 ) ;
#274 = DIRECTION ( 'NONE',  ( 0.000000000000000000, 0.000000000000000000, -1.000000000000000000 ) ) ;
#275 = ORIENTED_EDGE ( 'NONE', *, *, #927, .F. ) ;
#276 = DIRECTION ( 'NONE',  ( 1.000000000000000000, 0.000000000000000000, 0.000000000000000000 ) ) ;
#277 = DIRECTION ( 'NONE',  ( 0.9961946980917455452, -0.08715574274765836016, -4.608326211795677939E-16 ) ) ;
#278 = AXIS2_PLACEMENT_3D ( 'NONE', #387, #320, #160 ) ;
#279 = AXIS2_PLACEMENT_3D ( 'NONE', #833, #921, #601 ) ;
#280 = ORIENTED_EDGE ( 'NONE', *, *, #927, .T. ) ;
#281 = FACE_OUTER_BOUND ( 'NONE', #552, .T. ) ;
#282 = ADVANCED_FACE ( 'NONE', ( #687 ), #676, .F. ) ;
#283 = CARTESIAN_POINT ( 'NONE',  ( 28.33668825982573836, 10.00000000000000000, -28.33668825982575967 ) ) ;
#284 = EDGE_CURVE ( 'NONE', #455, #358, #758, .T. ) ;
#285 = DIRECTION ( 'NONE',  ( -4.590790139268072341E-16, 4.016420938125550894E-17, -1.000000000000000000 ) ) ;
#286 = DIRECTION ( 'NONE',  ( -1.000000000000000000, 0.000000000000000000, 0.000000000000000000 ) ) ;
#287 = DIRECTION ( 'NONE',  ( -1.000000000000000000, 0.000000000000000000, 0.000000000000000000 ) ) ;
#288 = ORIENTED_EDGE ( 'NONE', *, *, #869, .F. ) ;
#289 = DIRECTION ( 'NONE',  ( 0.000000000000000000, 1.000000000000000000, 0.000000000000000000 ) ) ;
#290 = CARTESIAN_POINT ( 'NONE',  ( -37.49999999999997868, 100.0000000000000142, 41.22976716487568183 ) ) ;
#291 = PLANE ( 'NONE',  #500 ) ;
#292 = AXIS2_PLACEMENT_3D ( 'NONE', #357, #646, #572 ) ;
#293 = ORIENTED_EDGE ( 'NONE', *, *, #569, .T. ) ;
#294 = VECTOR ( 'NONE', #497, 1000.000000000000114 ) ;
#295 =( BOUNDED_CURVE ( )  B_SPLINE_CURVE ( 3, ( #738, #654, #76, #305 ),
 .UNSPECIFIED., .F., .F. ) 
 B_SPLINE_CURVE_WITH_KNOTS ( ( 4, 4 ),
 ( 2.359992588465626095, 3.923192718713959692 ),
 .UNSPECIFIED. ) 
 CURVE ( )  GEOMETRIC_REPRESENTATION_ITEM ( )  RATIONAL_B_SPLINE_CURVE ( ( 1.000000000000000000, 0.8065248903853481366, 0.8065248903853481366, 1.000000000000000000 ) ) 
 REPRESENTATION_ITEM ( '' )  );
#296 = CARTESIAN_POINT ( 'NONE',  ( -46.24886635259242951, 100.0000000000000142, -42.13163570884552911 ) ) ;
#297 = EDGE_CURVE ( 'NONE', #509, #558, #918, .T. ) ;
#298 = CYLINDRICAL_SURFACE ( 'NONE', #895, 10.00000000000000178 ) ;
#299 = FACE_OUTER_BOUND ( 'NONE', #549, .T. ) ;
#300 = ORIENTED_EDGE ( 'NONE', *, *, #713, .F. ) ;
#301 = LINE ( 'NONE', #5, #352 ) ;
#302 = EDGE_CURVE ( 'NONE', #919, #420, #101, .T. ) ;
#303 = CYLINDRICAL_SURFACE ( 'NONE', #630, 4.999999999999997335 ) ;
#304 = DIRECTION ( 'NONE',  ( -0.08682659386424781967, -0.9924325091389669673, -0.08682659386424779191 ) ) ;
#305 = CARTESIAN_POINT ( 'NONE',  ( 46.24886635259242951, 100.0000000000000142, 36.28691937167496206 ) ) ;
#306 = DIRECTION ( 'NONE',  ( -0.08682659386424775028, -0.9924325091389670783, 0.08682659386424779191 ) ) ;
#307 = DIRECTION ( 'NONE',  ( 0.9961946980917455452, 0.08715574274765841567, 0.000000000000000000 ) ) ;
#308 = ORIENTED_EDGE ( 'NONE', *, *, #297, .F. ) ;
#309 = DIRECTION ( 'NONE',  ( 1.000000000000000000, 0.000000000000000000, -0.000000000000000000 ) ) ;
#310 = CIRCLE ( 'NONE', #19, 10.00000000000000178 ) ;
#311 = CIRCLE ( 'NONE', #473, 5.000000000000000888 ) ;
#312 = DIRECTION ( 'NONE',  ( 0.08715574274765836016, -0.9961946980917455452, 0.000000000000000000 ) ) ;
#313 = EDGE_CURVE ( 'NONE', #386, #826, #243, .T. ) ;
#314 = ORIENTED_EDGE ( 'NONE', *, *, #356, .T. ) ;
#315 = ORIENTED_EDGE ( 'NONE', *, *, #498, .T. ) ;
#316 = CARTESIAN_POINT ( 'NONE',  ( -41.22976716487568893, 100.0000000000000142, -37.49999999999999289 ) ) ;
#317 = FACE_OUTER_BOUND ( 'NONE', #190, .T. ) ;
#318 = CARTESIAN_POINT ( 'NONE',  ( 37.49999999999997158, 5.000000000000000000, -37.49999999999999289 ) ) ;
#319 = DIRECTION ( 'NONE',  ( 0.9961946980917455452, -0.08715574274765841567, 0.000000000000000000 ) ) ;
#320 = DIRECTION ( 'NONE',  ( 0.000000000000000000, 1.000000000000000000, 0.000000000000000000 ) ) ;
#321 = EDGE_CURVE ( 'NONE', #766, #509, #189, .T. ) ;
#322 = CARTESIAN_POINT ( 'NONE',  ( 27.61315471681862732, 1.294195046887960610, 32.59412820727735749 ) ) ;
#323 = AXIS2_PLACEMENT_3D ( 'NONE', #760, #843, #466 ) ;
#324 = DIRECTION ( 'NONE',  ( 0.000000000000000000, -0.000000000000000000, 1.000000000000000000 ) ) ;
#325 = CARTESIAN_POINT ( 'NONE',  ( -36.24879367441692324, 100.0000000000000142, 41.22976716487567472 ) ) ;
#326 = PRESENTATION_STYLE_ASSIGNMENT (( #104 ) ) ;
#327 = EDGE_CURVE ( 'NONE', #652, #701, #542, .T. ) ;
#328 = ORIENTED_EDGE ( 'NONE', *, *, #569, .F. ) ;
#329 = ORIENTED_EDGE ( 'NONE', *, *, #840, .F. ) ;
#330 = FILL_AREA_STYLE ('',( #938 ) ) ;
#331 = CARTESIAN_POINT ( 'NONE',  ( 0.000000000000000000, 0.000000000000000000, 0.000000000000000000 ) ) ;
#332 = VERTEX_POINT ( 'NONE', #639 ) ;
#333 = ORIENTED_EDGE ( 'NONE', *, *, #395, .F. ) ;
#334 = DIRECTION ( 'NONE',  ( -1.000000000000000000, 0.000000000000000000, 6.938893903907227392E-16 ) ) ;
#335 =( NAMED_UNIT ( * ) SI_UNIT ( $, .STERADIAN. ) SOLID_ANGLE_UNIT ( ) );
#336 = DIRECTION ( 'NONE',  ( 1.000000000000000000, 0.000000000000000000, 0.000000000000000000 ) ) ;
#337 = AXIS2_PLACEMENT_3D ( 'NONE', #283, #579, #271 ) ;
#338 = AXIS2_PLACEMENT_3D ( 'NONE', #883, #734, #312 ) ;
#339 = CIRCLE ( 'NONE', #458, 5.000000000000000000 ) ;
#340 = EDGE_LOOP ( 'NONE', ( #527, #42, #486, #926 ) ) ;
#341 = EDGE_CURVE ( 'NONE', #68, #61, #247, .T. ) ;
#342 = VERTEX_POINT ( 'NONE', #121 ) ;
#343 = CARTESIAN_POINT ( 'NONE',  ( -28.33668825982577033, 10.00000000000000000, -37.50000000000000000 ) ) ;
#344 = DIRECTION ( 'NONE',  ( 0.08682659386424781967, -0.9924325091389669673, 0.08682659386424779191 ) ) ;
#345 = DIRECTION ( 'NONE',  ( -1.000000000000000000, -0.000000000000000000, -0.000000000000000000 ) ) ;
#346 = ORIENTED_EDGE ( 'NONE', *, *, #13, .F. ) ;
#347 = CARTESIAN_POINT ( 'NONE',  ( -37.49999999999997868, 9.128442572523418619, 38.29863524074322356 ) ) ;
#348 = DIRECTION ( 'NONE',  ( 0.08682659386424775028, 0.9924325091389669673, -0.08682659386424779191 ) ) ;
#349 = CARTESIAN_POINT ( 'NONE',  ( 28.33668825982577033, 9.564221286261709309, 33.31766175028449339 ) ) ;
#350 = EDGE_CURVE ( 'NONE', #201, #163, #643, .T. ) ;
#351 = ORIENTED_EDGE ( 'NONE', *, *, #706, .F. ) ;
#352 = VECTOR ( 'NONE', #651, 1000.000000000000000 ) ;
#353 = AXIS2_PLACEMENT_3D ( 'NONE', #818, #83, #647 ) ;
#354 = DIRECTION ( 'NONE',  ( 0.9961946980917455452, 0.08715574274765836016, 0.000000000000000000 ) ) ;
#355 = CYLINDRICAL_SURFACE ( 'NONE', #265, 10.00000000000000000 ) ;
#356 = EDGE_CURVE ( 'NONE', #358, #390, #203, .T. ) ;
#357 = CARTESIAN_POINT ( 'NONE',  ( 28.33668825982573836, 10.00000000000000000, -28.33668825982575612 ) ) ;
#358 = VERTEX_POINT ( 'NONE', #703 ) ;
#359 = LINE ( 'NONE', #594, #200 ) ;
#360 = CARTESIAN_POINT ( 'NONE',  ( 27.61315471681860600, 1.729973760626250190, -27.61315471681862377 ) ) ;
#361 = CARTESIAN_POINT ( 'NONE',  ( 28.33668825982573836, 10.00000000000000000, -28.33668825982575612 ) ) ;
#362 = ORIENTED_EDGE ( 'NONE', *, *, #678, .F. ) ;
#363 = LINE ( 'NONE', #875, #294 ) ;
#364 = LINE ( 'NONE', #602, #657 ) ;
#365 = EDGE_CURVE ( 'NONE', #262, #205, #413, .T. ) ;
#366 = AXIS2_PLACEMENT_3D ( 'NONE', #948, #287, #492 ) ;
#367 = AXIS2_PLACEMENT_3D ( 'NONE', #942, #560, #782 ) ;
#368 = AXIS2_PLACEMENT_3D ( 'NONE', #237, #392, #462 ) ;
#369 = CARTESIAN_POINT ( 'NONE',  ( -28.33668825982577033, 10.00000000000000000, -37.50000000000000000 ) ) ;
#370 = DIRECTION ( 'NONE',  ( 0.08715574274765836016, 0.9961946980917455452, 0.000000000000000000 ) ) ;
#371 = CARTESIAN_POINT ( 'NONE',  ( -46.24886635259242951, 100.0000000000000142, -36.28691937167495496 ) ) ;
#372 = FACE_OUTER_BOUND ( 'NONE', #836, .T. ) ;
#373 = CARTESIAN_POINT ( 'NONE',  ( -28.33668825982574546, 10.00000000000000000, 28.33668825982576323 ) ) ;
#374 = ORIENTED_EDGE ( 'NONE', *, *, #152, .F. ) ;
#375 = FACE_OUTER_BOUND ( 'NONE', #776, .T. ) ;
#376 = FACE_OUTER_BOUND ( 'NONE', #848, .T. ) ;
#377 = PRODUCT_RELATED_PRODUCT_CATEGORY ( 'part', '', ( #259 ) ) ;
#378 = ADVANCED_FACE ( 'NONE', ( #196 ), #934, .F. ) ;
#379 = CARTESIAN_POINT ( 'NONE',  ( 32.59412820727736460, 1.294195046887959721, 27.61315471681863087 ) ) ;
#380 = VECTOR ( 'NONE', #348, 1000.000000000000114 ) ;
#381 = ORIENTED_EDGE ( 'NONE', *, *, #395, .T. ) ;
#382 = VECTOR ( 'NONE', #344, 1000.000000000000114 ) ;
#383 = DIRECTION ( 'NONE',  ( 0.000000000000000000, -1.000000000000000000, 0.000000000000000000 ) ) ;
#384 = AXIS2_PLACEMENT_3D ( 'NONE', #932, #854, #268 ) ;
#385 = CARTESIAN_POINT ( 'NONE',  ( 38.29863524074320225, 9.128442572523416843, -28.33668825982576678 ) ) ;
#386 = VERTEX_POINT ( 'NONE', #51 ) ;
#387 = CARTESIAN_POINT ( 'NONE',  ( 37.49999999999997158, 100.0000000000000142, -37.49999999999999289 ) ) ;
#388 = CYLINDRICAL_SURFACE ( 'NONE', #832, 5.000000000000000888 ) ;
#389 = ADVANCED_FACE ( 'NONE', ( #127 ), #634, .T. ) ;
#390 = VERTEX_POINT ( 'NONE', #125 ) ;
#391 = CARTESIAN_POINT ( 'NONE',  ( 37.49999999999997158, 10.00000000000000000, -28.33668825982575612 ) ) ;
#392 = DIRECTION ( 'NONE',  ( -4.089774229676364607E-16, 6.938893903907228378E-16, -1.000000000000000000 ) ) ;
#393 = UNCERTAINTY_MEASURE_WITH_UNIT (LENGTH_MEASURE( 1.000000000000000082E-05 ), #17, 'distance_accuracy_value', 'NONE');
#394 = CARTESIAN_POINT ( 'NONE',  ( -28.33668825982577744, 0.000000000000000000, -37.49999999999996447 ) ) ;
#395 = EDGE_CURVE ( 'NONE', #558, #262, #59, .T. ) ;
#396 = ORIENTED_EDGE ( 'NONE', *, *, #677, .F. ) ;
#397 = DIRECTION ( 'NONE',  ( 0.000000000000000000, -0.08715574274765841567, -0.9961946980917455452 ) ) ;
#398 = CARTESIAN_POINT ( 'NONE',  ( -28.33668825982574901, 5.000000000000000000, -37.49999999999999289 ) ) ;
#399 = CIRCLE ( 'NONE', #202, 4.999999999999998224 ) ;
#400 = AXIS2_PLACEMENT_3D ( 'NONE', #250, #773, #406 ) ;
#401 = ORIENTED_EDGE ( 'NONE', *, *, #677, .T. ) ;
#402 = ORIENTED_EDGE ( 'NONE', *, *, #223, .T. ) ;
#403 = FACE_OUTER_BOUND ( 'NONE', #411, .T. ) ;
#404 = ORIENTED_EDGE ( 'NONE', *, *, #581, .F. ) ;
#405 = ORIENTED_EDGE ( 'NONE', *, *, #518, .T. ) ;
#406 = DIRECTION ( 'NONE',  ( 1.000000000000000000, 0.000000000000000000, 0.000000000000000000 ) ) ;
#407 = DIRECTION ( 'NONE',  ( 4.625929269271486900E-16, 0.000000000000000000, 1.000000000000000000 ) ) ;
#408 = EDGE_CURVE ( 'NONE', #61, #558, #699, .T. ) ;
#409 = EDGE_CURVE ( 'NONE', #106, #120, #273, .T. ) ;
#410 = ORIENTED_EDGE ( 'NONE', *, *, #695, .T. ) ;
#411 = EDGE_LOOP ( 'NONE', ( #239, #867, #853 ) ) ;
#412 = DIRECTION ( 'NONE',  ( 4.625929269271486900E-16, 0.000000000000000000, 1.000000000000000000 ) ) ;
#413 = LINE ( 'NONE', #113, #382 ) ;
#414 = AXIS2_PLACEMENT_3D ( 'NONE', #856, #774, #939 ) ;
#415 = AXIS2_PLACEMENT_3D ( 'NONE', #532, #828, #539 ) ;
#416 = CARTESIAN_POINT ( 'NONE',  ( -28.33668825982576678, 10.00000000000000000, -28.33668825982575612 ) ) ;
#417 = ORIENTED_EDGE ( 'NONE', *, *, #350, .F. ) ;
#418 = LINE ( 'NONE', #347, #847 ) ;
#419 = CARTESIAN_POINT ( 'NONE',  ( -33.31766175028450050, 9.564221286261709309, -37.49999999999999289 ) ) ;
#420 = VERTEX_POINT ( 'NONE', #860 ) ;
#421 = EDGE_CURVE ( 'NONE', #140, #697, #491, .T. ) ;
#422 = CARTESIAN_POINT ( 'NONE',  ( -39.17115184300224229, 100.0000000000000142, -41.22976716487568183 ) ) ;
#423 = CARTESIAN_POINT ( 'NONE',  ( -32.51902650954127694, 0.4357787137382918563, -37.49999999999999289 ) ) ;
#424 = ADVANCED_FACE ( 'NONE', ( #487 ), #45, .F. ) ;
#425 = DIRECTION ( 'NONE',  ( 1.000000000000000000, 0.000000000000000000, 0.000000000000000000 ) ) ;
#426 = CARTESIAN_POINT ( 'NONE',  ( 32.51902650954127694, 0.4357787137382918563, 37.50000000000000000 ) ) ;
#427 = AXIS2_PLACEMENT_3D ( 'NONE', #545, #905, #830 ) ;
#428 = CIRCLE ( 'NONE', #945, 10.00000000000000178 ) ;
#429 = ORIENTED_EDGE ( 'NONE', *, *, #736, .T. ) ;
#430 = FACE_OUTER_BOUND ( 'NONE', #107, .T. ) ;
#431 = DIRECTION ( 'NONE',  ( 1.000000000000000000, 0.000000000000000000, 0.000000000000000000 ) ) ;
#432 = DIRECTION ( 'NONE',  ( 0.08682659386424773640, 0.9924325091389669673, -0.08682659386424779191 ) ) ;
#433 = CYLINDRICAL_SURFACE ( 'NONE', #146, 5.000000000000000888 ) ;
#434 = DIRECTION ( 'NONE',  ( 0.9961946980917455452, -0.08715574274765836016, -4.608326211795677939E-16 ) ) ;
#435 = VERTEX_POINT ( 'NONE', #349 ) ;
#436 = LINE ( 'NONE', #8, #735 ) ;
#437 = DIRECTION ( 'NONE',  ( 0.000000000000000000, -1.000000000000000000, 6.245004513516505540E-15 ) ) ;
#438 = FACE_OUTER_BOUND ( 'NONE', #546, .T. ) ;
#439 = VECTOR ( 'NONE', #669, 1000.000000000000114 ) ;
#440 = CIRCLE ( 'NONE', #415, 10.00000000000000178 ) ;
#441 = LINE ( 'NONE', #141, #702 ) ;
#442 = CARTESIAN_POINT ( 'NONE',  ( -37.49999999999997868, 9.564221286261709309, 33.31766175028449339 ) ) ;
#443 = LINE ( 'NONE', #597, #439 ) ;
#444 = EDGE_CURVE ( 'NONE', #158, #201, #418, .T. ) ;
#445 = EDGE_LOOP ( 'NONE', ( #859, #402, #573, #267 ) ) ;
#446 = ORIENTED_EDGE ( 'NONE', *, *, #284, .F. ) ;
#447 = DIRECTION ( 'NONE',  ( 1.000000000000000000, 0.000000000000000000, 0.000000000000000000 ) ) ;
#448 = ADVANCED_FACE ( 'NONE', ( #281 ), #851, .T. ) ;
#449 = CARTESIAN_POINT ( 'NONE',  ( 28.33668825982576678, 9.128442572523416843, 38.29863524074322356 ) ) ;
#450 = ORIENTED_EDGE ( 'NONE', *, *, #507, .T. ) ;
#451 = ORIENTED_EDGE ( 'NONE', *, *, #178, .F. ) ;
#452 = PLANE ( 'NONE',  #79 ) ;
#453 = DIRECTION ( 'NONE',  ( -0.08682659386424783354, -0.9924325091389670783, -0.08682659386424779191 ) ) ;
#454 = DIRECTION ( 'NONE',  ( 1.000000000000000000, 0.000000000000000000, -3.469446951953614682E-16 ) ) ;
#455 = VERTEX_POINT ( 'NONE', #790 ) ;
#456 = FACE_OUTER_BOUND ( 'NONE', #22, .T. ) ;
#457 = CARTESIAN_POINT ( 'NONE',  ( 41.22976716487568893, 100.0000000000000142, 36.24879367441695166 ) ) ;
#458 = AXIS2_PLACEMENT_3D ( 'NONE', #165, #618, #383 ) ;
#459 = DIRECTION ( 'NONE',  ( 0.000000000000000000, 1.000000000000000000, 0.000000000000000000 ) ) ;
#460 = ORIENTED_EDGE ( 'NONE', *, *, #889, .T. ) ;
#461 = CARTESIAN_POINT ( 'NONE',  ( 42.13163570884550779, 100.0000000000000284, -46.24886635259242951 ) ) ;
#462 = DIRECTION ( 'NONE',  ( 0.000000000000000000, -1.000000000000000000, -6.938893903907228378E-16 ) ) ;
#463 = CARTESIAN_POINT ( 'NONE',  ( 37.49999999999997158, 100.0000000000000142, -41.22976716487567472 ) ) ;
#464 = ADVANCED_FACE ( 'NONE', ( #925 ), #629, .F. ) ;
#465 = ORIENTED_EDGE ( 'NONE', *, *, #409, .F. ) ;
#466 = DIRECTION ( 'NONE',  ( 0.000000000000000000, -0.9961946980917455452, -0.08715574274765836016 ) ) ;
#467 = CARTESIAN_POINT ( 'NONE',  ( 27.61315471681863443, 1.729973760626251966, 27.61315471681863087 ) ) ;
#468 = ORIENTED_EDGE ( 'NONE', *, *, #241, .F. ) ;
#469 = ORIENTED_EDGE ( 'NONE', *, *, #13, .T. ) ;
#470 = CYLINDRICAL_SURFACE ( 'NONE', #811, 4.999999999999998224 ) ;
#471 = EDGE_CURVE ( 'NONE', #842, #38, #589, .T. ) ;
#472 = VECTOR ( 'NONE', #285, 1000.000000000000000 ) ;
#473 = AXIS2_PLACEMENT_3D ( 'NONE', #481, #767, #108 ) ;
#474 = ORIENTED_EDGE ( 'NONE', *, *, #712, .T. ) ;
#475 = ORIENTED_EDGE ( 'NONE', *, *, #505, .T. ) ;
#476 = CYLINDRICAL_SURFACE ( 'NONE', #36, 10.00000000000000178 ) ;
#477 = CARTESIAN_POINT ( 'NONE',  ( -28.33668825982576678, 10.00000000000000000, -28.33668825982575612 ) ) ;
#478 = EDGE_CURVE ( 'NONE', #89, #61, #441, .T. ) ;
#479 = ORIENTED_EDGE ( 'NONE', *, *, #581, .T. ) ;
#480 = ORIENTED_EDGE ( 'NONE', *, *, #713, .T. ) ;
#481 = CARTESIAN_POINT ( 'NONE',  ( -28.33668825982576678, 10.00000000000000178, -28.33668825982575612 ) ) ;
#482 = DIRECTION ( 'NONE',  ( 0.000000000000000000, 0.000000000000000000, 1.000000000000000000 ) ) ;
#483 = CARTESIAN_POINT ( 'NONE',  ( -28.33668825982576323, 10.00000000000000000, -28.33668825982575612 ) ) ;
#484 = CYLINDRICAL_SURFACE ( 'NONE', #366, 4.999999999999997335 ) ;
#485 = ORIENTED_EDGE ( 'NONE', *, *, #520, .F. ) ;
#486 = ORIENTED_EDGE ( 'NONE', *, *, #814, .F. ) ;
#487 = FACE_OUTER_BOUND ( 'NONE', #48, .T. ) ;
#488 = VECTOR ( 'NONE', #804, 1000.000000000000000 ) ;
#489 = VERTEX_POINT ( 'NONE', #891 ) ;
#490 = ORIENTED_EDGE ( 'NONE', *, *, #166, .F. ) ;
#491 = LINE ( 'NONE', #207, #611 ) ;
#492 = DIRECTION ( 'NONE',  ( 0.000000000000000000, 0.000000000000000000, 1.000000000000000000 ) ) ;
#493 = EDGE_CURVE ( 'NONE', #861, #106, #295, .T. ) ;
#494 = EDGE_LOOP ( 'NONE', ( #658, #722, #256, #567 ) ) ;
#495 = LINE ( 'NONE', #162, #34 ) ;
#496 = ORIENTED_EDGE ( 'NONE', *, *, #533, .T. ) ;
#497 = DIRECTION ( 'NONE',  ( 0.08682659386424776415, -0.9924325091389669673, -0.08682659386424777803 ) ) ;
#498 = EDGE_CURVE ( 'NONE', #420, #390, #183, .T. ) ;
#499 = CARTESIAN_POINT ( 'NONE',  ( 37.49999999999997158, 0.000000000000000000, -28.33668825982575612 ) ) ;
#500 = AXIS2_PLACEMENT_3D ( 'NONE', #513, #434, #370 ) ;
#501 = FACE_OUTER_BOUND ( 'NONE', #692, .T. ) ;
#502 = VECTOR ( 'NONE', #865, 1000.000000000000114 ) ;
#503 = VECTOR ( 'NONE', #245, 1000.000000000000000 ) ;
#504 = DIRECTION ( 'NONE',  ( -1.000000000000000000, 0.000000000000000000, 0.000000000000000000 ) ) ;
#505 = EDGE_CURVE ( 'NONE', #826, #66, #359, .T. ) ;
#506 = CARTESIAN_POINT ( 'NONE',  ( -28.33668825982574546, 10.00000000000000000, 28.33668825982576323 ) ) ;
#507 = EDGE_CURVE ( 'NONE', #455, #842, #301, .T. ) ;
#508 = DIRECTION ( 'NONE',  ( -1.000000000000000000, 0.000000000000000000, 3.469446951953614682E-16 ) ) ;
#509 = VERTEX_POINT ( 'NONE', #591 ) ;
#510 = ORIENTED_EDGE ( 'NONE', *, *, #712, .F. ) ;
#511 = CARTESIAN_POINT ( 'NONE',  ( -27.61315471681863443, 1.729973760626251744, -27.61315471681862377 ) ) ;
#512 = DIRECTION ( 'NONE',  ( 0.000000000000000000, 0.08715574274765836016, -0.9961946980917455452 ) ) ;
#513 = CARTESIAN_POINT ( 'NONE',  ( 37.50000000000000711, 0.000000000000000000, 37.50000000000000000 ) ) ;
#514 = ORIENTED_EDGE ( 'NONE', *, *, #493, .T. ) ;
#515 = DIRECTION ( 'NONE',  ( 0.000000000000000000, -0.000000000000000000, 1.000000000000000000 ) ) ;
#516 = LINE ( 'NONE', #142, #556 ) ;
#517 = DIRECTION ( 'NONE',  ( 0.08682659386424783354, 0.9924325091389669673, 0.08682659386424777803 ) ) ;
#518 = EDGE_CURVE ( 'NONE', #919, #158, #570, .T. ) ;
#519 = VECTOR ( 'NONE', #839, 1000.000000000000000 ) ;
#520 = EDGE_CURVE ( 'NONE', #66, #759, #550, .T. ) ;
#521 = ORIENTED_EDGE ( 'NONE', *, *, #823, .F. ) ;
#522 = ORIENTED_EDGE ( 'NONE', *, *, #478, .T. ) ;
#523 = SPHERICAL_SURFACE ( 'NONE', #33, 10.00000000000000000 ) ;
#524 = FACE_OUTER_BOUND ( 'NONE', #775, .T. ) ;
#525 = LINE ( 'NONE', #80, #750 ) ;
#526 = EDGE_CURVE ( 'NONE', #122, #652, #153, .T. ) ;
#527 = ORIENTED_EDGE ( 'NONE', *, *, #493, .F. ) ;
#528 = CARTESIAN_POINT ( 'NONE',  ( 28.33668825982573836, 10.00000000000000000, -28.33668825982575612 ) ) ;
#529 = DIRECTION ( 'NONE',  ( 0.9961946980917455452, -0.08715574274765841567, 0.000000000000000000 ) ) ;
#530 = CARTESIAN_POINT ( 'NONE',  ( 28.33668825982576678, 5.000000000000000000, 28.33668825982575612 ) ) ;
#531 = FACE_OUTER_BOUND ( 'NONE', #710, .T. ) ;
#532 = CARTESIAN_POINT ( 'NONE',  ( 28.33668825982573836, 10.00000000000000000, -28.33668825982575612 ) ) ;
#533 = EDGE_CURVE ( 'NONE', #615, #43, #800, .T. ) ;
#534 = DIRECTION ( 'NONE',  ( 1.000000000000000000, 0.000000000000000000, 0.000000000000000000 ) ) ;
#535 = EDGE_CURVE ( 'NONE', #38, #66, #577, .T. ) ;
#536 = ORIENTED_EDGE ( 'NONE', *, *, #535, .F. ) ;
#537 = CARTESIAN_POINT ( 'NONE',  ( 27.61315471681860600, 1.729973760626250190, -27.61315471681862377 ) ) ;
#538 = AXIS2_PLACEMENT_3D ( 'NONE', #93, #219, #307 ) ;
#539 = DIRECTION ( 'NONE',  ( 0.000000000000000000, -0.08715574274765836016, -0.9961946980917455452 ) ) ;
#540 = AXIS2_PLACEMENT_3D ( 'NONE', #343, #192, #334 ) ;
#541 = EDGE_CURVE ( 'NONE', #56, #140, #436, .T. ) ;
#542 = LINE ( 'NONE', #32, #215 ) ;
#543 = CARTESIAN_POINT ( 'NONE',  ( 46.24886635259239398, 100.0000000000000142, -36.28691937167495496 ) ) ;
#544 = CARTESIAN_POINT ( 'NONE',  ( 41.22976716487568893, 100.0000000000000142, 36.24879367441695166 ) ) ;
#545 = CARTESIAN_POINT ( 'NONE',  ( -27.61315471681861311, 1.729973760626250412, 27.61315471681863087 ) ) ;
#546 = EDGE_LOOP ( 'NONE', ( #255, #666, #195, #667 ) ) ;
#547 = EDGE_LOOP ( 'NONE', ( #696, #580, #878 ) ) ;
#548 = DIRECTION ( 'NONE',  ( 0.000000000000000000, 0.000000000000000000, -1.000000000000000000 ) ) ;
#549 = EDGE_LOOP ( 'NONE', ( #485, #693, #351, #328 ) ) ;
#550 =( BOUNDED_CURVE ( )  B_SPLINE_CURVE ( 3, ( #662, #950, #221, #886 ),
 .UNSPECIFIED., .F., .T. ) 
 B_SPLINE_CURVE_WITH_KNOTS ( ( 4, 4 ),
 ( 2.359992588465626984, 3.923192718713959692 ),
 .UNSPECIFIED. ) 
 CURVE ( )  GEOMETRIC_REPRESENTATION_ITEM ( )  RATIONAL_B_SPLINE_CURVE ( ( 1.000000000000000000, 0.8065248903853483586, 0.8065248903853483586, 1.000000000000000000 ) ) 
 REPRESENTATION_ITEM ( '' )  );
#551 = ADVANCED_FACE ( 'NONE', ( #430 ), #523, .T. ) ;
#552 = EDGE_LOOP ( 'NONE', ( #280, #154, #404 ) ) ;
#553 = SURFACE_STYLE_USAGE ( .BOTH. , #263 ) ;
#554 = AXIS2_PLACEMENT_3D ( 'NONE', #606, #683, #534 ) ;
#555 = DIRECTION ( 'NONE',  ( 4.625929269271486900E-16, 0.000000000000000000, 1.000000000000000000 ) ) ;
#556 = VECTOR ( 'NONE', #732, 1000.000000000000000 ) ;
#557 = EDGE_LOOP ( 'NONE', ( #465, #562, #480, #39 ) ) ;
#558 = VERTEX_POINT ( 'NONE', #73 ) ;
#559 = CARTESIAN_POINT ( 'NONE',  ( -36.28691937167494075, 100.0000000000000142, 46.24886635259242240 ) ) ;
#560 = DIRECTION ( 'NONE',  ( 0.000000000000000000, -0.08715574274765836016, -0.9961946980917455452 ) ) ;
#561 = PRODUCT_DEFINITION_CONTEXT ( 'detailed design', #907, 'design' ) ;
#562 = ORIENTED_EDGE ( 'NONE', *, *, #179, .T. ) ;
#563 = ORIENTED_EDGE ( 'NONE', *, *, #18, .T. ) ;
#564 = DIRECTION ( 'NONE',  ( -4.625929269271486900E-16, -0.000000000000000000, -1.000000000000000000 ) ) ;
#565 = ADVANCED_FACE ( 'NONE', ( #795 ), #433, .F. ) ;
#566 = CARTESIAN_POINT ( 'NONE',  ( -46.24886635259240109, 100.0000000000000142, 36.28691937167496917 ) ) ;
#567 = ORIENTED_EDGE ( 'NONE', *, *, #223, .F. ) ;
#568 = CARTESIAN_POINT ( 'NONE',  ( 28.33668825982577033, 10.00000000000000000, 37.50000000000000711 ) ) ;
#569 = EDGE_CURVE ( 'NONE', #759, #158, #363, .T. ) ;
#570 = CIRCLE ( 'NONE', #6, 10.00000000000000178 ) ;
#571 = COLOUR_RGB ( '',0.7529411764705882248, 0.7529411764705882248, 0.7529411764705882248 ) ;
#572 = DIRECTION ( 'NONE',  ( 0.000000000000000000, -0.08715574274765836016, -0.9961946980917455452 ) ) ;
#573 = ORIENTED_EDGE ( 'NONE', *, *, #645, .T. ) ;
#574 = DIRECTION ( 'NONE',  ( 1.000000000000000000, 0.000000000000000000, -6.938893903907227392E-16 ) ) ;
#575 = LINE ( 'NONE', #649, #380 ) ;
#576 = ORIENTED_EDGE ( 'NONE', *, *, #850, .F. ) ;
#577 = LINE ( 'NONE', #132, #488 ) ;
#578 =( LENGTH_UNIT ( ) NAMED_UNIT ( * ) SI_UNIT ( .MILLI., .METRE. ) );
#579 = DIRECTION ( 'NONE',  ( -0.000000000000000000, -0.000000000000000000, -1.000000000000000000 ) ) ;
#580 = ORIENTED_EDGE ( 'NONE', *, *, #72, .T. ) ;
#581 = EDGE_CURVE ( 'NONE', #358, #935, #310, .T. ) ;
#582 = DIRECTION ( 'NONE',  ( 1.000000000000000000, 0.000000000000000000, 0.000000000000000000 ) ) ;
#583 = PLANE ( 'NONE',  #353 ) ;
#584 = FACE_OUTER_BOUND ( 'NONE', #209, .T. ) ;
#585 = CIRCLE ( 'NONE', #21, 5.000000000000000000 ) ;
#586 =( GEOMETRIC_REPRESENTATION_CONTEXT ( 3 ) GLOBAL_UNCERTAINTY_ASSIGNED_CONTEXT ( ( #393 ) ) GLOBAL_UNIT_ASSIGNED_CONTEXT ( ( #17, #638, #335 ) ) REPRESENTATION_CONTEXT ( 'NONE', 'WORKASPACE' ) );
#587 = DIRECTION ( 'NONE',  ( 0.000000000000000000, 0.000000000000000000, 1.000000000000000000 ) ) ;
#588 = DIRECTION ( 'NONE',  ( -0.08682659386424780579, -0.9924325091389670783, -0.08682659386424775028 ) ) ;
#589 =( BOUNDED_CURVE ( )  B_SPLINE_CURVE ( 3, ( #808, #145, #296, #371 ),
 .UNSPECIFIED., .F., .T. ) 
 B_SPLINE_CURVE_WITH_KNOTS ( ( 4, 4 ),
 ( 2.359992588465625207, 3.923192718713959692 ),
 .UNSPECIFIED. ) 
 CURVE ( )  GEOMETRIC_REPRESENTATION_ITEM ( )  RATIONAL_B_SPLINE_CURVE ( ( 1.000000000000000000, 0.8065248903853478035, 0.8065248903853478035, 1.000000000000000000 ) ) 
 REPRESENTATION_ITEM ( '' )  );
#590 = CARTESIAN_POINT ( 'NONE',  ( 28.33668825982576678, 10.00000000000000000, 28.33668825982576323 ) ) ;
#591 = CARTESIAN_POINT ( 'NONE',  ( 36.24879367441692324, 100.0000000000000142, -41.22976716487566762 ) ) ;
#592 = DIRECTION ( 'NONE',  ( -3.700743415417189125E-16, 0.000000000000000000, -1.000000000000000000 ) ) ;
#593 = CARTESIAN_POINT ( 'NONE',  ( 28.33668825982576678, 10.00000000000000000, 28.33668825982576323 ) ) ;
#594 = CARTESIAN_POINT ( 'NONE',  ( -37.00968739258104279, -5.604298747501741396, 27.04774041166360732 ) ) ;
#595 = DIRECTION ( 'NONE',  ( 0.000000000000000000, -0.08715574274765838791, -0.9961946980917455452 ) ) ;
#596 = EDGE_CURVE ( 'NONE', #386, #390, #688, .T. ) ;
#597 = CARTESIAN_POINT ( 'NONE',  ( -32.59412820727734328, 1.294195046887958611, 27.61315471681863443 ) ) ;
#598 = VECTOR ( 'NONE', #65, 1000.000000000000000 ) ;
#599 = ORIENTED_EDGE ( 'NONE', *, *, #313, .F. ) ;
#600 = ORIENTED_EDGE ( 'NONE', *, *, #408, .F. ) ;
#601 = DIRECTION ( 'NONE',  ( 0.000000000000000000, 0.08715574274765836016, -0.9961946980917455452 ) ) ;
#602 = CARTESIAN_POINT ( 'NONE',  ( -37.57510169773608766, 0.8584163331496679206, -27.61315471681862022 ) ) ;
#603 = ORIENTED_EDGE ( 'NONE', *, *, #72, .F. ) ;
#604 = CARTESIAN_POINT ( 'NONE',  ( -28.33668825982574901, 5.000000000000000000, 28.33668825982575612 ) ) ;
#605 = DIRECTION ( 'NONE',  ( 0.08682659386424783354, 0.9924325091389669673, 0.08682659386424779191 ) ) ;
#606 = CARTESIAN_POINT ( 'NONE',  ( -28.33668825982574546, 10.00000000000000000, 28.33668825982576323 ) ) ;
#607 = DIRECTION ( 'NONE',  ( 0.000000000000000000, 0.000000000000000000, -1.000000000000000000 ) ) ;
#608 =( LENGTH_UNIT ( ) NAMED_UNIT ( * ) SI_UNIT ( .MILLI., .METRE. ) );
#609 = DIRECTION ( 'NONE',  ( -1.000000000000000000, -0.000000000000000000, -0.000000000000000000 ) ) ;
#610 = LINE ( 'NONE', #316, #503 ) ;
#611 = VECTOR ( 'NONE', #58, 1000.000000000000000 ) ;
#612 = DIRECTION ( 'NONE',  ( -0.000000000000000000, 0.000000000000000000, -1.000000000000000000 ) ) ;
#613 = VECTOR ( 'NONE', #412, 1000.000000000000000 ) ;
#614 = DIRECTION ( 'NONE',  ( -0.08682659386424775028, -0.9924325091389669673, 0.08682659386424777803 ) ) ;
#615 = VERTEX_POINT ( 'NONE', #103 ) ;
#616 = ORIENTED_EDGE ( 'NONE', *, *, #471, .T. ) ;
#617 = SPHERICAL_SURFACE ( 'NONE', #170, 5.000000000000000000 ) ;
#618 = DIRECTION ( 'NONE',  ( -1.000000000000000000, 1.836970198721029688E-16, 0.000000000000000000 ) ) ;
#619 = ADVANCED_FACE ( 'NONE', ( #176 ), #99, .T. ) ;
#620 = EDGE_LOOP ( 'NONE', ( #741, #803, #155, #300 ) ) ;
#621 = EDGE_LOOP ( 'NONE', ( #793, #475, #536, #15 ) ) ;
#622 = CARTESIAN_POINT ( 'NONE',  ( 27.61315471681863443, 1.729973760626251966, 27.61315471681863087 ) ) ;
#623 = DIRECTION ( 'NONE',  ( 0.000000000000000000, 1.000000000000000000, 0.000000000000000000 ) ) ;
#624 = ADVANCED_FACE ( 'NONE', ( #456 ), #470, .F. ) ;
#625 = ORIENTED_EDGE ( 'NONE', *, *, #109, .F. ) ;
#626 = ORIENTED_EDGE ( 'NONE', *, *, #421, .F. ) ;
#627 = APPLICATION_PROTOCOL_DEFINITION ( 'draft international standard', 'automotive_design', 1998, #907 ) ;
#628 = AXIS2_PLACEMENT_3D ( 'NONE', #37, #837, #821 ) ;
#629 = SPHERICAL_SURFACE ( 'NONE', #911, 5.000000000000000000 ) ;
#630 = AXIS2_PLACEMENT_3D ( 'NONE', #369, #592, #887 ) ;
#631 = COLOUR_RGB ( '',0.7529411764705882248, 0.7529411764705882248, 0.7529411764705882248 ) ;
#632 = EDGE_LOOP ( 'NONE', ( #490, #293, #95, #745 ) ) ;
#633 = ORIENTED_EDGE ( 'NONE', *, *, #596, .T. ) ;
#634 = CYLINDRICAL_SURFACE ( 'NONE', #230, 10.00000000000000178 ) ;
#635 = CARTESIAN_POINT ( 'NONE',  ( -41.22976716487566051, 100.0000000000000142, 36.24879367441695166 ) ) ;
#636 = EDGE_LOOP ( 'NONE', ( #381, #862, #229, #85 ) ) ;
#637 = ADVANCED_FACE ( 'NONE', ( #903, #531 ), #668, .T. ) ;
#638 =( NAMED_UNIT ( * ) PLANE_ANGLE_UNIT ( ) SI_UNIT ( $, .RADIAN. ) );
#639 = CARTESIAN_POINT ( 'NONE',  ( 38.29863524074322356, 9.128442572523416843, 28.33668825982575967 ) ) ;
#640 = CARTESIAN_POINT ( 'NONE',  ( 33.31766175028447208, 9.564221286261711086, -28.33668825982576323 ) ) ;
#641 = DIRECTION ( 'NONE',  ( 0.000000000000000000, 0.000000000000000000, -1.000000000000000000 ) ) ;
#642 = AXIS2_PLACEMENT_3D ( 'NONE', #590, #807, #454 ) ;
#643 = CIRCLE ( 'NONE', #414, 10.00000000000000178 ) ;
#644 = AXIS2_PLACEMENT_3D ( 'NONE', #391, #689, #607 ) ;
#645 = EDGE_CURVE ( 'NONE', #615, #435, #399, .T. ) ;
#646 = DIRECTION ( 'NONE',  ( -0.08682659386424775028, -0.9924325091389670783, 0.08682659386424779191 ) ) ;
#647 = DIRECTION ( 'NONE',  ( 0.000000000000000000, -0.9961946980917455452, -0.08715574274765836016 ) ) ;
#648 = ADVANCED_FACE ( 'NONE', ( #181 ), #164, .F. ) ;
#649 = CARTESIAN_POINT ( 'NONE',  ( 32.59412820727733617, 1.294195046887958167, -27.61315471681862732 ) ) ;
#650 = ADVANCED_FACE ( 'NONE', ( #375 ), #452, .T. ) ;
#651 = DIRECTION ( 'NONE',  ( -1.000000000000000000, -0.000000000000000000, -0.000000000000000000 ) ) ;
#652 = VERTEX_POINT ( 'NONE', #325 ) ;
#653 = EDGE_LOOP ( 'NONE', ( #898, #333, #308, #213, #576, #715, #521, #26 ) ) ;
#654 = CARTESIAN_POINT ( 'NONE',  ( 42.13163570884555753, 100.0000000000000284, 46.24886635259242951 ) ) ;
#655 = AXIS2_PLACEMENT_3D ( 'NONE', #426, #277, #799 ) ;
#656 = DIRECTION ( 'NONE',  ( 0.000000000000000000, 1.000000000000000000, 0.000000000000000000 ) ) ;
#657 = VECTOR ( 'NONE', #885, 1000.000000000000114 ) ;
#658 = ORIENTED_EDGE ( 'NONE', *, *, #850, .T. ) ;
#659 = CARTESIAN_POINT ( 'NONE',  ( -41.22976716487566051, 100.0000000000000142, 36.24879367441695166 ) ) ;
#660 = DIRECTION ( 'NONE',  ( 0.08682659386424776415, -0.9924325091389670783, -0.08682659386424779191 ) ) ;
#661 = SPHERICAL_SURFACE ( 'NONE', #810, 10.00000000000000000 ) ;
#662 = CARTESIAN_POINT ( 'NONE',  ( -46.24886635259240109, 100.0000000000000142, 36.28691937167496917 ) ) ;
#663 = ADVANCED_FACE ( 'NONE', ( #899 ), #617, .F. ) ;
#664 = DIRECTION ( 'NONE',  ( 0.000000000000000000, 0.000000000000000000, 1.000000000000000000 ) ) ;
#665 = DIRECTION ( 'NONE',  ( 0.000000000000000000, 1.000000000000000000, -6.938893903907228378E-16 ) ) ;
#666 = ORIENTED_EDGE ( 'NONE', *, *, #327, .T. ) ;
#667 = ORIENTED_EDGE ( 'NONE', *, *, #241, .T. ) ;
#668 = PLANE ( 'NONE',  #278 ) ;
#669 = DIRECTION ( 'NONE',  ( -0.08682659386424776415, 0.9924325091389669673, 0.08682659386424779191 ) ) ;
#670 = VECTOR ( 'NONE', #117, 1000.000000000000000 ) ;
#671 = AXIS2_PLACEMENT_3D ( 'NONE', #743, #24, #900 ) ;
#672 = ORIENTED_EDGE ( 'NONE', *, *, #178, .T. ) ;
#673 = MECHANICAL_DESIGN_GEOMETRIC_PRESENTATION_REPRESENTATION (  '', ( #233 ), #586 ) ;
#674 = DIRECTION ( 'NONE',  ( -4.625929269271486900E-16, -0.000000000000000000, -1.000000000000000000 ) ) ;
#675 = FILL_AREA_STYLE ('',( #100 ) ) ;
#676 = SPHERICAL_SURFACE ( 'NONE', #554, 5.000000000000000000 ) ;
#677 = EDGE_CURVE ( 'NONE', #68, #56, #746, .T. ) ;
#678 = EDGE_CURVE ( 'NONE', #615, #140, #232, .T. ) ;
#679 = ORIENTED_EDGE ( 'NONE', *, *, #823, .T. ) ;
#680 = DIRECTION ( 'NONE',  ( -0.08682659386424775028, -0.9924325091389670783, 0.08682659386424779191 ) ) ;
#681 = CARTESIAN_POINT ( 'NONE',  ( 36.24879367441695166, 100.0000000000000142, 41.22976716487567472 ) ) ;
#682 = UNCERTAINTY_MEASURE_WITH_UNIT (LENGTH_MEASURE( 1.000000000000000082E-05 ), #578, 'distance_accuracy_value', 'NONE');
#683 = DIRECTION ( 'NONE',  ( 0.000000000000000000, 1.000000000000000000, 0.000000000000000000 ) ) ;
#684 =( BOUNDED_CURVE ( )  B_SPLINE_CURVE ( 3, ( #543, #173, #461, #757 ),
 .UNSPECIFIED., .F., .F. ) 
 B_SPLINE_CURVE_WITH_KNOTS ( ( 4, 4 ),
 ( 2.359992588465626095, 3.923192718713959692 ),
 .UNSPECIFIED. ) 
 CURVE ( )  GEOMETRIC_REPRESENTATION_ITEM ( )  RATIONAL_B_SPLINE_CURVE ( ( 1.000000000000000000, 0.8065248903853481366, 0.8065248903853481366, 1.000000000000000000 ) ) 
 REPRESENTATION_ITEM ( '' )  );
#685 = DIRECTION ( 'NONE',  ( 0.000000000000000000, -0.08715574274765836016, -0.9961946980917455452 ) ) ;
#686 = CARTESIAN_POINT ( 'NONE',  ( 39.17115184300224229, 100.0000000000000142, 41.22976716487568183 ) ) ;
#687 = FACE_OUTER_BOUND ( 'NONE', #874, .T. ) ;
#688 = CIRCLE ( 'NONE', #628, 10.00000000000000178 ) ;
#689 = DIRECTION ( 'NONE',  ( 1.000000000000000000, 0.000000000000000000, 0.000000000000000000 ) ) ;
#690 = AXIS2_PLACEMENT_3D ( 'NONE', #90, #674, #240 ) ;
#691 = CIRCLE ( 'NONE', #279, 10.00000000000000178 ) ;
#692 = EDGE_LOOP ( 'NONE', ( #235, #114, #410, #468 ) ) ;
#693 = ORIENTED_EDGE ( 'NONE', *, *, #505, .F. ) ;
#694 = CYLINDRICAL_SURFACE ( 'NONE', #540, 10.00000000000000178 ) ;
#695 = EDGE_CURVE ( 'NONE', #262, #122, #610, .T. ) ;
#696 = ORIENTED_EDGE ( 'NONE', *, *, #18, .F. ) ;
#697 = VERTEX_POINT ( 'NONE', #604 ) ;
#698 = DIRECTION ( 'NONE',  ( -0.08682659386424783354, -0.9924325091389670783, -0.08682659386424779191 ) ) ;
#699 = LINE ( 'NONE', #716, #502 ) ;
#700 = ORIENTED_EDGE ( 'NONE', *, *, #327, .F. ) ;
#701 = VERTEX_POINT ( 'NONE', #754 ) ;
#702 = VECTOR ( 'NONE', #879, 1000.000000000000000 ) ;
#703 = CARTESIAN_POINT ( 'NONE',  ( 28.33668825982573836, 9.128442572523416843, -38.29863524074321646 ) ) ;
#704 = STYLED_ITEM ( 'NONE', ( #849 ), #771 ) ;
#705 = CARTESIAN_POINT ( 'NONE',  ( -27.04774041166360021, -5.604298747501742284, -37.00968739258104989 ) ) ;
#706 = EDGE_CURVE ( 'NONE', #158, #826, #691, .T. ) ;
#707 = ORIENTED_EDGE ( 'NONE', *, *, #350, .T. ) ;
#708 = CARTESIAN_POINT ( 'NONE',  ( 28.33668825982577033, 10.00000000000000000, 37.50000000000000711 ) ) ;
#709 = ORIENTED_EDGE ( 'NONE', *, *, #518, .F. ) ;
#710 = EDGE_LOOP ( 'NONE', ( #937, #46, #914, #514, #124, #474, #450, #616 ) ) ;
#711 = CARTESIAN_POINT ( 'NONE',  ( 46.24886635259242951, 100.0000000000000142, 37.49999999999999289 ) ) ;
#712 = EDGE_CURVE ( 'NONE', #120, #455, #684, .T. ) ;
#713 = EDGE_CURVE ( 'NONE', #332, #177, #96, .T. ) ;
#714 = DIRECTION ( 'NONE',  ( 0.08715574274765836016, -0.9961946980917455452, 0.000000000000000000 ) ) ;
#715 = ORIENTED_EDGE ( 'NONE', *, *, #947, .F. ) ;
#716 = CARTESIAN_POINT ( 'NONE',  ( -27.61315471681863087, 1.294195046887959943, -32.59412820727735038 ) ) ;
#717 = AXIS2_PLACEMENT_3D ( 'NONE', #416, #940, #508 ) ;
#718 = DIRECTION ( 'NONE',  ( -0.08682659386424775028, -0.9924325091389669673, 0.08682659386424779191 ) ) ;
#719 = EDGE_CURVE ( 'NONE', #68, #205, #882, .T. ) ;
#720 = VECTOR ( 'NONE', #431, 1000.000000000000000 ) ;
#721 = ORIENTED_EDGE ( 'NONE', *, *, #897, .T. ) ;
#722 = ORIENTED_EDGE ( 'NONE', *, *, #41, .F. ) ;
#723 = CARTESIAN_POINT ( 'NONE',  ( 28.33668825982573836, 10.00000000000000000, -28.33668825982575612 ) ) ;
#724 = LINE ( 'NONE', #892, #131 ) ;
#725 = LINE ( 'NONE', #419, #214 ) ;
#726 = EDGE_LOOP ( 'NONE', ( #451, #721, #902, #102 ) ) ;
#727 = CARTESIAN_POINT ( 'NONE',  ( -28.33668825982576678, 10.00000000000000000, -28.33668825982575612 ) ) ;
#728 = FACE_OUTER_BOUND ( 'NONE', #621, .T. ) ;
#729 = EDGE_CURVE ( 'NONE', #205, #61, #311, .T. ) ;
#730 = ORIENTED_EDGE ( 'NONE', *, *, #252, .T. ) ;
#731 = DIRECTION ( 'NONE',  ( -3.469446951953614189E-16, -1.000000000000000000, 0.000000000000000000 ) ) ;
#732 = DIRECTION ( 'NONE',  ( -4.625929269271486900E-16, -0.000000000000000000, -1.000000000000000000 ) ) ;
#733 = AXIS2_PLACEMENT_3D ( 'NONE', #802, #894, #812 ) ;
#734 = DIRECTION ( 'NONE',  ( -0.9961946980917455452, -0.08715574274765836016, 3.686660969436542647E-16 ) ) ;
#735 = VECTOR ( 'NONE', #515, 1000.000000000000000 ) ;
#736 = EDGE_CURVE ( 'NONE', #935, #163, #112, .T. ) ;
#737 = ORIENTED_EDGE ( 'NONE', *, *, #478, .F. ) ;
#738 = CARTESIAN_POINT ( 'NONE',  ( 36.28691937167496917, 100.0000000000000142, 46.24886635259242240 ) ) ;
#739 = DIRECTION ( 'NONE',  ( 1.000000000000000000, -1.836970198721029688E-16, -0.000000000000000000 ) ) ;
#740 = ADVANCED_FACE ( 'NONE', ( #44 ), #476, .T. ) ;
#741 = ORIENTED_EDGE ( 'NONE', *, *, #152, .T. ) ;
#742 = DIRECTION ( 'NONE',  ( 0.08682659386424781967, -0.9924325091389670783, 0.08682659386424779191 ) ) ;
#743 = CARTESIAN_POINT ( 'NONE',  ( 37.49999999999997158, 0.000000000000000000, -37.49999999999999289 ) ) ;
#744 = LINE ( 'NONE', #379, #881 ) ;
#745 = ORIENTED_EDGE ( 'NONE', *, *, #197, .T. ) ;
#746 = LINE ( 'NONE', #257, #184 ) ;
#747 = CARTESIAN_POINT ( 'NONE',  ( 28.33668825982573836, 0.000000000000000000, -28.33668825982575612 ) ) ;
#748 = ADVANCED_FACE ( 'NONE', ( #403 ), #777, .F. ) ;
#749 = DIRECTION ( 'NONE',  ( -3.700743415417189125E-16, 0.000000000000000000, -1.000000000000000000 ) ) ;
#750 = VECTOR ( 'NONE', #224, 1000.000000000000000 ) ;
#751 = VECTOR ( 'NONE', #517, 1000.000000000000114 ) ;
#752 = VECTOR ( 'NONE', #605, 1000.000000000000114 ) ;
#753 = EDGE_LOOP ( 'NONE', ( #110, #626, #266, #396 ) ) ;
#754 = CARTESIAN_POINT ( 'NONE',  ( -28.33668825982574546, 9.564221286261709309, 33.31766175028449339 ) ) ;
#755 = DIRECTION ( 'NONE',  ( 0.000000000000000000, 0.000000000000000000, -1.000000000000000000 ) ) ;
#756 = FACE_OUTER_BOUND ( 'NONE', #753, .T. ) ;
#757 = CARTESIAN_POINT ( 'NONE',  ( 36.28691937167493364, 100.0000000000000142, -46.24886635259241530 ) ) ;
#758 = LINE ( 'NONE', #174, #78 ) ;
#759 = VERTEX_POINT ( 'NONE', #559 ) ;
#760 = CARTESIAN_POINT ( 'NONE',  ( -37.49999999999997868, 0.000000000000000000, 37.50000000000000000 ) ) ;
#761 = SURFACE_STYLE_FILL_AREA ( #675 ) ;
#762 = EDGE_LOOP ( 'NONE', ( #261, #816, #780 ) ) ;
#763 = CIRCLE ( 'NONE', #642, 9.999999999999998224 ) ;
#764 = ADVANCED_FACE ( 'NONE', ( #49 ), #694, .T. ) ;
#765 = VECTOR ( 'NONE', #564, 1000.000000000000000 ) ;
#766 = VERTEX_POINT ( 'NONE', #40 ) ;
#767 = DIRECTION ( 'NONE',  ( 0.08682659386424781967, -0.9924325091389670783, 0.08682659386424779191 ) ) ;
#768 = PRESENTATION_LAYER_ASSIGNMENT (  '', '', ( #704 ) ) ;
#769 =( GEOMETRIC_REPRESENTATION_CONTEXT ( 3 ) GLOBAL_UNCERTAINTY_ASSIGNED_CONTEXT ( ( #829 ) ) GLOBAL_UNIT_ASSIGNED_CONTEXT ( ( #608, #908, #838 ) ) REPRESENTATION_CONTEXT ( 'NONE', 'WORKASPACE' ) );
#770 = ORIENTED_EDGE ( 'NONE', *, *, #889, .F. ) ;
#771 = MANIFOLD_SOLID_BREP ( 'Shell1', #893 ) ;
#772 = ORIENTED_EDGE ( 'NONE', *, *, #302, .T. ) ;
#773 = DIRECTION ( 'NONE',  ( -0.000000000000000000, -0.000000000000000000, -1.000000000000000000 ) ) ;
#774 = DIRECTION ( 'NONE',  ( 1.000000000000000000, 0.000000000000000000, 0.000000000000000000 ) ) ;
#775 = EDGE_LOOP ( 'NONE', ( #405, #949, #770 ) ) ;
#776 = EDGE_LOOP ( 'NONE', ( #220, #841, #314, #469 ) ) ;
#777 = SPHERICAL_SURFACE ( 'NONE', #384, 5.000000000000000000 ) ;
#778 = PRODUCT_CONTEXT ( 'NONE', #35, 'mechanical' ) ;
#779 = DIRECTION ( 'NONE',  ( -0.08682659386424781967, 0.9924325091389669673, -0.08682659386424777803 ) ) ;
#780 = ORIENTED_EDGE ( 'NONE', *, *, #729, .F. ) ;
#781 = AXIS2_PLACEMENT_3D ( 'NONE', #156, #81, #731 ) ;
#782 = DIRECTION ( 'NONE',  ( 0.000000000000000000, 0.9961946980917455452, -0.08715574274765836016 ) ) ;
#783 = AXIS2_PLACEMENT_3D ( 'NONE', #212, #660, #512 ) ;
#784 = ORIENTED_EDGE ( 'NONE', *, *, #341, .F. ) ;
#785 = ORIENTED_EDGE ( 'NONE', *, *, #356, .F. ) ;
#786 = CARTESIAN_POINT ( 'NONE',  ( 37.49999999999997158, 9.128442572523418619, -38.29863524074321646 ) ) ;
#787 = FACE_OUTER_BOUND ( 'NONE', #494, .T. ) ;
#788 = ADVANCED_FACE ( 'NONE', ( #524 ), #134, .T. ) ;
#789 = EDGE_CURVE ( 'NONE', #435, #140, #585, .T. ) ;
#790 = CARTESIAN_POINT ( 'NONE',  ( 36.28691937167493364, 100.0000000000000142, -46.24886635259241530 ) ) ;
#791 = ADVANCED_FACE ( 'NONE', ( #876 ), #583, .F. ) ;
#792 = DIRECTION ( 'NONE',  ( 3.672632111414458267E-16, 3.213136750500440222E-17, 1.000000000000000000 ) ) ;
#793 = ORIENTED_EDGE ( 'NONE', *, *, #313, .T. ) ;
#794 = ADVANCED_FACE ( 'NONE', ( #231 ), #298, .T. ) ;
#795 = FACE_OUTER_BOUND ( 'NONE', #636, .T. ) ;
#796 = VECTOR ( 'NONE', #779, 1000.000000000000114 ) ;
#797 = FACE_OUTER_BOUND ( 'NONE', #726, .T. ) ;
#798 = CIRCLE ( 'NONE', #105, 10.00000000000000000 ) ;
#799 = DIRECTION ( 'NONE',  ( 0.08715574274765836016, 0.9961946980917455452, 0.000000000000000000 ) ) ;
#800 = LINE ( 'NONE', #137, #472 ) ;
#801 = DIRECTION ( 'NONE',  ( 0.000000000000000000, 1.000000000000000000, 0.000000000000000000 ) ) ;
#802 = CARTESIAN_POINT ( 'NONE',  ( -27.61315471681861311, 1.729973760626250412, 27.61315471681863087 ) ) ;
#803 = ORIENTED_EDGE ( 'NONE', *, *, #736, .F. ) ;
#804 = DIRECTION ( 'NONE',  ( 3.700743415417189125E-16, -0.000000000000000000, 1.000000000000000000 ) ) ;
#805 = CARTESIAN_POINT ( 'NONE',  ( -37.49999999999997868, 10.00000000000000000, 28.33668825982576323 ) ) ;
#806 = ADVANCED_BREP_SHAPE_REPRESENTATION ( 'rib3', ( #771, #913 ), #769 ) ;
#807 = DIRECTION ( 'NONE',  ( -3.482699675675339808E-16, -0.000000000000000000, -1.000000000000000000 ) ) ;
#808 = CARTESIAN_POINT ( 'NONE',  ( -36.28691937167496206, 100.0000000000000142, -46.24886635259241530 ) ) ;
#809 = CARTESIAN_POINT ( 'NONE',  ( 36.28691937167496917, 100.0000000000000142, 46.24886635259242240 ) ) ;
#810 = AXIS2_PLACEMENT_3D ( 'NONE', #593, #656, #824 ) ;
#811 = AXIS2_PLACEMENT_3D ( 'NONE', #537, #680, #397 ) ;
#812 = DIRECTION ( 'NONE',  ( 0.000000000000000000, 0.08715574274765836016, -0.9961946980917455452 ) ) ;
#813 = AXIS2_PLACEMENT_3D ( 'NONE', #506, #801, #74 ) ;
#814 = EDGE_CURVE ( 'NONE', #332, #201, #428, .T. ) ;
#815 = ORIENTED_EDGE ( 'NONE', *, *, #814, .T. ) ;
#816 = ORIENTED_EDGE ( 'NONE', *, *, #341, .T. ) ;
#817 = DIRECTION ( 'NONE',  ( 0.000000000000000000, 1.000000000000000000, 0.000000000000000000 ) ) ;
#818 = CARTESIAN_POINT ( 'NONE',  ( -37.49999999999997868, 0.4357787137382918563, 32.51902650954126983 ) ) ;
#819 = CYLINDRICAL_SURFACE ( 'NONE', #733, 5.000000000000000888 ) ;
#820 = ORIENTED_EDGE ( 'NONE', *, *, #869, .T. ) ;
#821 = DIRECTION ( 'NONE',  ( 0.000000000000000000, -0.08715574274765836016, -0.9961946980917455452 ) ) ;
#822 = ORIENTED_EDGE ( 'NONE', *, *, #421, .T. ) ;
#823 = EDGE_CURVE ( 'NONE', #652, #342, #222, .T. ) ;
#824 = DIRECTION ( 'NONE',  ( 1.000000000000000000, 0.000000000000000000, 0.000000000000000000 ) ) ;
#825 = EDGE_LOOP ( 'NONE', ( #603, #522, #784, #401 ) ) ;
#826 = VERTEX_POINT ( 'NONE', #2 ) ;
#827 = CARTESIAN_POINT ( 'NONE',  ( 28.33668825982576678, 10.00000000000000000, 28.33668825982576323 ) ) ;
#828 = DIRECTION ( 'NONE',  ( -0.08682659386424768089, -0.9924325091389671893, 0.08682659386424779191 ) ) ;
#829 = UNCERTAINTY_MEASURE_WITH_UNIT (LENGTH_MEASURE( 1.000000000000000082E-05 ), #608, 'distance_accuracy_value', 'NONE');
#830 = DIRECTION ( 'NONE',  ( 0.000000000000000000, 0.08715574274765838791, -0.9961946980917455452 ) ) ;
#831 = EDGE_LOOP ( 'NONE', ( #460, #599, #952, #877 ) ) ;
#832 = AXIS2_PLACEMENT_3D ( 'NONE', #467, #453, #529 ) ;
#833 = CARTESIAN_POINT ( 'NONE',  ( -28.33668825982574546, 10.00000000000000000, 28.33668825982576323 ) ) ;
#834 = DIRECTION ( 'NONE',  ( 1.000000000000000000, 0.000000000000000000, 0.000000000000000000 ) ) ;
#835 = DIRECTION ( 'NONE',  ( -3.700743415417189125E-16, 0.000000000000000000, -1.000000000000000000 ) ) ;
#836 = EDGE_LOOP ( 'NONE', ( #510, #625, #275, #446 ) ) ;
#837 = DIRECTION ( 'NONE',  ( 0.08682659386424780579, -0.9924325091389670783, 0.08682659386424784742 ) ) ;
#838 =( NAMED_UNIT ( * ) SI_UNIT ( $, .STERADIAN. ) SOLID_ANGLE_UNIT ( ) );
#839 = DIRECTION ( 'NONE',  ( 3.700743415417189125E-16, 1.842413955937560024E-33, 1.000000000000000000 ) ) ;
#840 = EDGE_CURVE ( 'NONE', #701, #489, #249, .T. ) ;
#841 = ORIENTED_EDGE ( 'NONE', *, *, #284, .T. ) ;
#842 = VERTEX_POINT ( 'NONE', #12 ) ;
#843 = DIRECTION ( 'NONE',  ( 0.000000000000000000, -0.08715574274765836016, 0.9961946980917455452 ) ) ;
#844 = LINE ( 'NONE', #322, #752 ) ;
#845 = ORIENTED_EDGE ( 'NONE', *, *, #123, .T. ) ;
#846 = AXIS2_PLACEMENT_3D ( 'NONE', #361, #345, #274 ) ;
#847 = VECTOR ( 'NONE', #276, 1000.000000000000000 ) ;
#848 = EDGE_LOOP ( 'NONE', ( #772, #52, #429, #730 ) ) ;
#849 = PRESENTATION_STYLE_ASSIGNMENT (( #553 ) ) ;
#850 = EDGE_CURVE ( 'NONE', #941, #766, #516, .T. ) ;
#851 = SPHERICAL_SURFACE ( 'NONE', #167, 10.00000000000000000 ) ;
#852 = ORIENTED_EDGE ( 'NONE', *, *, #444, .F. ) ;
#853 = ORIENTED_EDGE ( 'NONE', *, *, #789, .F. ) ;
#854 = DIRECTION ( 'NONE',  ( 0.000000000000000000, 1.000000000000000000, 0.000000000000000000 ) ) ;
#855 = EDGE_CURVE ( 'NONE', #420, #935, #77, .T. ) ;
#856 = CARTESIAN_POINT ( 'NONE',  ( 28.33668825982576678, 10.00000000000000000, 28.33668825982576323 ) ) ;
#857 = ADVANCED_FACE ( 'NONE', ( #797 ), #303, .F. ) ;
#858 = CARTESIAN_POINT ( 'NONE',  ( 28.33668825982573836, 9.564221286261709309, -33.31766175028448629 ) ) ;
#859 = ORIENTED_EDGE ( 'NONE', *, *, #947, .T. ) ;
#860 = CARTESIAN_POINT ( 'NONE',  ( -28.33668825982576678, 0.000000000000000000, -28.33668825982575612 ) ) ;
#861 = VERTEX_POINT ( 'NONE', #809 ) ;
#862 = ORIENTED_EDGE ( 'NONE', *, *, #365, .T. ) ;
#863 = CIRCLE ( 'NONE', #292, 5.000000000000000888 ) ;
#864 = VECTOR ( 'NONE', #304, 1000.000000000000114 ) ;
#865 = DIRECTION ( 'NONE',  ( -0.08682659386424781967, 0.9924325091389669673, -0.08682659386424779191 ) ) ;
#866 = AXIS2_PLACEMENT_3D ( 'NONE', #916, #834, #755 ) ;
#867 = ORIENTED_EDGE ( 'NONE', *, *, #678, .T. ) ;
#868 = ORIENTED_EDGE ( 'NONE', *, *, #498, .F. ) ;
#869 = EDGE_CURVE ( 'NONE', #509, #89, #724, .T. ) ;
#870 = ORIENTED_EDGE ( 'NONE', *, *, #873, .T. ) ;
#871 = CARTESIAN_POINT ( 'NONE',  ( -41.22976716487568183, 100.0000000000000142, -39.17115184300224229 ) ) ;
#872 = LINE ( 'NONE', #208, #928 ) ;
#873 = EDGE_CURVE ( 'NONE', #701, #435, #226, .T. ) ;
#874 = EDGE_LOOP ( 'NONE', ( #923, #672, #329 ) ) ;
#875 = CARTESIAN_POINT ( 'NONE',  ( -27.61315471681861311, 0.8584163331496666993, 37.57510169773608766 ) ) ;
#876 = FACE_OUTER_BOUND ( 'NONE', #920, .T. ) ;
#877 = ORIENTED_EDGE ( 'NONE', *, *, #302, .F. ) ;
#878 = ORIENTED_EDGE ( 'NONE', *, *, #87, .F. ) ;
#879 = DIRECTION ( 'NONE',  ( -1.000000000000000000, -0.000000000000000000, -0.000000000000000000 ) ) ;
#880 = ADVANCED_FACE ( 'NONE', ( #372 ), #355, .T. ) ;
#881 = VECTOR ( 'NONE', #14, 1000.000000000000114 ) ;
#882 = CIRCLE ( 'NONE', #400, 5.000000000000000888 ) ;
#883 = CARTESIAN_POINT ( 'NONE',  ( -37.50000000000000711, 0.000000000000000000, -37.49999999999999289 ) ) ;
#884 = DIRECTION ( 'NONE',  ( 0.9961946980917455452, -0.08715574274765836016, 0.000000000000000000 ) ) ;
#885 = DIRECTION ( 'NONE',  ( 0.08682659386424780579, -0.9924325091389669673, 0.08682659386424779191 ) ) ;
#886 = CARTESIAN_POINT ( 'NONE',  ( -36.28691937167494075, 100.0000000000000142, 46.24886635259242240 ) ) ;
#887 = DIRECTION ( 'NONE',  ( -1.000000000000000000, 0.000000000000000000, 0.000000000000000000 ) ) ;
#888 = CARTESIAN_POINT ( 'NONE',  ( 28.33668825982574191, 10.00000000000000000, -28.33668825982576323 ) ) ;
#889 = EDGE_CURVE ( 'NONE', #919, #826, #148, .T. ) ;
#890 = ADVANCED_FACE ( 'NONE', ( #376 ), #97, .F. ) ;
#891 = CARTESIAN_POINT ( 'NONE',  ( -33.31766175028447918, 9.564221286261709309, 28.33668825982577033 ) ) ;
#892 = CARTESIAN_POINT ( 'NONE',  ( 27.61315471681860600, 1.294195046887958389, -32.59412820727735038 ) ) ;
#893 = CLOSED_SHELL ( 'NONE', ( #133, #650, #168, #619, #637, #890, #740, #254, #794, #144, #788, #389, #880, #227, #764, #448, #551, #896, #57, #424, #94, #791, #260, #910, #135, #82, #748, #282, #378, #624, #565, #857, #663, #464, #648 ) ) ;
#894 = DIRECTION ( 'NONE',  ( 0.08682659386424776415, -0.9924325091389670783, -0.08682659386424779191 ) ) ;
#895 = AXIS2_PLACEMENT_3D ( 'NONE', #805, #286, #664 ) ;
#896 = ADVANCED_FACE ( 'NONE', ( #317 ), #258, .T. ) ;
#897 = EDGE_CURVE ( 'NONE', #697, #68, #28, .T. ) ;
#898 = ORIENTED_EDGE ( 'NONE', *, *, #695, .F. ) ;
#899 = FACE_OUTER_BOUND ( 'NONE', #547, .T. ) ;
#900 = DIRECTION ( 'NONE',  ( 0.000000000000000000, -0.000000000000000000, 1.000000000000000000 ) ) ;
#901 = LINE ( 'NONE', #88, #751 ) ;
#902 = ORIENTED_EDGE ( 'NONE', *, *, #719, .T. ) ;
#903 = FACE_BOUND ( 'NONE', #653, .T. ) ;
#904 = FACE_OUTER_BOUND ( 'NONE', #445, .T. ) ;
#905 = DIRECTION ( 'NONE',  ( 0.08682659386424776415, -0.9924325091389670783, -0.08682659386424779191 ) ) ;
#906 = PRODUCT_DEFINITION ( 'UNKNOWN', '', #171, #561 ) ;
#907 = APPLICATION_CONTEXT ( 'automotive_design' ) ;
#908 =( NAMED_UNIT ( * ) PLANE_ANGLE_UNIT ( ) SI_UNIT ( $, .RADIAN. ) );
#909 = CARTESIAN_POINT ( 'NONE',  ( 39.17115184300221387, 100.0000000000000284, -41.22976716487568183 ) ) ;
#910 = ADVANCED_FACE ( 'NONE', ( #904 ), #388, .F. ) ;
#911 = AXIS2_PLACEMENT_3D ( 'NONE', #477, #289, #582 ) ;
#912 = VECTOR ( 'NONE', #70, 1000.000000000000000 ) ;
#913 = AXIS2_PLACEMENT_3D ( 'NONE', #331, #482, #269 ) ;
#914 = ORIENTED_EDGE ( 'NONE', *, *, #166, .T. ) ;
#915 = DIRECTION ( 'NONE',  ( -4.625929269271486900E-16, 0.000000000000000000, -1.000000000000000000 ) ) ;
#916 = CARTESIAN_POINT ( 'NONE',  ( 37.49999999999997158, 10.00000000000000000, -28.33668825982575612 ) ) ;
#917 = EDGE_CURVE ( 'NONE', #435, #342, #844, .T. ) ;
#918 = LINE ( 'NONE', #463, #62 ) ;
#919 = VERTEX_POINT ( 'NONE', #242 ) ;
#920 = EDGE_LOOP ( 'NONE', ( #679, #180, #272, #700 ) ) ;
#921 = DIRECTION ( 'NONE',  ( 0.08682659386424768089, -0.9924325091389671893, -0.08682659386424779191 ) ) ;
#922 = ORIENTED_EDGE ( 'NONE', *, *, #321, .T. ) ;
#923 = ORIENTED_EDGE ( 'NONE', *, *, #930, .F. ) ;
#924 = SURFACE_STYLE_FILL_AREA ( #330 ) ;
#925 = FACE_OUTER_BOUND ( 'NONE', #762, .T. ) ;
#926 = ORIENTED_EDGE ( 'NONE', *, *, #179, .F. ) ;
#927 = EDGE_CURVE ( 'NONE', #358, #177, #440, .T. ) ;
#928 = VECTOR ( 'NONE', #432, 1000.000000000000114 ) ;
#929 = AXIS2_PLACEMENT_3D ( 'NONE', #568, #407, #270 ) ;
#930 = EDGE_CURVE ( 'NONE', #697, #701, #339, .T. ) ;
#931 = ORIENTED_EDGE ( 'NONE', *, *, #789, .T. ) ;
#932 = CARTESIAN_POINT ( 'NONE',  ( 28.33668825982576678, 10.00000000000000000, 28.33668825982576323 ) ) ;
#933 = VECTOR ( 'NONE', #915, 1000.000000000000000 ) ;
#934 = CYLINDRICAL_SURFACE ( 'NONE', #929, 4.999999999999997335 ) ;
#935 = VERTEX_POINT ( 'NONE', #747 ) ;
#936 = EDGE_LOOP ( 'NONE', ( #362, #496, #185, #115 ) ) ;
#937 = ORIENTED_EDGE ( 'NONE', *, *, #535, .T. ) ;
#938 = FILL_AREA_STYLE_COLOUR ( '', #571 ) ;
#939 = DIRECTION ( 'NONE',  ( 0.000000000000000000, 0.000000000000000000, -1.000000000000000000 ) ) ;
#940 = DIRECTION ( 'NONE',  ( -3.482699675675336356E-16, -0.000000000000000000, -1.000000000000000000 ) ) ;
#941 = VERTEX_POINT ( 'NONE', #457 ) ;
#942 = CARTESIAN_POINT ( 'NONE',  ( 37.49999999999997158, 0.4357787137382918563, -32.51902650954126273 ) ) ;
#943 = PLANE ( 'NONE',  #655 ) ;
#944 = AXIS2_PLACEMENT_3D ( 'NONE', #423, #136, #714 ) ;
#945 = AXIS2_PLACEMENT_3D ( 'NONE', #9, #588, #884 ) ;
#946 = CARTESIAN_POINT ( 'NONE',  ( -41.22976716487568893, 100.0000000000000142, -36.24879367441694455 ) ) ;
#947 = EDGE_CURVE ( 'NONE', #342, #941, #67, .T. ) ;
#948 = CARTESIAN_POINT ( 'NONE',  ( -37.49999999999997868, 10.00000000000000000, 28.33668825982576323 ) ) ;
#949 = ORIENTED_EDGE ( 'NONE', *, *, #706, .T. ) ;
#950 = CARTESIAN_POINT ( 'NONE',  ( -46.24886635259239398, 100.0000000000000142, 42.13163570884553621 ) ) ;
#951 = CARTESIAN_POINT ( 'NONE',  ( -28.33668825982576323, 5.000000000000000000, -28.33668825982575612 ) ) ;
#952 = ORIENTED_EDGE ( 'NONE', *, *, #123, .F. ) ;
ENDSEC;
END-ISO-10303-21;
