ISO-10303-21;
HEADER;
FILE_DESCRIPTION (( 'STEP AP214' ),
    '1' );
FILE_NAME ('rib2.STEP',
    '2023-04-17T22:11:36',
    ( '' ),
    ( '' ),
    'SwSTEP 2.0',
    'SolidWorks 2021',
    '' );
FILE_SCHEMA (( 'AUTOMOTIVE_DESIGN' ));
ENDSEC;

DATA;
#1 = EDGE_LOOP ( 'NONE', ( #401, #142, #375, #570 ) ) ;
#2 = CIRCLE ( 'NONE', #45, 1.462488663525924215 ) ;
#3 = CIRCLE ( 'NONE', #213, 1.375000000000000000 ) ;
#4 = DIRECTION ( 'NONE',  ( 0.000000000000000000, 1.000000000000000000, 0.000000000000000000 ) ) ;
#5 = ORIENTED_EDGE ( 'NONE', *, *, #179, .F. ) ;
#6 = FACE_OUTER_BOUND ( 'NONE', #202, .T. ) ;
#7 = VERTEX_POINT ( 'NONE', #575 ) ;
#8 = SURFACE_SIDE_STYLE ('',( #146 ) ) ;
#9 = CARTESIAN_POINT ( 'NONE',  ( 0.5000000000000000000, 1.500000000000000222, -3.500000000000000000 ) ) ;
#10 = EDGE_LOOP ( 'NONE', ( #247, #565, #118, #49 ) ) ;
#11 = CIRCLE ( 'NONE', #89, 0.3124999999999989453 ) ;
#12 = CARTESIAN_POINT ( 'NONE',  ( 4.314331327829449848E-18, 1.500000000000000222, 0.000000000000000000 ) ) ;
#13 = CARTESIAN_POINT ( 'NONE',  ( 5.875000000000000000, 0.000000000000000000, -0.3125000000000007772 ) ) ;
#14 = EDGE_CURVE ( 'NONE', #199, #513, #407, .T. ) ;
#15 = EDGE_LOOP ( 'NONE', ( #165, #145, #250, #30 ) ) ;
#16 = CARTESIAN_POINT ( 'NONE',  ( 4.314331327829449848E-18, 1.500000000000000222, -3.500000000000000000 ) ) ;
#17 = PLANE ( 'NONE',  #23 ) ;
#18 = LINE ( 'NONE', #55, #101 ) ;
#19 = CARTESIAN_POINT ( 'NONE',  ( 0.5000000000000000000, 1.500000000000000222, -3.500000000000000000 ) ) ;
#20 = EDGE_LOOP ( 'NONE', ( #252, #191 ) ) ;
#21 = AXIS2_PLACEMENT_3D ( 'NONE', #296, #77, #125 ) ;
#22 = CARTESIAN_POINT ( 'NONE',  ( 3.250000000000000444, 0.000000000000000000, -1.750000000000002887 ) ) ;
#23 = AXIS2_PLACEMENT_3D ( 'NONE', #110, #65, #381 ) ;
#24 = CARTESIAN_POINT ( 'NONE',  ( 5.875000000000000000, 0.5000000000000000000, -2.875000000000000000 ) ) ;
#25 = ORIENTED_EDGE ( 'NONE', *, *, #94, .F. ) ;
#26 = CARTESIAN_POINT ( 'NONE',  ( 4.314331327829449848E-18, 1.500000000000000222, -3.500000000000000000 ) ) ;
#27 = ORIENTED_EDGE ( 'NONE', *, *, #533, .T. ) ;
#28 = LINE ( 'NONE', #36, #181 ) ;
#29 = LENGTH_MEASURE_WITH_UNIT ( LENGTH_MEASURE( 0.02539999999999999897 ), #164 );
#30 = ORIENTED_EDGE ( 'NONE', *, *, #548, .T. ) ;
#31 = CARTESIAN_POINT ( 'NONE',  ( 0.000000000000000000, 0.000000000000000000, -3.500000000000000000 ) ) ;
#32 = AXIS2_PLACEMENT_3D ( 'NONE', #34, #564, #569 ) ;
#33 = AXIS2_PLACEMENT_3D ( 'NONE', #541, #4, #139 ) ;
#34 = CARTESIAN_POINT ( 'NONE',  ( 3.250000000000000444, 0.000000000000000000, -1.750000000000002887 ) ) ;
#35 = ORIENTED_EDGE ( 'NONE', *, *, #308, .F. ) ;
#36 = CARTESIAN_POINT ( 'NONE',  ( 4.314331327829449848E-18, 1.500000000000000222, 0.000000000000000000 ) ) ;
#37 = DIRECTION ( 'NONE',  ( 0.000000000000000000, 1.000000000000000000, 0.000000000000000000 ) ) ;
#38 = APPLICATION_PROTOCOL_DEFINITION ( 'draft international standard', 'automotive_design', 1998, #204 ) ;
#39 = LINE ( 'NONE', #292, #222 ) ;
#40 = EDGE_CURVE ( 'NONE', #199, #343, #399, .T. ) ;
#41 = EDGE_CURVE ( 'NONE', #573, #159, #555, .T. ) ;
#42 = VECTOR ( 'NONE', #453, 39.37007874015748143 ) ;
#43 = FACE_OUTER_BOUND ( 'NONE', #112, .T. ) ;
#44 = DIRECTION ( 'NONE',  ( 0.000000000000000000, 0.000000000000000000, 1.000000000000000000 ) ) ;
#45 = AXIS2_PLACEMENT_3D ( 'NONE', #50, #228, #272 ) ;
#46 = CIRCLE ( 'NONE', #33, 0.3124999999999989453 ) ;
#47 = ORIENTED_EDGE ( 'NONE', *, *, #403, .T. ) ;
#48 = CARTESIAN_POINT ( 'NONE',  ( 3.250000000000000444, 1.500000000000000222, -1.750000000000002887 ) ) ;
#49 = ORIENTED_EDGE ( 'NONE', *, *, #180, .T. ) ;
#50 = CARTESIAN_POINT ( 'NONE',  ( 3.250000000000000444, 0.5000000000000000000, -1.750000000000002887 ) ) ;
#51 = PLANE ( 'NONE',  #568 ) ;
#52 = ADVANCED_FACE ( 'NONE', ( #187 ), #269, .T. ) ;
#53 = EDGE_LOOP ( 'NONE', ( #271, #561, #522, #156 ) ) ;
#54 = EDGE_CURVE ( 'NONE', #500, #415, #262, .T. ) ;
#55 = CARTESIAN_POINT ( 'NONE',  ( 0.000000000000000000, 0.000000000000000000, 0.000000000000000000 ) ) ;
#56 = DIRECTION ( 'NONE',  ( 0.000000000000000000, 0.000000000000000000, 1.000000000000000000 ) ) ;
#57 = ORIENTED_EDGE ( 'NONE', *, *, #94, .T. ) ;
#58 = FILL_AREA_STYLE_COLOUR ( '', #410 ) ;
#59 = CARTESIAN_POINT ( 'NONE',  ( 5.875000000000000000, 0.000000000000000000, -0.9374999999999992228 ) ) ;
#60 = ORIENTED_EDGE ( 'NONE', *, *, #470, .T. ) ;
#61 = UNCERTAINTY_MEASURE_WITH_UNIT (LENGTH_MEASURE( 1.000000000000000082E-05 ), #579, 'distance_accuracy_value', 'NONE');
#62 =( LENGTH_UNIT ( ) NAMED_UNIT ( * ) SI_UNIT ( $, .METRE. ) );
#63 = DIRECTION ( 'NONE',  ( 0.000000000000000000, -0.9961946980917454342, 0.08715574274765820750 ) ) ;
#64 = ORIENTED_EDGE ( 'NONE', *, *, #488, .F. ) ;
#65 = DIRECTION ( 'NONE',  ( 0.000000000000000000, -1.000000000000000000, 0.000000000000000000 ) ) ;
#66 = ORIENTED_EDGE ( 'NONE', *, *, #350, .F. ) ;
#67 = CIRCLE ( 'NONE', #441, 0.3124999999999992784 ) ;
#68 = CARTESIAN_POINT ( 'NONE',  ( 6.500000000000000000, 0.5000000000000000000, -3.500000000000000000 ) ) ;
#69 = DIRECTION ( 'NONE',  ( 0.000000000000000000, -0.000000000000000000, -1.000000000000000000 ) ) ;
#70 = ORIENTED_EDGE ( 'NONE', *, *, #265, .F. ) ;
#71 = CARTESIAN_POINT ( 'NONE',  ( 4.314331327829449848E-18, 1.500000000000000222, -3.500000000000000000 ) ) ;
#72 = ORIENTED_EDGE ( 'NONE', *, *, #259, .T. ) ;
#73 = ADVANCED_FACE ( 'NONE', ( #43 ), #217, .F. ) ;
#74 = DIRECTION ( 'NONE',  ( 0.000000000000000000, 0.000000000000000000, 1.000000000000000000 ) ) ;
#75 = ADVANCED_FACE ( 'NONE', ( #402 ), #273, .F. ) ;
#76 = ORIENTED_EDGE ( 'NONE', *, *, #383, .T. ) ;
#77 = DIRECTION ( 'NONE',  ( 0.000000000000000000, 0.000000000000000000, -1.000000000000000000 ) ) ;
#78 = VECTOR ( 'NONE', #511, 39.37007874015748143 ) ;
#79 = CARTESIAN_POINT ( 'NONE',  ( 3.250000000000000444, 0.5000000000000000000, -0.2875113364740788935 ) ) ;
#80 = FACE_OUTER_BOUND ( 'NONE', #466, .T. ) ;
#81 = ORIENTED_EDGE ( 'NONE', *, *, #533, .F. ) ;
#82 = EDGE_CURVE ( 'NONE', #549, #90, #3, .T. ) ;
#83 = VECTOR ( 'NONE', #206, 39.37007874015748143 ) ;
#84 = DIRECTION ( 'NONE',  ( 1.000000000000000000, 0.000000000000000000, 0.000000000000000000 ) ) ;
#85 = PRODUCT ( 'rib2', 'rib2', '', ( #226 ) ) ;
#86 = CARTESIAN_POINT ( 'NONE',  ( 3.250000000000000444, 1.500000000000000222, -3.125000000000002665 ) ) ;
#87 = COLOUR_RGB ( '',0.5019607843137254832, 0.5019607843137254832, 1.000000000000000000 ) ;
#88 = DIRECTION ( 'NONE',  ( -0.000000000000000000, -1.000000000000000000, -0.000000000000000000 ) ) ;
#89 = AXIS2_PLACEMENT_3D ( 'NONE', #286, #465, #468 ) ;
#90 = VERTEX_POINT ( 'NONE', #86 ) ;
#91 = PLANE ( 'NONE',  #166 ) ;
#92 = DIRECTION ( 'NONE',  ( -0.000000000000000000, 1.000000000000000000, -0.000000000000000000 ) ) ;
#93 = ADVANCED_FACE ( 'NONE', ( #6 ), #185, .F. ) ;
#94 = EDGE_CURVE ( 'NONE', #390, #355, #153, .T. ) ;
#95 = ORIENTED_EDGE ( 'NONE', *, *, #307, .F. ) ;
#96 = DIRECTION ( 'NONE',  ( 0.000000000000000000, 0.000000000000000000, 1.000000000000000000 ) ) ;
#97 = DIRECTION ( 'NONE',  ( 0.000000000000000000, -0.000000000000000000, 1.000000000000000000 ) ) ;
#98 = EDGE_LOOP ( 'NONE', ( #426, #221, #121, #510 ) ) ;
#99 = CARTESIAN_POINT ( 'NONE',  ( 5.875000000000000000, 0.5000000000000000000, -0.6250000000000000000 ) ) ;
#100 = CARTESIAN_POINT ( 'NONE',  ( 3.250000000000000444, 1.500000000000000222, -3.125000000000002665 ) ) ;
#101 = VECTOR ( 'NONE', #507, 39.37007874015748143 ) ;
#102 = ORIENTED_EDGE ( 'NONE', *, *, #447, .F. ) ;
#103 = PRESENTATION_STYLE_ASSIGNMENT (( #231 ) ) ;
#104 = DIRECTION ( 'NONE',  ( 0.000000000000000000, 1.000000000000000000, 0.000000000000000000 ) ) ;
#105 = VERTEX_POINT ( 'NONE', #128 ) ;
#106 = LINE ( 'NONE', #12, #309 ) ;
#107 = CARTESIAN_POINT ( 'NONE',  ( 6.500000000000000000, 0.000000000000000000, -3.500000000000000000 ) ) ;
#108 = ORIENTED_EDGE ( 'NONE', *, *, #578, .F. ) ;
#109 = DIRECTION ( 'NONE',  ( 0.000000000000000000, -0.000000000000000000, -1.000000000000000000 ) ) ;
#110 = CARTESIAN_POINT ( 'NONE',  ( 0.000000000000000000, 0.5000000000000000000, -3.500000000000000000 ) ) ;
#111 = PRODUCT_DEFINITION_FORMATION_WITH_SPECIFIED_SOURCE ( 'ANY', '', #85, .NOT_KNOWN. ) ;
#112 = EDGE_LOOP ( 'NONE', ( #493, #102, #81, #60 ) ) ;
#113 =( GEOMETRIC_REPRESENTATION_CONTEXT ( 3 ) GLOBAL_UNCERTAINTY_ASSIGNED_CONTEXT ( ( #463 ) ) GLOBAL_UNIT_ASSIGNED_CONTEXT ( ( #554, #562, #388 ) ) REPRESENTATION_CONTEXT ( 'NONE', 'WORKASPACE' ) );
#114 = CARTESIAN_POINT ( 'NONE',  ( 5.875000000000000000, 0.000000000000000000, -2.875000000000000000 ) ) ;
#115 = CARTESIAN_POINT ( 'NONE',  ( 5.875000000000000000, 0.000000000000000000, -3.187499999999998668 ) ) ;
#116 = CARTESIAN_POINT ( 'NONE',  ( 5.875000000000000000, 0.000000000000000000, -0.6250000000000000000 ) ) ;
#117 = EDGE_CURVE ( 'NONE', #105, #436, #46, .T. ) ;
#118 = ORIENTED_EDGE ( 'NONE', *, *, #486, .F. ) ;
#119 = ADVANCED_FACE ( 'NONE', ( #496 ), #51, .F. ) ;
#120 = CARTESIAN_POINT ( 'NONE',  ( 6.500000000000000000, 0.000000000000000000, -3.500000000000000000 ) ) ;
#121 = ORIENTED_EDGE ( 'NONE', *, *, #179, .T. ) ;
#122 = FACE_OUTER_BOUND ( 'NONE', #475, .T. ) ;
#123 = FACE_OUTER_BOUND ( 'NONE', #215, .T. ) ;
#124 = VERTEX_POINT ( 'NONE', #79 ) ;
#125 = DIRECTION ( 'NONE',  ( -1.000000000000000000, 0.000000000000000000, -0.000000000000000000 ) ) ;
#126 = VECTOR ( 'NONE', #380, 39.37007874015748143 ) ;
#127 = AXIS2_PLACEMENT_3D ( 'NONE', #311, #88, #446 ) ;
#128 = CARTESIAN_POINT ( 'NONE',  ( 5.875000000000000000, 0.000000000000000000, -2.562500000000000888 ) ) ;
#129 = LENGTH_MEASURE_WITH_UNIT ( LENGTH_MEASURE( 0.02539999999999999897 ), #394 );
#130 = CARTESIAN_POINT ( 'NONE',  ( 0.000000000000000000, 0.000000000000000000, 0.000000000000000000 ) ) ;
#131 = AXIS2_PLACEMENT_3D ( 'NONE', #22, #540, #154 ) ;
#132 = AXIS2_PLACEMENT_3D ( 'NONE', #538, #182, #438 ) ;
#133 = DIRECTION ( 'NONE',  ( 0.000000000000000000, 0.000000000000000000, 1.000000000000000000 ) ) ;
#134 = SHAPE_DEFINITION_REPRESENTATION ( #537, #456 ) ;
#135 = DIMENSIONAL_EXPONENTS ( 1.000000000000000000, 0.000000000000000000, 0.000000000000000000, 0.000000000000000000, 0.000000000000000000, 0.000000000000000000, 0.000000000000000000 ) ;
#136 = DIRECTION ( 'NONE',  ( 0.000000000000000000, 0.000000000000000000, 1.000000000000000000 ) ) ;
#137 = DIRECTION ( 'NONE',  ( -0.000000000000000000, 1.000000000000000000, -0.000000000000000000 ) ) ;
#138 = EDGE_CURVE ( 'NONE', #90, #7, #509, .T. ) ;
#139 = DIRECTION ( 'NONE',  ( 0.000000000000000000, 0.000000000000000000, 1.000000000000000000 ) ) ;
#140 = ADVANCED_FACE ( 'NONE', ( #502, #425, #414, #150 ), #17, .F. ) ;
#141 = CIRCLE ( 'NONE', #212, 1.062500000000000000 ) ;
#142 = ORIENTED_EDGE ( 'NONE', *, *, #82, .F. ) ;
#143 = FACE_OUTER_BOUND ( 'NONE', #172, .T. ) ;
#144 = FACE_OUTER_BOUND ( 'NONE', #230, .T. ) ;
#145 = ORIENTED_EDGE ( 'NONE', *, *, #470, .F. ) ;
#146 = SURFACE_STYLE_FILL_AREA ( #149 ) ;
#147 = CARTESIAN_POINT ( 'NONE',  ( 5.875000000000000000, 0.000000000000000000, -2.562500000000000888 ) ) ;
#148 = ORIENTED_EDGE ( 'NONE', *, *, #442, .F. ) ;
#149 = FILL_AREA_STYLE ('',( #58 ) ) ;
#150 = FACE_OUTER_BOUND ( 'NONE', #15, .T. ) ;
#151 = AXIS2_PLACEMENT_3D ( 'NONE', #378, #104, #56 ) ;
#152 = EDGE_LOOP ( 'NONE', ( #148, #95, #557, #419 ) ) ;
#153 = CIRCLE ( 'NONE', #303, 1.062500000000000000 ) ;
#154 = DIRECTION ( 'NONE',  ( 0.000000000000000000, 0.000000000000000000, 1.000000000000000000 ) ) ;
#155 = PLANE ( 'NONE',  #336 ) ;
#156 = ORIENTED_EDGE ( 'NONE', *, *, #447, .T. ) ;
#157 = CARTESIAN_POINT ( 'NONE',  ( 5.875000000000000000, 0.5000000000000000000, -0.9374999999999992228 ) ) ;
#158 = FACE_OUTER_BOUND ( 'NONE', #53, .T. ) ;
#159 = VERTEX_POINT ( 'NONE', #193 ) ;
#160 = CARTESIAN_POINT ( 'NONE',  ( 0.5000000000000000000, 0.5000000000000000000, 0.000000000000000000 ) ) ;
#161 = ADVANCED_FACE ( 'NONE', ( #276, #144 ), #324, .T. ) ;
#162 = LINE ( 'NONE', #115, #167 ) ;
#163 = ADVANCED_FACE ( 'NONE', ( #240 ), #494, .T. ) ;
#164 =( LENGTH_UNIT ( ) NAMED_UNIT ( * ) SI_UNIT ( $, .METRE. ) );
#165 = ORIENTED_EDGE ( 'NONE', *, *, #237, .T. ) ;
#166 = AXIS2_PLACEMENT_3D ( 'NONE', #189, #464, #452 ) ;
#167 = VECTOR ( 'NONE', #563, 39.37007874015748143 ) ;
#168 = CARTESIAN_POINT ( 'NONE',  ( 0.5000000000000000000, 1.500000000000000222, 0.000000000000000000 ) ) ;
#169 = ORIENTED_EDGE ( 'NONE', *, *, #405, .T. ) ;
#170 = CARTESIAN_POINT ( 'NONE',  ( 5.875000000000000000, 0.000000000000000000, -3.187499999999998668 ) ) ;
#171 = DIRECTION ( 'NONE',  ( 0.000000000000000000, 0.000000000000000000, 1.000000000000000000 ) ) ;
#172 = EDGE_LOOP ( 'NONE', ( #184, #330, #412, #64, #287, #354 ) ) ;
#173 = PLANE ( 'NONE',  #469 ) ;
#174 = PRESENTATION_LAYER_ASSIGNMENT (  '', '', ( #418 ) ) ;
#175 = DIRECTION ( 'NONE',  ( 0.000000000000000000, 0.000000000000000000, 1.000000000000000000 ) ) ;
#176 = FILL_AREA_STYLE ('',( #351 ) ) ;
#177 = AXIS2_PLACEMENT_3D ( 'NONE', #321, #281, #512 ) ;
#178 =( NAMED_UNIT ( * ) SI_UNIT ( $, .STERADIAN. ) SOLID_ANGLE_UNIT ( ) );
#179 = EDGE_CURVE ( 'NONE', #105, #460, #551, .T. ) ;
#180 = EDGE_CURVE ( 'NONE', #227, #527, #546, .T. ) ;
#181 = VECTOR ( 'NONE', #216, 39.37007874015748143 ) ;
#182 = DIRECTION ( 'NONE',  ( 0.000000000000000000, 1.000000000000000000, 0.000000000000000000 ) ) ;
#183 = ORIENTED_EDGE ( 'NONE', *, *, #364, .T. ) ;
#184 = ORIENTED_EDGE ( 'NONE', *, *, #319, .T. ) ;
#185 = CYLINDRICAL_SURFACE ( 'NONE', #445, 0.3124999999999992784 ) ;
#186 = DIRECTION ( 'NONE',  ( 0.000000000000000000, 0.000000000000000000, 1.000000000000000000 ) ) ;
#187 = FACE_OUTER_BOUND ( 'NONE', #1, .T. ) ;
#188 = ORIENTED_EDGE ( 'NONE', *, *, #220, .F. ) ;
#189 = CARTESIAN_POINT ( 'NONE',  ( 6.500000000000000000, 0.000000000000000000, 0.000000000000000000 ) ) ;
#190 = CARTESIAN_POINT ( 'NONE',  ( 3.250000000000000444, 1.500000000000000222, -1.750000000000002887 ) ) ;
#191 = ORIENTED_EDGE ( 'NONE', *, *, #515, .F. ) ;
#192 = CARTESIAN_POINT ( 'NONE',  ( 5.875000000000000000, 0.5000000000000000000, -3.187499999999998668 ) ) ;
#193 = CARTESIAN_POINT ( 'NONE',  ( 3.250000000000000444, 0.000000000000000000, -0.6875000000000029976 ) ) ;
#194 = ORIENTED_EDGE ( 'NONE', *, *, #383, .F. ) ;
#195 = LINE ( 'NONE', #313, #78 ) ;
#196 = CIRCLE ( 'NONE', #345, 0.3124999999999992784 ) ;
#197 = LINE ( 'NONE', #232, #83 ) ;
#198 = AXIS2_PLACEMENT_3D ( 'NONE', #344, #338, #525 ) ;
#199 = VERTEX_POINT ( 'NONE', #59 ) ;
#200 = DIRECTION ( 'NONE',  ( -1.000000000000000000, 2.876220885219632719E-18, 0.000000000000000000 ) ) ;
#201 = DIRECTION ( 'NONE',  ( 0.000000000000000000, 1.000000000000000000, 0.000000000000000000 ) ) ;
#202 = EDGE_LOOP ( 'NONE', ( #455, #108, #241, #368 ) ) ;
#203 = EDGE_CURVE ( 'NONE', #124, #7, #422, .T. ) ;
#204 = APPLICATION_CONTEXT ( 'automotive_design' ) ;
#205 = EDGE_CURVE ( 'NONE', #343, #404, #373, .T. ) ;
#206 = DIRECTION ( 'NONE',  ( 1.000000000000000000, 0.000000000000000000, 0.000000000000000000 ) ) ;
#207 = DIRECTION ( 'NONE',  ( 0.000000000000000000, 0.000000000000000000, 1.000000000000000000 ) ) ;
#208 = ORIENTED_EDGE ( 'NONE', *, *, #14, .T. ) ;
#209 = CYLINDRICAL_SURFACE ( 'NONE', #481, 0.3124999999999989453 ) ;
#210 =( CONVERSION_BASED_UNIT ( 'INCH', #29 ) LENGTH_UNIT ( ) NAMED_UNIT ( #503 ) );
#211 = VERTEX_POINT ( 'NONE', #417 ) ;
#212 = AXIS2_PLACEMENT_3D ( 'NONE', #323, #285, #96 ) ;
#213 = AXIS2_PLACEMENT_3D ( 'NONE', #48, #37, #223 ) ;
#214 = FACE_OUTER_BOUND ( 'NONE', #98, .T. ) ;
#215 = EDGE_LOOP ( 'NONE', ( #443, #208, #76, #270 ) ) ;
#216 = DIRECTION ( 'NONE',  ( -2.876220885219632719E-18, -1.000000000000000000, 0.000000000000000000 ) ) ;
#217 = PLANE ( 'NONE',  #386 ) ;
#218 =( NAMED_UNIT ( * ) SI_UNIT ( $, .STERADIAN. ) SOLID_ANGLE_UNIT ( ) );
#219 = EDGE_CURVE ( 'NONE', #404, #513, #256, .T. ) ;
#220 = EDGE_CURVE ( 'NONE', #549, #124, #461, .T. ) ;
#221 = ORIENTED_EDGE ( 'NONE', *, *, #117, .F. ) ;
#222 = VECTOR ( 'NONE', #473, 39.37007874015748143 ) ;
#223 = DIRECTION ( 'NONE',  ( 0.000000000000000000, 0.000000000000000000, 1.000000000000000000 ) ) ;
#224 = ORIENTED_EDGE ( 'NONE', *, *, #259, .F. ) ;
#225 = CARTESIAN_POINT ( 'NONE',  ( 3.250000000000000444, 0.000000000000000000, -1.750000000000002887 ) ) ;
#226 = PRODUCT_CONTEXT ( 'NONE', #204, 'mechanical' ) ;
#227 = VERTEX_POINT ( 'NONE', #19 ) ;
#228 = DIRECTION ( 'NONE',  ( -0.000000000000000000, 1.000000000000000000, -0.000000000000000000 ) ) ;
#229 = CARTESIAN_POINT ( 'NONE',  ( 4.314331327829449848E-18, 1.500000000000000222, -3.500000000000000000 ) ) ;
#230 = EDGE_LOOP ( 'NONE', ( #400, #371 ) ) ;
#231 = SURFACE_STYLE_USAGE ( .BOTH. , #8 ) ;
#232 = CARTESIAN_POINT ( 'NONE',  ( 0.000000000000000000, 0.5000000000000000000, 0.000000000000000000 ) ) ;
#233 = DIMENSIONAL_EXPONENTS ( 1.000000000000000000, 0.000000000000000000, 0.000000000000000000, 0.000000000000000000, 0.000000000000000000, 0.000000000000000000, 0.000000000000000000 ) ;
#234 = VECTOR ( 'NONE', #304, 39.37007874015748143 ) ;
#235 = ORIENTED_EDGE ( 'NONE', *, *, #578, .T. ) ;
#236 = CARTESIAN_POINT ( 'NONE',  ( 6.500000000000000000, 0.5000000000000000000, 0.000000000000000000 ) ) ;
#237 = EDGE_CURVE ( 'NONE', #431, #327, #197, .T. ) ;
#238 = DIRECTION ( 'NONE',  ( -1.067350013832297669E-17, -0.9961946980917454342, -0.08715574274765820750 ) ) ;
#239 = ORIENTED_EDGE ( 'NONE', *, *, #308, .T. ) ;
#240 = FACE_OUTER_BOUND ( 'NONE', #359, .T. ) ;
#241 = ORIENTED_EDGE ( 'NONE', *, *, #205, .T. ) ;
#242 = PRODUCT_DEFINITION_CONTEXT ( 'detailed design', #398, 'design' ) ;
#243 = DIRECTION ( 'NONE',  ( -2.876220885219632719E-18, -1.000000000000000000, 0.000000000000000000 ) ) ;
#244 = FACE_BOUND ( 'NONE', #504, .T. ) ;
#245 = ADVANCED_FACE ( 'NONE', ( #244, #516, #556, #158 ), #155, .T. ) ;
#246 = AXIS2_PLACEMENT_3D ( 'NONE', #520, #200, #243 ) ;
#247 = ORIENTED_EDGE ( 'NONE', *, *, #488, .T. ) ;
#248 = CARTESIAN_POINT ( 'NONE',  ( 0.5000000000000000000, 1.500000000000000222, 0.000000000000000000 ) ) ;
#249 = DIRECTION ( 'NONE',  ( 1.000000000000000000, 0.000000000000000000, 0.000000000000000000 ) ) ;
#250 = ORIENTED_EDGE ( 'NONE', *, *, #318, .F. ) ;
#251 = DIRECTION ( 'NONE',  ( -0.000000000000000000, 1.000000000000000000, -0.000000000000000000 ) ) ;
#252 = ORIENTED_EDGE ( 'NONE', *, *, #264, .F. ) ;
#253 = LINE ( 'NONE', #331, #395 ) ;
#254 = CARTESIAN_POINT ( 'NONE',  ( 0.5000000000000000000, 0.5000000000000000000, -3.500000000000000000 ) ) ;
#255 = VERTEX_POINT ( 'NONE', #107 ) ;
#256 = CIRCLE ( 'NONE', #151, 0.3124999999999992784 ) ;
#257 = VECTOR ( 'NONE', #305, 39.37007874015748143 ) ;
#258 = CARTESIAN_POINT ( 'NONE',  ( 3.250000000000000444, 1.500000000000000222, -1.750000000000002887 ) ) ;
#259 = EDGE_CURVE ( 'NONE', #436, #105, #11, .T. ) ;
#260 = EDGE_LOOP ( 'NONE', ( #471, #382 ) ) ;
#261 = CARTESIAN_POINT ( 'NONE',  ( 5.875000000000000000, 0.5000000000000000000, -2.562500000000000888 ) ) ;
#262 = LINE ( 'NONE', #229, #353 ) ;
#263 = SURFACE_STYLE_USAGE ( .BOTH. , #347 ) ;
#264 = EDGE_CURVE ( 'NONE', #460, #346, #505, .T. ) ;
#265 = EDGE_CURVE ( 'NONE', #500, #227, #289, .T. ) ;
#266 = VECTOR ( 'NONE', #571, 39.37007874015748143 ) ;
#267 = APPLICATION_PROTOCOL_DEFINITION ( 'draft international standard', 'automotive_design', 1998, #398 ) ;
#268 = CARTESIAN_POINT ( 'NONE',  ( 5.875000000000000000, 0.000000000000000000, -0.6250000000000000000 ) ) ;
#269 = CONICAL_SURFACE ( 'NONE', #127, 1.375000000000000000, 0.08726646259971651554 ) ;
#270 = ORIENTED_EDGE ( 'NONE', *, *, #205, .F. ) ;
#271 = ORIENTED_EDGE ( 'NONE', *, *, #319, .F. ) ;
#272 = DIRECTION ( 'NONE',  ( 0.000000000000000000, 0.000000000000000000, -1.000000000000000000 ) ) ;
#273 = CYLINDRICAL_SURFACE ( 'NONE', #326, 1.062500000000000000 ) ;
#274 = ORIENTED_EDGE ( 'NONE', *, *, #277, .T. ) ;
#275 = CARTESIAN_POINT ( 'NONE',  ( 0.000000000000000000, 0.5000000000000000000, -3.500000000000000000 ) ) ;
#276 = FACE_BOUND ( 'NONE', #310, .T. ) ;
#277 = EDGE_CURVE ( 'NONE', #436, #346, #162, .T. ) ;
#278 = ORIENTED_EDGE ( 'NONE', *, *, #41, .T. ) ;
#279 = ADVANCED_FACE ( 'NONE', ( #335 ), #293, .T. ) ;
#280 = CARTESIAN_POINT ( 'NONE',  ( 5.875000000000000000, 0.5000000000000000000, -0.3125000000000007772 ) ) ;
#281 = DIRECTION ( 'NONE',  ( -0.000000000000000000, 1.000000000000000000, -0.000000000000000000 ) ) ;
#282 = VECTOR ( 'NONE', #523, 39.37007874015748143 ) ;
#283 = VERTEX_POINT ( 'NONE', #328 ) ;
#284 = CARTESIAN_POINT ( 'NONE',  ( 3.250000000000000444, 1.500000000000000222, -0.3750000000000029421 ) ) ;
#285 = DIRECTION ( 'NONE',  ( 0.000000000000000000, 1.000000000000000000, 0.000000000000000000 ) ) ;
#286 = CARTESIAN_POINT ( 'NONE',  ( 5.875000000000000000, 0.000000000000000000, -2.875000000000000000 ) ) ;
#287 = ORIENTED_EDGE ( 'NONE', *, *, #364, .F. ) ;
#288 = DIRECTION ( 'NONE',  ( 0.000000000000000000, 0.000000000000000000, 1.000000000000000000 ) ) ;
#289 = LINE ( 'NONE', #26, #352 ) ;
#290 = AXIS2_PLACEMENT_3D ( 'NONE', #499, #370, #421 ) ;
#291 = ORIENTED_EDGE ( 'NONE', *, *, #405, .F. ) ;
#292 = CARTESIAN_POINT ( 'NONE',  ( 0.000000000000000000, 0.000000000000000000, -3.500000000000000000 ) ) ;
#293 = PLANE ( 'NONE',  #246 ) ;
#294 = CARTESIAN_POINT ( 'NONE',  ( 3.250000000000000444, 0.000000000000000000, -2.812500000000002665 ) ) ;
#295 = EDGE_LOOP ( 'NONE', ( #479, #524, #57, #66 ) ) ;
#296 = CARTESIAN_POINT ( 'NONE',  ( 6.500000000000000000, 0.000000000000000000, -3.500000000000000000 ) ) ;
#297 = FACE_OUTER_BOUND ( 'NONE', #518, .T. ) ;
#298 = VERTEX_POINT ( 'NONE', #420 ) ;
#299 = LINE ( 'NONE', #566, #266 ) ;
#300 = DIRECTION ( 'NONE',  ( 0.000000000000000000, 1.000000000000000000, 0.000000000000000000 ) ) ;
#301 = CARTESIAN_POINT ( 'NONE',  ( 5.875000000000000000, 0.000000000000000000, -0.9374999999999992228 ) ) ;
#302 = VECTOR ( 'NONE', #186, 39.37007874015748143 ) ;
#303 = AXIS2_PLACEMENT_3D ( 'NONE', #393, #536, #44 ) ;
#304 = DIRECTION ( 'NONE',  ( 0.000000000000000000, 0.000000000000000000, 1.000000000000000000 ) ) ;
#305 = DIRECTION ( 'NONE',  ( -0.000000000000000000, 1.000000000000000000, -0.000000000000000000 ) ) ;
#306 = PRESENTATION_STYLE_ASSIGNMENT (( #263 ) ) ;
#307 = EDGE_CURVE ( 'NONE', #500, #211, #316, .T. ) ;
#308 = EDGE_CURVE ( 'NONE', #159, #573, #487, .T. ) ;
#309 = VECTOR ( 'NONE', #369, 39.37007874015748143 ) ;
#310 = EDGE_LOOP ( 'NONE', ( #291, #25 ) ) ;
#311 = CARTESIAN_POINT ( 'NONE',  ( 3.250000000000000444, 1.500000000000000222, -1.750000000000002887 ) ) ;
#312 = ORIENTED_EDGE ( 'NONE', *, *, #307, .T. ) ;
#313 = CARTESIAN_POINT ( 'NONE',  ( 3.250000000000000444, 0.000000000000000000, -0.6875000000000029976 ) ) ;
#314 = VECTOR ( 'NONE', #409, 39.37007874015748143 ) ;
#315 = CARTESIAN_POINT ( 'NONE',  ( 6.500000000000000000, 0.5000000000000000000, -3.500000000000000000 ) ) ;
#316 = LINE ( 'NONE', #16, #302 ) ;
#317 = DIRECTION ( 'NONE',  ( 0.000000000000000000, 0.000000000000000000, 1.000000000000000000 ) ) ;
#318 = EDGE_CURVE ( 'NONE', #552, #448, #366, .T. ) ;
#319 = EDGE_CURVE ( 'NONE', #298, #283, #18, .T. ) ;
#320 = CARTESIAN_POINT ( 'NONE',  ( 3.250000000000000444, 0.000000000000000000, -2.812500000000002665 ) ) ;
#321 = CARTESIAN_POINT ( 'NONE',  ( 3.250000000000000444, 0.5000000000000000000, -1.750000000000002887 ) ) ;
#322 = EDGE_LOOP ( 'NONE', ( #239, #278 ) ) ;
#323 = CARTESIAN_POINT ( 'NONE',  ( 3.250000000000000444, 1.500000000000000222, -1.750000000000002887 ) ) ;
#324 = PLANE ( 'NONE',  #349 ) ;
#325 = VECTOR ( 'NONE', #288, 39.37007874015748143 ) ;
#326 = AXIS2_PLACEMENT_3D ( 'NONE', #225, #543, #133 ) ;
#327 = VERTEX_POINT ( 'NONE', #236 ) ;
#328 = CARTESIAN_POINT ( 'NONE',  ( 6.500000000000000000, 0.000000000000000000, 0.000000000000000000 ) ) ;
#329 = DIRECTION ( 'NONE',  ( 0.000000000000000000, -1.000000000000000000, 0.000000000000000000 ) ) ;
#330 = ORIENTED_EDGE ( 'NONE', *, *, #361, .F. ) ;
#331 = CARTESIAN_POINT ( 'NONE',  ( 6.500000000000000000, 0.5000000000000000000, -3.500000000000000000 ) ) ;
#332 = DIRECTION ( 'NONE',  ( 0.000000000000000000, 0.000000000000000000, 1.000000000000000000 ) ) ;
#333 = EDGE_LOOP ( 'NONE', ( #235, #434 ) ) ;
#334 = LINE ( 'NONE', #68, #234 ) ;
#335 = FACE_OUTER_BOUND ( 'NONE', #152, .T. ) ;
#336 = AXIS2_PLACEMENT_3D ( 'NONE', #411, #329, #69 ) ;
#337 = ORIENTED_EDGE ( 'NONE', *, *, #318, .T. ) ;
#338 = DIRECTION ( 'NONE',  ( 0.000000000000000000, 1.000000000000000000, 0.000000000000000000 ) ) ;
#339 = CARTESIAN_POINT ( 'NONE',  ( 0.5000000000000000000, 0.5000000000000000000, -3.500000000000000000 ) ) ;
#340 = EDGE_CURVE ( 'NONE', #573, #390, #495, .T. ) ;
#341 = EDGE_LOOP ( 'NONE', ( #183, #356, #70, #312 ) ) ;
#342 = LINE ( 'NONE', #120, #325 ) ;
#343 = VERTEX_POINT ( 'NONE', #545 ) ;
#344 = CARTESIAN_POINT ( 'NONE',  ( 5.875000000000000000, 0.5000000000000000000, -2.875000000000000000 ) ) ;
#345 = AXIS2_PLACEMENT_3D ( 'NONE', #116, #300, #207 ) ;
#346 = VERTEX_POINT ( 'NONE', #192 ) ;
#347 = SURFACE_SIDE_STYLE ('',( #432 ) ) ;
#348 = CIRCLE ( 'NONE', #535, 1.375000000000000000 ) ;
#349 = AXIS2_PLACEMENT_3D ( 'NONE', #190, #367, #97 ) ;
#350 = EDGE_CURVE ( 'NONE', #159, #355, #195, .T. ) ;
#351 = FILL_AREA_STYLE_COLOUR ( '', #87 ) ;
#352 = VECTOR ( 'NONE', #249, 39.37007874015748143 ) ;
#353 = VECTOR ( 'NONE', #490, 39.37007874015748143 ) ;
#354 = ORIENTED_EDGE ( 'NONE', *, *, #442, .T. ) ;
#355 = VERTEX_POINT ( 'NONE', #542 ) ;
#356 = ORIENTED_EDGE ( 'NONE', *, *, #180, .F. ) ;
#357 = DIRECTION ( 'NONE',  ( 0.000000000000000000, 0.000000000000000000, 1.000000000000000000 ) ) ;
#358 =( GEOMETRIC_REPRESENTATION_CONTEXT ( 3 ) GLOBAL_UNCERTAINTY_ASSIGNED_CONTEXT ( ( #61 ) ) GLOBAL_UNIT_ASSIGNED_CONTEXT ( ( #579, #440, #178 ) ) REPRESENTATION_CONTEXT ( 'NONE', 'WORKASPACE' ) );
#359 = EDGE_LOOP ( 'NONE', ( #451, #462, #47, #188 ) ) ;
#360 = CARTESIAN_POINT ( 'NONE',  ( 6.500000000000000000, 0.5000000000000000000, 0.000000000000000000 ) ) ;
#361 = EDGE_CURVE ( 'NONE', #327, #283, #501, .T. ) ;
#362 = VECTOR ( 'NONE', #458, 39.37007874015748143 ) ;
#363 = DIRECTION ( 'NONE',  ( -1.000000000000000000, 2.876220885219632719E-18, 0.000000000000000000 ) ) ;
#364 = EDGE_CURVE ( 'NONE', #211, #527, #106, .T. ) ;
#365 = ORIENTED_EDGE ( 'NONE', *, *, #350, .T. ) ;
#366 = LINE ( 'NONE', #275, #362 ) ;
#367 = DIRECTION ( 'NONE',  ( 0.000000000000000000, 1.000000000000000000, 0.000000000000000000 ) ) ;
#368 = ORIENTED_EDGE ( 'NONE', *, *, #219, .T. ) ;
#369 = DIRECTION ( 'NONE',  ( 1.000000000000000000, 0.000000000000000000, 0.000000000000000000 ) ) ;
#370 = DIRECTION ( 'NONE',  ( -0.000000000000000000, -1.000000000000000000, -0.000000000000000000 ) ) ;
#371 = ORIENTED_EDGE ( 'NONE', *, *, #532, .T. ) ;
#372 = LENGTH_MEASURE_WITH_UNIT ( LENGTH_MEASURE( 0.02539999999999999897 ), #62 );
#373 = LINE ( 'NONE', #13, #42 ) ;
#374 = AXIS2_PLACEMENT_3D ( 'NONE', #450, #484, #175 ) ;
#375 = ORIENTED_EDGE ( 'NONE', *, *, #220, .T. ) ;
#376 = PRODUCT_DEFINITION ( 'UNKNOWN', '', #111, #242 ) ;
#377 = LINE ( 'NONE', #168, #457 ) ;
#378 = CARTESIAN_POINT ( 'NONE',  ( 5.875000000000000000, 0.5000000000000000000, -0.6250000000000000000 ) ) ;
#379 = ORIENTED_EDGE ( 'NONE', *, *, #340, .F. ) ;
#380 = DIRECTION ( 'NONE',  ( 1.000000000000000000, 0.000000000000000000, 0.000000000000000000 ) ) ;
#381 = DIRECTION ( 'NONE',  ( 0.000000000000000000, -0.000000000000000000, -1.000000000000000000 ) ) ;
#382 = ORIENTED_EDGE ( 'NONE', *, *, #403, .F. ) ;
#383 = EDGE_CURVE ( 'NONE', #513, #404, #67, .T. ) ;
#384 = ADVANCED_FACE ( 'NONE', ( #143 ), #91, .F. ) ;
#385 = VECTOR ( 'NONE', #63, 39.37007874015748143 ) ;
#386 = AXIS2_PLACEMENT_3D ( 'NONE', #315, #397, #136 ) ;
#387 = ORIENTED_EDGE ( 'NONE', *, *, #486, .T. ) ;
#388 =( NAMED_UNIT ( * ) SI_UNIT ( $, .STERADIAN. ) SOLID_ANGLE_UNIT ( ) );
#389 = DIRECTION ( 'NONE',  ( -0.000000000000000000, 1.000000000000000000, -0.000000000000000000 ) ) ;
#390 = VERTEX_POINT ( 'NONE', #498 ) ;
#391 = UNCERTAINTY_MEASURE_WITH_UNIT (LENGTH_MEASURE( 1.000000000000000082E-05 ), #210, 'distance_accuracy_value', 'NONE');
#392 = CARTESIAN_POINT ( 'NONE',  ( 6.500000000000000000, 0.5000000000000000000, -3.500000000000000000 ) ) ;
#393 = CARTESIAN_POINT ( 'NONE',  ( 3.250000000000000444, 1.500000000000000222, -1.750000000000002887 ) ) ;
#394 =( LENGTH_UNIT ( ) NAMED_UNIT ( * ) SI_UNIT ( $, .METRE. ) );
#395 = VECTOR ( 'NONE', #435, 39.37007874015748143 ) ;
#396 =( NAMED_UNIT ( * ) PLANE_ANGLE_UNIT ( ) SI_UNIT ( $, .RADIAN. ) );
#397 = DIRECTION ( 'NONE',  ( -1.000000000000000000, 0.000000000000000000, 0.000000000000000000 ) ) ;
#398 = APPLICATION_CONTEXT ( 'automotive_design' ) ;
#399 = CIRCLE ( 'NONE', #132, 0.3124999999999992784 ) ;
#400 = ORIENTED_EDGE ( 'NONE', *, *, #82, .T. ) ;
#401 = ORIENTED_EDGE ( 'NONE', *, *, #138, .F. ) ;
#402 = FACE_OUTER_BOUND ( 'NONE', #295, .T. ) ;
#403 = EDGE_CURVE ( 'NONE', #7, #124, #2, .T. ) ;
#404 = VERTEX_POINT ( 'NONE', #280 ) ;
#405 = EDGE_CURVE ( 'NONE', #355, #390, #141, .T. ) ;
#406 = LINE ( 'NONE', #31, #126 ) ;
#407 = LINE ( 'NONE', #301, #257 ) ;
#408 = ORIENTED_EDGE ( 'NONE', *, *, #515, .T. ) ;
#409 = DIRECTION ( 'NONE',  ( 0.000000000000000000, -1.000000000000000000, 0.000000000000000000 ) ) ;
#410 = COLOUR_RGB ( '',0.5019607843137254832, 0.5019607843137254832, 1.000000000000000000 ) ;
#411 = CARTESIAN_POINT ( 'NONE',  ( 0.000000000000000000, 0.000000000000000000, -3.500000000000000000 ) ) ;
#412 = ORIENTED_EDGE ( 'NONE', *, *, #237, .F. ) ;
#413 = DIRECTION ( 'NONE',  ( 0.000000000000000000, 0.000000000000000000, 1.000000000000000000 ) ) ;
#414 = FACE_BOUND ( 'NONE', #260, .T. ) ;
#415 = VERTEX_POINT ( 'NONE', #449 ) ;
#416 = MANIFOLD_SOLID_BREP ( 'Cut-Extrude2', #508 ) ;
#417 = CARTESIAN_POINT ( 'NONE',  ( 4.314331327829449848E-18, 1.500000000000000222, 0.000000000000000000 ) ) ;
#418 = STYLED_ITEM ( 'NONE', ( #306 ), #456 ) ;
#419 = ORIENTED_EDGE ( 'NONE', *, *, #476, .T. ) ;
#420 = CARTESIAN_POINT ( 'NONE',  ( 0.000000000000000000, 0.000000000000000000, 0.000000000000000000 ) ) ;
#421 = DIRECTION ( 'NONE',  ( 0.000000000000000000, 0.000000000000000000, 1.000000000000000000 ) ) ;
#422 = CIRCLE ( 'NONE', #177, 1.462488663525924215 ) ;
#423 = VECTOR ( 'NONE', #459, 39.37007874015748143 ) ;
#424 = ORIENTED_EDGE ( 'NONE', *, *, #219, .F. ) ;
#425 = FACE_BOUND ( 'NONE', #492, .T. ) ;
#426 = ORIENTED_EDGE ( 'NONE', *, *, #277, .F. ) ;
#427 = EDGE_CURVE ( 'NONE', #415, #255, #406, .T. ) ;
#428 = DIRECTION ( 'NONE',  ( 0.000000000000000000, 0.000000000000000000, 1.000000000000000000 ) ) ;
#429 = ADVANCED_FACE ( 'NONE', ( #80 ), #467, .F. ) ;
#430 = CARTESIAN_POINT ( 'NONE',  ( 3.250000000000000444, 1.500000000000000222, -0.3750000000000029421 ) ) ;
#431 = VERTEX_POINT ( 'NONE', #160 ) ;
#432 = SURFACE_STYLE_FILL_AREA ( #176 ) ;
#433 = MECHANICAL_DESIGN_GEOMETRIC_PRESENTATION_REPRESENTATION (  '', ( #485 ), #113 ) ;
#434 = ORIENTED_EDGE ( 'NONE', *, *, #40, .T. ) ;
#435 = DIRECTION ( 'NONE',  ( 0.000000000000000000, -1.000000000000000000, 0.000000000000000000 ) ) ;
#436 = VERTEX_POINT ( 'NONE', #170 ) ;
#437 = DIRECTION ( 'NONE',  ( -0.000000000000000000, 1.000000000000000000, -0.000000000000000000 ) ) ;
#438 = DIRECTION ( 'NONE',  ( 0.000000000000000000, 0.000000000000000000, 1.000000000000000000 ) ) ;
#439 = AXIS2_PLACEMENT_3D ( 'NONE', #478, #389, #171 ) ;
#440 =( NAMED_UNIT ( * ) PLANE_ANGLE_UNIT ( ) SI_UNIT ( $, .RADIAN. ) );
#441 = AXIS2_PLACEMENT_3D ( 'NONE', #99, #550, #413 ) ;
#442 = EDGE_CURVE ( 'NONE', #211, #298, #28, .T. ) ;
#443 = ORIENTED_EDGE ( 'NONE', *, *, #40, .F. ) ;
#444 = CIRCLE ( 'NONE', #198, 0.3124999999999989453 ) ;
#445 = AXIS2_PLACEMENT_3D ( 'NONE', #268, #92, #357 ) ;
#446 = DIRECTION ( 'NONE',  ( 0.000000000000000000, 0.000000000000000000, 1.000000000000000000 ) ) ;
#447 = EDGE_CURVE ( 'NONE', #255, #283, #342, .T. ) ;
#448 = VERTEX_POINT ( 'NONE', #392 ) ;
#449 = CARTESIAN_POINT ( 'NONE',  ( 0.000000000000000000, 0.000000000000000000, -3.500000000000000000 ) ) ;
#450 = CARTESIAN_POINT ( 'NONE',  ( 3.250000000000000444, 0.000000000000000000, -1.750000000000002887 ) ) ;
#451 = ORIENTED_EDGE ( 'NONE', *, *, #532, .F. ) ;
#452 = DIRECTION ( 'NONE',  ( -1.000000000000000000, 0.000000000000000000, -0.000000000000000000 ) ) ;
#453 = DIRECTION ( 'NONE',  ( -0.000000000000000000, 1.000000000000000000, -0.000000000000000000 ) ) ;
#454 = AXIS2_PLACEMENT_3D ( 'NONE', #130, #489, #84 ) ;
#455 = ORIENTED_EDGE ( 'NONE', *, *, #14, .F. ) ;
#456 = ADVANCED_BREP_SHAPE_REPRESENTATION ( 'rib2', ( #416, #454 ), #534 ) ;
#457 = VECTOR ( 'NONE', #559, 39.37007874015748143 ) ;
#458 = DIRECTION ( 'NONE',  ( 1.000000000000000000, 0.000000000000000000, 0.000000000000000000 ) ) ;
#459 = DIRECTION ( 'NONE',  ( -0.000000000000000000, 1.000000000000000000, -0.000000000000000000 ) ) ;
#460 = VERTEX_POINT ( 'NONE', #261 ) ;
#461 = LINE ( 'NONE', #284, #385 ) ;
#462 = ORIENTED_EDGE ( 'NONE', *, *, #138, .T. ) ;
#463 = UNCERTAINTY_MEASURE_WITH_UNIT (LENGTH_MEASURE( 1.000000000000000082E-05 ), #554, 'distance_accuracy_value', 'NONE');
#464 = DIRECTION ( 'NONE',  ( 0.000000000000000000, 0.000000000000000000, -1.000000000000000000 ) ) ;
#465 = DIRECTION ( 'NONE',  ( 0.000000000000000000, 1.000000000000000000, 0.000000000000000000 ) ) ;
#466 = EDGE_LOOP ( 'NONE', ( #224, #274, #408, #5 ) ) ;
#467 = CYLINDRICAL_SURFACE ( 'NONE', #567, 0.3124999999999989453 ) ;
#468 = DIRECTION ( 'NONE',  ( 0.000000000000000000, 0.000000000000000000, 1.000000000000000000 ) ) ;
#469 = AXIS2_PLACEMENT_3D ( 'NONE', #528, #483, #109 ) ;
#470 = EDGE_CURVE ( 'NONE', #448, #327, #334, .T. ) ;
#471 = ORIENTED_EDGE ( 'NONE', *, *, #203, .F. ) ;
#472 = ADVANCED_FACE ( 'NONE', ( #214 ), #209, .F. ) ;
#473 = DIRECTION ( 'NONE',  ( 0.000000000000000000, 0.000000000000000000, 1.000000000000000000 ) ) ;
#474 = LINE ( 'NONE', #339, #282 ) ;
#475 = EDGE_LOOP ( 'NONE', ( #531, #539, #497, #387, #337, #27 ) ) ;
#476 = EDGE_CURVE ( 'NONE', #415, #298, #39, .T. ) ;
#477 = DIRECTION ( 'NONE',  ( 0.000000000000000000, 1.000000000000000000, 0.000000000000000000 ) ) ;
#478 = CARTESIAN_POINT ( 'NONE',  ( 5.875000000000000000, 0.000000000000000000, -0.6250000000000000000 ) ) ;
#479 = ORIENTED_EDGE ( 'NONE', *, *, #41, .F. ) ;
#480 = PLANE ( 'NONE',  #21 ) ;
#481 = AXIS2_PLACEMENT_3D ( 'NONE', #514, #437, #519 ) ;
#482 = DIRECTION ( 'NONE',  ( -2.876220885219632719E-18, -1.000000000000000000, 0.000000000000000000 ) ) ;
#483 = DIRECTION ( 'NONE',  ( 0.000000000000000000, -1.000000000000000000, 0.000000000000000000 ) ) ;
#484 = DIRECTION ( 'NONE',  ( 0.000000000000000000, 1.000000000000000000, 0.000000000000000000 ) ) ;
#485 = STYLED_ITEM ( 'NONE', ( #103 ), #416 ) ;
#486 = EDGE_CURVE ( 'NONE', #227, #552, #299, .T. ) ;
#487 = CIRCLE ( 'NONE', #131, 1.062500000000000000 ) ;
#488 = EDGE_CURVE ( 'NONE', #527, #431, #377, .T. ) ;
#489 = DIRECTION ( 'NONE',  ( 0.000000000000000000, 0.000000000000000000, 1.000000000000000000 ) ) ;
#490 = DIRECTION ( 'NONE',  ( -2.876220885219632719E-18, -1.000000000000000000, 0.000000000000000000 ) ) ;
#491 = MECHANICAL_DESIGN_GEOMETRIC_PRESENTATION_REPRESENTATION (  '', ( #418 ), #358 ) ;
#492 = EDGE_LOOP ( 'NONE', ( #424, #194 ) ) ;
#493 = ORIENTED_EDGE ( 'NONE', *, *, #361, .T. ) ;
#494 = CONICAL_SURFACE ( 'NONE', #290, 1.375000000000000000, 0.08726646259971651554 ) ;
#495 = LINE ( 'NONE', #320, #576 ) ;
#496 = FACE_OUTER_BOUND ( 'NONE', #10, .T. ) ;
#497 = ORIENTED_EDGE ( 'NONE', *, *, #265, .T. ) ;
#498 = CARTESIAN_POINT ( 'NONE',  ( 3.250000000000000444, 1.500000000000000222, -2.812500000000002665 ) ) ;
#499 = CARTESIAN_POINT ( 'NONE',  ( 3.250000000000000444, 1.500000000000000222, -1.750000000000002887 ) ) ;
#500 = VERTEX_POINT ( 'NONE', #71 ) ;
#501 = LINE ( 'NONE', #360, #314 ) ;
#502 = FACE_BOUND ( 'NONE', #20, .T. ) ;
#503 = DIMENSIONAL_EXPONENTS ( 1.000000000000000000, 0.000000000000000000, 0.000000000000000000, 0.000000000000000000, 0.000000000000000000, 0.000000000000000000, 0.000000000000000000 ) ;
#504 = EDGE_LOOP ( 'NONE', ( #544, #72 ) ) ;
#505 = CIRCLE ( 'NONE', #553, 0.3124999999999989453 ) ;
#506 = PRODUCT_RELATED_PRODUCT_CATEGORY ( 'part', '', ( #85 ) ) ;
#507 = DIRECTION ( 'NONE',  ( 1.000000000000000000, 0.000000000000000000, 0.000000000000000000 ) ) ;
#508 = CLOSED_SHELL ( 'NONE', ( #429, #577, #75, #163, #245, #279, #547, #119, #140, #73, #517, #384, #161, #52, #558, #93, #472 ) ) ;
#509 = LINE ( 'NONE', #100, #530 ) ;
#510 = ORIENTED_EDGE ( 'NONE', *, *, #264, .T. ) ;
#511 = DIRECTION ( 'NONE',  ( -0.000000000000000000, 1.000000000000000000, -0.000000000000000000 ) ) ;
#512 = DIRECTION ( 'NONE',  ( 0.000000000000000000, 0.000000000000000000, -1.000000000000000000 ) ) ;
#513 = VERTEX_POINT ( 'NONE', #157 ) ;
#514 = CARTESIAN_POINT ( 'NONE',  ( 5.875000000000000000, 0.000000000000000000, -2.875000000000000000 ) ) ;
#515 = EDGE_CURVE ( 'NONE', #346, #460, #444, .T. ) ;
#516 = FACE_BOUND ( 'NONE', #333, .T. ) ;
#517 = ADVANCED_FACE ( 'NONE', ( #122 ), #480, .T. ) ;
#518 = EDGE_LOOP ( 'NONE', ( #379, #35, #365, #169 ) ) ;
#519 = DIRECTION ( 'NONE',  ( 0.000000000000000000, 0.000000000000000000, 1.000000000000000000 ) ) ;
#520 = CARTESIAN_POINT ( 'NONE',  ( 4.314331327829449848E-18, 1.500000000000000222, -3.500000000000000000 ) ) ;
#521 = PRESENTATION_LAYER_ASSIGNMENT (  '', '', ( #485 ) ) ;
#522 = ORIENTED_EDGE ( 'NONE', *, *, #427, .T. ) ;
#523 = DIRECTION ( 'NONE',  ( 0.000000000000000000, 0.000000000000000000, 1.000000000000000000 ) ) ;
#524 = ORIENTED_EDGE ( 'NONE', *, *, #340, .T. ) ;
#525 = DIRECTION ( 'NONE',  ( 0.000000000000000000, 0.000000000000000000, 1.000000000000000000 ) ) ;
#526 = CYLINDRICAL_SURFACE ( 'NONE', #32, 1.062500000000000000 ) ;
#527 = VERTEX_POINT ( 'NONE', #248 ) ;
#528 = CARTESIAN_POINT ( 'NONE',  ( 4.314331327829449848E-18, 1.500000000000000222, -3.500000000000000000 ) ) ;
#529 = VECTOR ( 'NONE', #317, 39.37007874015748143 ) ;
#530 = VECTOR ( 'NONE', #238, 39.37007874015748143 ) ;
#531 = ORIENTED_EDGE ( 'NONE', *, *, #427, .F. ) ;
#532 = EDGE_CURVE ( 'NONE', #90, #549, #348, .T. ) ;
#533 = EDGE_CURVE ( 'NONE', #448, #255, #253, .T. ) ;
#534 =( GEOMETRIC_REPRESENTATION_CONTEXT ( 3 ) GLOBAL_UNCERTAINTY_ASSIGNED_CONTEXT ( ( #391 ) ) GLOBAL_UNIT_ASSIGNED_CONTEXT ( ( #210, #396, #218 ) ) REPRESENTATION_CONTEXT ( 'NONE', 'WORKASPACE' ) );
#535 = AXIS2_PLACEMENT_3D ( 'NONE', #258, #477, #74 ) ;
#536 = DIRECTION ( 'NONE',  ( 0.000000000000000000, 1.000000000000000000, 0.000000000000000000 ) ) ;
#537 = PRODUCT_DEFINITION_SHAPE ( 'NONE', 'NONE',  #376 ) ;
#538 = CARTESIAN_POINT ( 'NONE',  ( 5.875000000000000000, 0.000000000000000000, -0.6250000000000000000 ) ) ;
#539 = ORIENTED_EDGE ( 'NONE', *, *, #54, .F. ) ;
#540 = DIRECTION ( 'NONE',  ( 0.000000000000000000, 1.000000000000000000, 0.000000000000000000 ) ) ;
#541 = CARTESIAN_POINT ( 'NONE',  ( 5.875000000000000000, 0.000000000000000000, -2.875000000000000000 ) ) ;
#542 = CARTESIAN_POINT ( 'NONE',  ( 3.250000000000000444, 1.500000000000000222, -0.6875000000000029976 ) ) ;
#543 = DIRECTION ( 'NONE',  ( -0.000000000000000000, 1.000000000000000000, -0.000000000000000000 ) ) ;
#544 = ORIENTED_EDGE ( 'NONE', *, *, #117, .T. ) ;
#545 = CARTESIAN_POINT ( 'NONE',  ( 5.875000000000000000, 0.000000000000000000, -0.3125000000000007772 ) ) ;
#546 = LINE ( 'NONE', #560, #529 ) ;
#547 = ADVANCED_FACE ( 'NONE', ( #574 ), #173, .F. ) ;
#548 = EDGE_CURVE ( 'NONE', #552, #431, #474, .T. ) ;
#549 = VERTEX_POINT ( 'NONE', #430 ) ;
#550 = DIRECTION ( 'NONE',  ( 0.000000000000000000, 1.000000000000000000, 0.000000000000000000 ) ) ;
#551 = LINE ( 'NONE', #147, #423 ) ;
#552 = VERTEX_POINT ( 'NONE', #254 ) ;
#553 = AXIS2_PLACEMENT_3D ( 'NONE', #24, #201, #332 ) ;
#554 =( CONVERSION_BASED_UNIT ( 'INCH', #372 ) LENGTH_UNIT ( ) NAMED_UNIT ( #135 ) );
#555 = CIRCLE ( 'NONE', #374, 1.062500000000000000 ) ;
#556 = FACE_BOUND ( 'NONE', #322, .T. ) ;
#557 = ORIENTED_EDGE ( 'NONE', *, *, #54, .T. ) ;
#558 = ADVANCED_FACE ( 'NONE', ( #297 ), #526, .F. ) ;
#559 = DIRECTION ( 'NONE',  ( -2.876220885219632719E-18, -1.000000000000000000, 0.000000000000000000 ) ) ;
#560 = CARTESIAN_POINT ( 'NONE',  ( 0.5000000000000000000, 1.500000000000000222, -3.500000000000000000 ) ) ;
#561 = ORIENTED_EDGE ( 'NONE', *, *, #476, .F. ) ;
#562 =( NAMED_UNIT ( * ) PLANE_ANGLE_UNIT ( ) SI_UNIT ( $, .RADIAN. ) );
#563 = DIRECTION ( 'NONE',  ( -0.000000000000000000, 1.000000000000000000, -0.000000000000000000 ) ) ;
#564 = DIRECTION ( 'NONE',  ( -0.000000000000000000, 1.000000000000000000, -0.000000000000000000 ) ) ;
#565 = ORIENTED_EDGE ( 'NONE', *, *, #548, .F. ) ;
#566 = CARTESIAN_POINT ( 'NONE',  ( 0.5000000000000000000, 1.500000000000000222, -3.500000000000000000 ) ) ;
#567 = AXIS2_PLACEMENT_3D ( 'NONE', #114, #251, #428 ) ;
#568 = AXIS2_PLACEMENT_3D ( 'NONE', #9, #363, #482 ) ;
#569 = DIRECTION ( 'NONE',  ( 0.000000000000000000, 0.000000000000000000, 1.000000000000000000 ) ) ;
#570 = ORIENTED_EDGE ( 'NONE', *, *, #203, .T. ) ;
#571 = DIRECTION ( 'NONE',  ( -2.876220885219632719E-18, -1.000000000000000000, 0.000000000000000000 ) ) ;
#572 = CYLINDRICAL_SURFACE ( 'NONE', #439, 0.3124999999999992784 ) ;
#573 = VERTEX_POINT ( 'NONE', #294 ) ;
#574 = FACE_OUTER_BOUND ( 'NONE', #341, .T. ) ;
#575 = CARTESIAN_POINT ( 'NONE',  ( 3.250000000000000444, 0.5000000000000000000, -3.212488663525927102 ) ) ;
#576 = VECTOR ( 'NONE', #137, 39.37007874015748143 ) ;
#577 = ADVANCED_FACE ( 'NONE', ( #123 ), #572, .F. ) ;
#578 = EDGE_CURVE ( 'NONE', #343, #199, #196, .T. ) ;
#579 =( CONVERSION_BASED_UNIT ( 'INCH', #129 ) LENGTH_UNIT ( ) NAMED_UNIT ( #233 ) );
ENDSEC;
END-ISO-10303-21;
