ISO-10303-21;
HEADER;
FILE_DESCRIPTION (( 'STEP AP214' ),
    '1' );
FILE_NAME ('rib5.STEP',
    '2023-04-17T21:13:06',
    ( '' ),
    ( '' ),
    'SwSTEP 2.0',
    'SolidWorks 2021',
    '' );
FILE_SCHEMA (( 'AUTOMOTIVE_DESIGN' ));
ENDSEC;

DATA;
#1 = DIRECTION ( 'NONE',  ( 0.000000000000000000, 0.000000000000000000, 1.000000000000000000 ) ) ;
#2 = LINE ( 'NONE', #31, #335 ) ;
#3 = DIRECTION ( 'NONE',  ( 1.000000000000000000, 0.000000000000000000, -0.000000000000000000 ) ) ;
#4 = EDGE_CURVE ( 'NONE', #163, #428, #25, .T. ) ;
#5 = CARTESIAN_POINT ( 'NONE',  ( 0.000000000000000000, 0.000000000000000000, 0.3749999999999999445 ) ) ;
#6 = VECTOR ( 'NONE', #382, 39.37007874015748143 ) ;
#7 = AXIS2_PLACEMENT_3D ( 'NONE', #33, #35, #247 ) ;
#8 = LINE ( 'NONE', #234, #223 ) ;
#9 = ADVANCED_FACE ( 'NONE', ( #293 ), #103, .T. ) ;
#10 = DIRECTION ( 'NONE',  ( 1.000000000000000000, 0.000000000000000000, 0.000000000000000000 ) ) ;
#11 = CARTESIAN_POINT ( 'NONE',  ( 0.5625000000000001110, 0.000000000000000000, 1.625000000000000000 ) ) ;
#12 = EDGE_CURVE ( 'NONE', #158, #449, #151, .T. ) ;
#13 = DIRECTION ( 'NONE',  ( -0.000000000000000000, -0.000000000000000000, -1.000000000000000000 ) ) ;
#14 = LINE ( 'NONE', #458, #257 ) ;
#15 = FACE_OUTER_BOUND ( 'NONE', #389, .T. ) ;
#16 = ADVANCED_FACE ( 'NONE', ( #370, #367 ), #106, .F. ) ;
#17 = ORIENTED_EDGE ( 'NONE', *, *, #104, .F. ) ;
#18 = AXIS2_PLACEMENT_3D ( 'NONE', #196, #347, #193 ) ;
#19 = CARTESIAN_POINT ( 'NONE',  ( 0.000000000000000000, 0.000000000000000000, 0.3750000000000000555 ) ) ;
#20 = VERTEX_POINT ( 'NONE', #256 ) ;
#21 = DIRECTION ( 'NONE',  ( 1.365923996832132102E-16, -1.000000000000000000, 0.000000000000000000 ) ) ;
#22 = ORIENTED_EDGE ( 'NONE', *, *, #302, .F. ) ;
#23 = DIRECTION ( 'NONE',  ( -0.000000000000000000, -0.000000000000000000, 1.000000000000000000 ) ) ;
#24 = ORIENTED_EDGE ( 'NONE', *, *, #263, .T. ) ;
#25 = CIRCLE ( 'NONE', #258, 0.5625000000000001110 ) ;
#26 = ORIENTED_EDGE ( 'NONE', *, *, #4, .T. ) ;
#27 = DIRECTION ( 'NONE',  ( -1.000000000000000000, -1.365923996832131856E-16, -0.000000000000000000 ) ) ;
#28 =( NAMED_UNIT ( * ) PLANE_ANGLE_UNIT ( ) SI_UNIT ( $, .RADIAN. ) );
#29 = EDGE_CURVE ( 'NONE', #333, #202, #397, .T. ) ;
#30 = EDGE_LOOP ( 'NONE', ( #26, #141 ) ) ;
#31 = CARTESIAN_POINT ( 'NONE',  ( -1.999999999999999778, -3.500000000000000888, 2.500000000000000000 ) ) ;
#32 = VECTOR ( 'NONE', #197, 39.37007874015748143 ) ;
#33 = CARTESIAN_POINT ( 'NONE',  ( 0.000000000000000000, 0.000000000000000000, 0.000000000000000000 ) ) ;
#34 = CARTESIAN_POINT ( 'NONE',  ( -0.5625000000000001110, 6.888638245203861944E-17, 1.625000000000000000 ) ) ;
#35 = DIRECTION ( 'NONE',  ( 0.000000000000000000, 0.000000000000000000, 1.000000000000000000 ) ) ;
#36 = ORIENTED_EDGE ( 'NONE', *, *, #98, .T. ) ;
#37 =( NAMED_UNIT ( * ) SI_UNIT ( $, .STERADIAN. ) SOLID_ANGLE_UNIT ( ) );
#38 = CARTESIAN_POINT ( 'NONE',  ( 1.999999999999999778, -3.500000000000000444, 0.3750000000000000555 ) ) ;
#39 = AXIS2_PLACEMENT_3D ( 'NONE', #221, #413, #10 ) ;
#40 = VECTOR ( 'NONE', #47, 39.37007874015748143 ) ;
#41 = DIRECTION ( 'NONE',  ( -1.092739197465707457E-15, -1.000000000000000000, -0.000000000000000000 ) ) ;
#42 = ORIENTED_EDGE ( 'NONE', *, *, #263, .F. ) ;
#43 = LINE ( 'NONE', #446, #432 ) ;
#44 = EDGE_CURVE ( 'NONE', #146, #333, #406, .T. ) ;
#45 = PRODUCT_DEFINITION_CONTEXT ( 'detailed design', #232, 'design' ) ;
#46 = CARTESIAN_POINT ( 'NONE',  ( 1.999999999999999778, -3.500000000000000444, 0.3750000000000000555 ) ) ;
#47 = DIRECTION ( 'NONE',  ( -0.000000000000000000, -0.000000000000000000, -1.000000000000000000 ) ) ;
#48 = EDGE_CURVE ( 'NONE', #70, #50, #218, .T. ) ;
#49 = CARTESIAN_POINT ( 'NONE',  ( 1.999999999999999778, -3.500000000000000444, 2.500000000000000000 ) ) ;
#50 = VERTEX_POINT ( 'NONE', #334 ) ;
#51 = DIRECTION ( 'NONE',  ( -0.000000000000000000, -0.000000000000000000, 1.000000000000000000 ) ) ;
#52 = EDGE_LOOP ( 'NONE', ( #118, #343, #57, #461, #80 ) ) ;
#53 = UNCERTAINTY_MEASURE_WITH_UNIT (LENGTH_MEASURE( 1.000000000000000082E-05 ), #229, 'distance_accuracy_value', 'NONE');
#54 = EDGE_CURVE ( 'NONE', #447, #333, #398, .T. ) ;
#55 = CIRCLE ( 'NONE', #73, 1.000000000000000222 ) ;
#56 = DIRECTION ( 'NONE',  ( 1.000000000000000000, 0.000000000000000000, 0.000000000000000000 ) ) ;
#57 = ORIENTED_EDGE ( 'NONE', *, *, #401, .F. ) ;
#58 = PLANE ( 'NONE',  #361 ) ;
#59 = ORIENTED_EDGE ( 'NONE', *, *, #104, .T. ) ;
#60 = EDGE_CURVE ( 'NONE', #134, #359, #364, .T. ) ;
#61 = CARTESIAN_POINT ( 'NONE',  ( 1.999999999999999778, -3.999999999999999556, 0.000000000000000000 ) ) ;
#62 = EDGE_LOOP ( 'NONE', ( #83, #407, #362, #467 ) ) ;
#63 = AXIS2_PLACEMENT_3D ( 'NONE', #392, #170, #242 ) ;
#64 = VECTOR ( 'NONE', #149, 39.37007874015748143 ) ;
#65 = ADVANCED_FACE ( 'NONE', ( #326 ), #369, .F. ) ;
#66 =( LENGTH_UNIT ( ) NAMED_UNIT ( * ) SI_UNIT ( $, .METRE. ) );
#67 = EDGE_LOOP ( 'NONE', ( #393, #138 ) ) ;
#68 = APPLICATION_CONTEXT ( 'automotive_design' ) ;
#69 = CARTESIAN_POINT ( 'NONE',  ( 0.000000000000000000, 0.000000000000000000, 1.625000000000000000 ) ) ;
#70 = VERTEX_POINT ( 'NONE', #153 ) ;
#71 = AXIS2_PLACEMENT_3D ( 'NONE', #284, #427, #56 ) ;
#72 = CARTESIAN_POINT ( 'NONE',  ( -0.5625000000000001110, 6.888638245203861944E-17, 0.000000000000000000 ) ) ;
#73 = AXIS2_PLACEMENT_3D ( 'NONE', #352, #128, #451 ) ;
#74 = CARTESIAN_POINT ( 'NONE',  ( -1.999999999999999778, -3.500000000000000888, 2.500000000000000000 ) ) ;
#75 = PRODUCT_CONTEXT ( 'NONE', #68, 'mechanical' ) ;
#76 = DIRECTION ( 'NONE',  ( 1.000000000000000000, 0.000000000000000000, 0.000000000000000000 ) ) ;
#77 = CARTESIAN_POINT ( 'NONE',  ( -0.9641807343284094500, 0.2652461339019479003, 0.000000000000000000 ) ) ;
#78 = CARTESIAN_POINT ( 'NONE',  ( -2.000000000000000444, -4.000000000000000000, 0.3750000000000000555 ) ) ;
#79 =( GEOMETRIC_REPRESENTATION_CONTEXT ( 3 ) GLOBAL_UNCERTAINTY_ASSIGNED_CONTEXT ( ( #53 ) ) GLOBAL_UNIT_ASSIGNED_CONTEXT ( ( #229, #116, #37 ) ) REPRESENTATION_CONTEXT ( 'NONE', 'WORKASPACE' ) );
#80 = ORIENTED_EDGE ( 'NONE', *, *, #317, .T. ) ;
#81 = EDGE_CURVE ( 'NONE', #470, #359, #82, .T. ) ;
#82 = LINE ( 'NONE', #380, #249 ) ;
#83 = ORIENTED_EDGE ( 'NONE', *, *, #214, .F. ) ;
#84 = LENGTH_MEASURE_WITH_UNIT ( LENGTH_MEASURE( 0.02539999999999999897 ), #443 );
#85 = FACE_OUTER_BOUND ( 'NONE', #277, .T. ) ;
#86 = CARTESIAN_POINT ( 'NONE',  ( 0.9641807343284091170, 0.2652461339019479558, 0.3750000000000000555 ) ) ;
#87 = CIRCLE ( 'NONE', #39, 0.5625000000000001110 ) ;
#88 = ORIENTED_EDGE ( 'NONE', *, *, #98, .F. ) ;
#89 = ADVANCED_FACE ( 'NONE', ( #224 ), #442, .F. ) ;
#90 = PLANE ( 'NONE',  #143 ) ;
#91 = ORIENTED_EDGE ( 'NONE', *, *, #340, .T. ) ;
#92 = DIRECTION ( 'NONE',  ( -1.000000000000000000, 0.000000000000000000, 0.000000000000000000 ) ) ;
#93 = ORIENTED_EDGE ( 'NONE', *, *, #275, .T. ) ;
#94 = DIRECTION ( 'NONE',  ( -0.000000000000000000, -0.000000000000000000, -1.000000000000000000 ) ) ;
#95 = ORIENTED_EDGE ( 'NONE', *, *, #12, .F. ) ;
#96 = VECTOR ( 'NONE', #207, 39.37007874015748143 ) ;
#97 = LINE ( 'NONE', #238, #396 ) ;
#98 = EDGE_CURVE ( 'NONE', #359, #439, #305, .T. ) ;
#99 = EDGE_LOOP ( 'NONE', ( #274, #91, #17, #178, #175, #287, #391, #381 ) ) ;
#100 = LINE ( 'NONE', #276, #463 ) ;
#101 = VERTEX_POINT ( 'NONE', #376 ) ;
#102 =( NAMED_UNIT ( * ) PLANE_ANGLE_UNIT ( ) SI_UNIT ( $, .RADIAN. ) );
#103 = PLANE ( 'NONE',  #105 ) ;
#104 = EDGE_CURVE ( 'NONE', #146, #20, #373, .T. ) ;
#105 = AXIS2_PLACEMENT_3D ( 'NONE', #468, #184, #3 ) ;
#106 = PLANE ( 'NONE',  #7 ) ;
#107 = CARTESIAN_POINT ( 'NONE',  ( 1.999999999999999778, -3.999999999999999556, 0.000000000000000000 ) ) ;
#108 = CARTESIAN_POINT ( 'NONE',  ( 0.000000000000000000, 0.000000000000000000, 1.625000000000000000 ) ) ;
#109 = CARTESIAN_POINT ( 'NONE',  ( 0.000000000000000000, 0.000000000000000000, 0.3750000000000000555 ) ) ;
#110 = DIRECTION ( 'NONE',  ( 1.000000000000000000, 0.000000000000000000, 0.000000000000000000 ) ) ;
#111 = PRODUCT_DEFINITION_FORMATION_WITH_SPECIFIED_SOURCE ( 'ANY', '', #280, .NOT_KNOWN. ) ;
#112 = LINE ( 'NONE', #288, #96 ) ;
#113 = AXIS2_PLACEMENT_3D ( 'NONE', #152, #227, #266 ) ;
#114 = ORIENTED_EDGE ( 'NONE', *, *, #12, .T. ) ;
#115 = CARTESIAN_POINT ( 'NONE',  ( 1.999999999999999778, -3.500000000000000444, 0.3750000000000000555 ) ) ;
#116 =( NAMED_UNIT ( * ) PLANE_ANGLE_UNIT ( ) SI_UNIT ( $, .RADIAN. ) );
#117 = CYLINDRICAL_SURFACE ( 'NONE', #127, 1.000000000000000444 ) ;
#118 = ORIENTED_EDGE ( 'NONE', *, *, #436, .T. ) ;
#119 = EDGE_CURVE ( 'NONE', #101, #366, #164, .T. ) ;
#120 = CARTESIAN_POINT ( 'NONE',  ( 0.000000000000000000, 0.000000000000000000, 0.000000000000000000 ) ) ;
#121 = CARTESIAN_POINT ( 'NONE',  ( -1.999999999999999778, -3.500000000000000888, 0.3750000000000000555 ) ) ;
#122 = SURFACE_STYLE_USAGE ( .BOTH. , #299 ) ;
#123 = DIRECTION ( 'NONE',  ( -1.365923996832131856E-16, 1.000000000000000000, 0.000000000000000000 ) ) ;
#124 = DIRECTION ( 'NONE',  ( 0.000000000000000000, 1.000000000000000000, 0.000000000000000000 ) ) ;
#125 = ORIENTED_EDGE ( 'NONE', *, *, #401, .T. ) ;
#126 = DIRECTION ( 'NONE',  ( 0.2652461339019475117, 0.9641807343284088949, 0.000000000000000000 ) ) ;
#127 = AXIS2_PLACEMENT_3D ( 'NONE', #264, #410, #92 ) ;
#128 = DIRECTION ( 'NONE',  ( -0.000000000000000000, -0.000000000000000000, -1.000000000000000000 ) ) ;
#129 = ORIENTED_EDGE ( 'NONE', *, *, #181, .T. ) ;
#130 = CARTESIAN_POINT ( 'NONE',  ( -0.9641807343284094500, 0.2652461339019479003, 0.3750000000000000555 ) ) ;
#131 = ORIENTED_EDGE ( 'NONE', *, *, #409, .F. ) ;
#132 = EDGE_CURVE ( 'NONE', #198, #385, #43, .T. ) ;
#133 = PLANE ( 'NONE',  #386 ) ;
#134 = VERTEX_POINT ( 'NONE', #46 ) ;
#135 = STYLED_ITEM ( 'NONE', ( #286 ), #426 ) ;
#136 = VECTOR ( 'NONE', #183, 39.37007874015748854 ) ;
#137 = LINE ( 'NONE', #168, #6 ) ;
#138 = ORIENTED_EDGE ( 'NONE', *, *, #119, .T. ) ;
#139 = LINE ( 'NONE', #107, #329 ) ;
#140 = ADVANCED_FACE ( 'NONE', ( #301 ), #339, .F. ) ;
#141 = ORIENTED_EDGE ( 'NONE', *, *, #214, .T. ) ;
#142 = DIRECTION ( 'NONE',  ( -0.000000000000000000, -0.000000000000000000, -1.000000000000000000 ) ) ;
#143 = AXIS2_PLACEMENT_3D ( 'NONE', #19, #161, #203 ) ;
#144 = DIRECTION ( 'NONE',  ( -0.000000000000000000, -0.000000000000000000, -1.000000000000000000 ) ) ;
#145 = PRODUCT_DEFINITION ( 'UNKNOWN', '', #111, #45 ) ;
#146 = VERTEX_POINT ( 'NONE', #86 ) ;
#147 = CARTESIAN_POINT ( 'NONE',  ( 0.9641807343284085619, 0.2652461339019482889, 0.3750000000000000555 ) ) ;
#148 = EDGE_CURVE ( 'NONE', #50, #415, #8, .T. ) ;
#149 = DIRECTION ( 'NONE',  ( -1.092739197465707457E-15, -1.000000000000000000, 0.000000000000000000 ) ) ;
#150 = STYLED_ITEM ( 'NONE', ( #194 ), #462 ) ;
#151 = CIRCLE ( 'NONE', #209, 0.5625000000000001110 ) ;
#152 = CARTESIAN_POINT ( 'NONE',  ( 0.000000000000000000, 0.000000000000000000, 1.625000000000000000 ) ) ;
#153 = CARTESIAN_POINT ( 'NONE',  ( -1.999999999999999778, -3.500000000000000888, 2.500000000000000000 ) ) ;
#154 = SURFACE_STYLE_FILL_AREA ( #220 ) ;
#155 = FACE_OUTER_BOUND ( 'NONE', #99, .T. ) ;
#156 = DIRECTION ( 'NONE',  ( 0.2652461339019479558, -0.9641807343284088949, 0.000000000000000000 ) ) ;
#157 = AXIS2_PLACEMENT_3D ( 'NONE', #109, #144, #360 ) ;
#158 = VERTEX_POINT ( 'NONE', #11 ) ;
#159 = LINE ( 'NONE', #371, #174 ) ;
#160 = DIRECTION ( 'NONE',  ( 1.000000000000000000, 1.365923996832131609E-16, 0.000000000000000000 ) ) ;
#161 = DIRECTION ( 'NONE',  ( 0.000000000000000000, 0.000000000000000000, 1.000000000000000000 ) ) ;
#162 = PRESENTATION_LAYER_ASSIGNMENT (  '', '', ( #150 ) ) ;
#163 = VERTEX_POINT ( 'NONE', #444 ) ;
#164 = CIRCLE ( 'NONE', #113, 1.000000000000000222 ) ;
#165 = FACE_OUTER_BOUND ( 'NONE', #191, .T. ) ;
#166 = EDGE_LOOP ( 'NONE', ( #279, #239, #93, #114 ) ) ;
#167 = ADVANCED_FACE ( 'NONE', ( #298 ), #342, .F. ) ;
#168 = CARTESIAN_POINT ( 'NONE',  ( 1.999999999999999778, -3.999999999999999556, 0.3750000000000000555 ) ) ;
#169 = ORIENTED_EDGE ( 'NONE', *, *, #44, .F. ) ;
#170 = DIRECTION ( 'NONE',  ( 0.000000000000000000, 0.000000000000000000, 1.000000000000000000 ) ) ;
#171 = PRODUCT_RELATED_PRODUCT_CATEGORY ( 'part', '', ( #280 ) ) ;
#172 = ORIENTED_EDGE ( 'NONE', *, *, #54, .F. ) ;
#173 = VECTOR ( 'NONE', #464, 39.37007874015748143 ) ;
#174 = VECTOR ( 'NONE', #41, 39.37007874015748143 ) ;
#175 = ORIENTED_EDGE ( 'NONE', *, *, #29, .T. ) ;
#176 = ORIENTED_EDGE ( 'NONE', *, *, #219, .F. ) ;
#177 = SURFACE_STYLE_USAGE ( .BOTH. , #250 ) ;
#178 = ORIENTED_EDGE ( 'NONE', *, *, #44, .T. ) ;
#179 =( CONVERSION_BASED_UNIT ( 'INCH', #365 ) LENGTH_UNIT ( ) NAMED_UNIT ( #357 ) );
#180 = CARTESIAN_POINT ( 'NONE',  ( 0.000000000000000000, 0.000000000000000000, 0.000000000000000000 ) ) ;
#181 = EDGE_CURVE ( 'NONE', #439, #415, #159, .T. ) ;
#182 = CARTESIAN_POINT ( 'NONE',  ( -1.999999999999999778, -3.500000000000000888, 0.000000000000000000 ) ) ;
#183 = DIRECTION ( 'NONE',  ( -0.2652461339019479003, 0.9641807343284088949, 0.000000000000000000 ) ) ;
#184 = DIRECTION ( 'NONE',  ( 0.000000000000000000, 0.000000000000000000, 1.000000000000000000 ) ) ;
#185 = VECTOR ( 'NONE', #94, 39.37007874015748143 ) ;
#186 = APPLICATION_PROTOCOL_DEFINITION ( 'draft international standard', 'automotive_design', 1998, #68 ) ;
#187 = VECTOR ( 'NONE', #142, 39.37007874015748143 ) ;
#188 = DIRECTION ( 'NONE',  ( -0.000000000000000000, -0.000000000000000000, -1.000000000000000000 ) ) ;
#189 = DIRECTION ( 'NONE',  ( 0.000000000000000000, 0.000000000000000000, 1.000000000000000000 ) ) ;
#190 = DIRECTION ( 'NONE',  ( 1.092739197465707654E-15, 1.000000000000000000, 0.000000000000000000 ) ) ;
#191 = EDGE_LOOP ( 'NONE', ( #24, #88, #314, #204 ) ) ;
#192 = FILL_AREA_STYLE_COLOUR ( '', #379 ) ;
#193 = DIRECTION ( 'NONE',  ( 1.000000000000000000, 0.000000000000000000, 0.000000000000000000 ) ) ;
#194 = PRESENTATION_STYLE_ASSIGNMENT (( #122 ) ) ;
#195 = DIRECTION ( 'NONE',  ( 0.000000000000000000, 0.000000000000000000, 1.000000000000000000 ) ) ;
#196 = CARTESIAN_POINT ( 'NONE',  ( 0.000000000000000000, 0.000000000000000000, 0.000000000000000000 ) ) ;
#197 = DIRECTION ( 'NONE',  ( -0.000000000000000000, -0.000000000000000000, -1.000000000000000000 ) ) ;
#198 = VERTEX_POINT ( 'NONE', #303 ) ;
#199 = DIRECTION ( 'NONE',  ( 0.9641807343284090059, -0.2652461339019475672, 0.000000000000000000 ) ) ;
#200 = EDGE_CURVE ( 'NONE', #70, #359, #269, .T. ) ;
#201 = VECTOR ( 'NONE', #188, 39.37007874015748143 ) ;
#202 = VERTEX_POINT ( 'NONE', #77 ) ;
#203 = DIRECTION ( 'NONE',  ( 1.000000000000000000, 0.000000000000000000, -0.000000000000000000 ) ) ;
#204 = ORIENTED_EDGE ( 'NONE', *, *, #325, .T. ) ;
#205 = LINE ( 'NONE', #130, #32 ) ;
#206 = ORIENTED_EDGE ( 'NONE', *, *, #54, .T. ) ;
#207 = DIRECTION ( 'NONE',  ( 1.000000000000000000, 1.365923996832131609E-16, 0.000000000000000000 ) ) ;
#208 = EDGE_LOOP ( 'NONE', ( #206, #169, #225, #245 ) ) ;
#209 = AXIS2_PLACEMENT_3D ( 'NONE', #108, #296, #215 ) ;
#210 = CARTESIAN_POINT ( 'NONE',  ( 1.999999999999999778, -3.500000000000000444, 0.000000000000000000 ) ) ;
#211 = FACE_OUTER_BOUND ( 'NONE', #67, .T. ) ;
#212 = LINE ( 'NONE', #38, #201 ) ;
#213 =( LENGTH_UNIT ( ) NAMED_UNIT ( * ) SI_UNIT ( $, .METRE. ) );
#214 = EDGE_CURVE ( 'NONE', #428, #163, #423, .T. ) ;
#215 = DIRECTION ( 'NONE',  ( 1.000000000000000000, 0.000000000000000000, 0.000000000000000000 ) ) ;
#216 = CARTESIAN_POINT ( 'NONE',  ( 1.999999999999999778, -3.500000000000000444, 0.000000000000000000 ) ) ;
#217 = CARTESIAN_POINT ( 'NONE',  ( -1.999999999999999778, -3.500000000000000888, 0.3750000000000000555 ) ) ;
#218 = LINE ( 'NONE', #74, #64 ) ;
#219 = EDGE_CURVE ( 'NONE', #449, #158, #87, .T. ) ;
#220 = FILL_AREA_STYLE ('',( #192 ) ) ;
#221 = CARTESIAN_POINT ( 'NONE',  ( 0.000000000000000000, 0.000000000000000000, 1.625000000000000000 ) ) ;
#222 = APPLICATION_PROTOCOL_DEFINITION ( 'draft international standard', 'automotive_design', 1998, #232 ) ;
#223 = VECTOR ( 'NONE', #13, 39.37007874015748143 ) ;
#224 = FACE_OUTER_BOUND ( 'NONE', #456, .T. ) ;
#225 = ORIENTED_EDGE ( 'NONE', *, *, #356, .F. ) ;
#226 = EDGE_CURVE ( 'NONE', #134, #447, #212, .T. ) ;
#227 = DIRECTION ( 'NONE',  ( 0.000000000000000000, 0.000000000000000000, 1.000000000000000000 ) ) ;
#228 = ORIENTED_EDGE ( 'NONE', *, *, #409, .T. ) ;
#229 =( CONVERSION_BASED_UNIT ( 'INCH', #84 ) LENGTH_UNIT ( ) NAMED_UNIT ( #454 ) );
#230 = PLANE ( 'NONE',  #469 ) ;
#231 = ADVANCED_FACE ( 'NONE', ( #85 ), #230, .F. ) ;
#232 = APPLICATION_CONTEXT ( 'automotive_design' ) ;
#233 = MECHANICAL_DESIGN_GEOMETRIC_PRESENTATION_REPRESENTATION (  '', ( #150 ), #79 ) ;
#234 = CARTESIAN_POINT ( 'NONE',  ( -2.000000000000000444, -4.000000000000000000, 0.3750000000000000555 ) ) ;
#235 = DIRECTION ( 'NONE',  ( -0.000000000000000000, -0.000000000000000000, 1.000000000000000000 ) ) ;
#236 = ORIENTED_EDGE ( 'NONE', *, *, #356, .T. ) ;
#237 = ADVANCED_FACE ( 'NONE', ( #155 ), #117, .T. ) ;
#238 = CARTESIAN_POINT ( 'NONE',  ( -1.999999999999999778, -3.500000000000000888, 0.000000000000000000 ) ) ;
#239 = ORIENTED_EDGE ( 'NONE', *, *, #4, .F. ) ;
#240 = LINE ( 'NONE', #313, #173 ) ;
#241 = ORIENTED_EDGE ( 'NONE', *, *, #60, .T. ) ;
#242 = DIRECTION ( 'NONE',  ( 1.000000000000000000, 0.000000000000000000, 0.000000000000000000 ) ) ;
#243 = EDGE_LOOP ( 'NONE', ( #383, #353, #445, #377 ) ) ;
#244 = CYLINDRICAL_SURFACE ( 'NONE', #452, 0.5625000000000001110 ) ;
#245 = ORIENTED_EDGE ( 'NONE', *, *, #226, .T. ) ;
#246 = DIRECTION ( 'NONE',  ( -1.000000000000000000, -1.365923996832131856E-16, -0.000000000000000000 ) ) ;
#247 = DIRECTION ( 'NONE',  ( 1.000000000000000000, 0.000000000000000000, -0.000000000000000000 ) ) ;
#248 = AXIS2_PLACEMENT_3D ( 'NONE', #448, #195, #408 ) ;
#249 = VECTOR ( 'NONE', #450, 39.37007874015748854 ) ;
#250 = SURFACE_SIDE_STYLE ('',( #259 ) ) ;
#251 = DIRECTION ( 'NONE',  ( 0.000000000000000000, 0.000000000000000000, 1.000000000000000000 ) ) ;
#252 = EDGE_CURVE ( 'NONE', #428, #449, #384, .T. ) ;
#253 = FILL_AREA_STYLE_COLOUR ( '', #345 ) ;
#254 = EDGE_LOOP ( 'NONE', ( #95, #176 ) ) ;
#255 = UNCERTAINTY_MEASURE_WITH_UNIT (LENGTH_MEASURE( 1.000000000000000082E-05 ), #179, 'distance_accuracy_value', 'NONE');
#256 = CARTESIAN_POINT ( 'NONE',  ( 1.000000000000000222, 1.224646799147353454E-16, 0.3749999999999999445 ) ) ;
#257 = VECTOR ( 'NONE', #358, 39.37007874015748854 ) ;
#258 = AXIS2_PLACEMENT_3D ( 'NONE', #403, #400, #110 ) ;
#259 = SURFACE_STYLE_FILL_AREA ( #434 ) ;
#260 = ORIENTED_EDGE ( 'NONE', *, *, #148, .F. ) ;
#261 = DIRECTION ( 'NONE',  ( -0.9641807343284088949, -0.2652461339019479558, 0.000000000000000000 ) ) ;
#262 = DIRECTION ( 'NONE',  ( 1.000000000000000000, 0.000000000000000000, 0.000000000000000000 ) ) ;
#263 = EDGE_CURVE ( 'NONE', #202, #439, #97, .T. ) ;
#264 = CARTESIAN_POINT ( 'NONE',  ( 0.000000000000000000, 0.000000000000000000, 0.3750000000000000555 ) ) ;
#265 = VECTOR ( 'NONE', #23, 39.37007874015748143 ) ;
#266 = DIRECTION ( 'NONE',  ( 1.000000000000000000, 0.000000000000000000, 0.000000000000000000 ) ) ;
#267 = PRODUCT_DEFINITION_SHAPE ( 'NONE', 'NONE',  #145 ) ;
#268 = ADVANCED_FACE ( 'NONE', ( #354 ), #244, .F. ) ;
#269 = LINE ( 'NONE', #412, #441 ) ;
#270 = DIRECTION ( 'NONE',  ( 1.000000000000000000, -7.105427357601001859E-15, 0.000000000000000000 ) ) ;
#271 = CIRCLE ( 'NONE', #71, 1.000000000000000222 ) ;
#272 = DIRECTION ( 'NONE',  ( 1.000000000000000000, 0.000000000000000000, 0.000000000000000000 ) ) ;
#273 = AXIS2_PLACEMENT_3D ( 'NONE', #180, #1, #76 ) ;
#274 = ORIENTED_EDGE ( 'NONE', *, *, #119, .F. ) ;
#275 = EDGE_CURVE ( 'NONE', #163, #158, #100, .T. ) ;
#276 = CARTESIAN_POINT ( 'NONE',  ( 0.5625000000000001110, 0.000000000000000000, 0.000000000000000000 ) ) ;
#277 = EDGE_LOOP ( 'NONE', ( #129, #260, #435, #418, #36 ) ) ;
#278 = CARTESIAN_POINT ( 'NONE',  ( 0.9641807343284085619, 0.2652461339019482889, 0.000000000000000000 ) ) ;
#279 = ORIENTED_EDGE ( 'NONE', *, *, #252, .F. ) ;
#280 = PRODUCT ( 'rib5', 'rib5', '', ( #75 ) ) ;
#281 = DIRECTION ( 'NONE',  ( 1.000000000000000000, 1.365923996832132102E-16, 0.000000000000000000 ) ) ;
#282 = VECTOR ( 'NONE', #466, 39.37007874015748143 ) ;
#283 = ORIENTED_EDGE ( 'NONE', *, *, #346, .F. ) ;
#284 = CARTESIAN_POINT ( 'NONE',  ( 0.000000000000000000, 0.000000000000000000, 0.3749999999999999445 ) ) ;
#285 = ORIENTED_EDGE ( 'NONE', *, *, #29, .F. ) ;
#286 = PRESENTATION_STYLE_ASSIGNMENT (( #177 ) ) ;
#287 = ORIENTED_EDGE ( 'NONE', *, *, #325, .F. ) ;
#288 = CARTESIAN_POINT ( 'NONE',  ( -2.000000000000000444, -4.000000000000000000, 0.000000000000000000 ) ) ;
#289 = CARTESIAN_POINT ( 'NONE',  ( 1.999999999999999778, -3.999999999999999556, 0.3750000000000000555 ) ) ;
#290 = AXIS2_PLACEMENT_3D ( 'NONE', #115, #261, #156 ) ;
#291 = EDGE_CURVE ( 'NONE', #366, #101, #372, .T. ) ;
#292 = LENGTH_MEASURE_WITH_UNIT ( LENGTH_MEASURE( 0.02539999999999999897 ), #66 );
#293 = FACE_OUTER_BOUND ( 'NONE', #243, .T. ) ;
#294 = ORIENTED_EDGE ( 'NONE', *, *, #405, .F. ) ;
#295 = DIRECTION ( 'NONE',  ( 1.000000000000000000, 0.000000000000000000, -0.000000000000000000 ) ) ;
#296 = DIRECTION ( 'NONE',  ( 0.000000000000000000, 0.000000000000000000, 1.000000000000000000 ) ) ;
#297 = SHAPE_DEFINITION_REPRESENTATION ( #267, #462 ) ;
#298 = FACE_OUTER_BOUND ( 'NONE', #208, .T. ) ;
#299 = SURFACE_SIDE_STYLE ('',( #154 ) ) ;
#300 = DIRECTION ( 'NONE',  ( 1.000000000000000000, -1.092739197465707654E-15, 0.000000000000000000 ) ) ;
#301 = FACE_OUTER_BOUND ( 'NONE', #62, .T. ) ;
#302 = EDGE_CURVE ( 'NONE', #50, #198, #390, .T. ) ;
#303 = CARTESIAN_POINT ( 'NONE',  ( 1.999999999999999778, -3.999999999999999556, 2.500000000000000000 ) ) ;
#304 = ORIENTED_EDGE ( 'NONE', *, *, #181, .F. ) ;
#305 = LINE ( 'NONE', #121, #40 ) ;
#306 = CARTESIAN_POINT ( 'NONE',  ( -1.999999999999999778, -3.500000000000000888, 0.3750000000000000555 ) ) ;
#307 = ADVANCED_FACE ( 'NONE', ( #165 ), #58, .F. ) ;
#308 = VECTOR ( 'NONE', #160, 39.37007874015748143 ) ;
#309 = CARTESIAN_POINT ( 'NONE',  ( -1.999999999999999778, -3.500000000000000888, 2.500000000000000000 ) ) ;
#310 = AXIS2_PLACEMENT_3D ( 'NONE', #5, #378, #270 ) ;
#311 = VERTEX_POINT ( 'NONE', #61 ) ;
#312 = DIMENSIONAL_EXPONENTS ( 1.000000000000000000, 0.000000000000000000, 0.000000000000000000, 0.000000000000000000, 0.000000000000000000, 0.000000000000000000, 0.000000000000000000 ) ;
#313 = CARTESIAN_POINT ( 'NONE',  ( 1.000000000000000444, 1.224646799147353700E-16, 0.3750000000000000555 ) ) ;
#314 = ORIENTED_EDGE ( 'NONE', *, *, #81, .F. ) ;
#315 = FACE_OUTER_BOUND ( 'NONE', #331, .T. ) ;
#316 = ORIENTED_EDGE ( 'NONE', *, *, #200, .F. ) ;
#317 = EDGE_CURVE ( 'NONE', #198, #311, #137, .T. ) ;
#318 = CARTESIAN_POINT ( 'NONE',  ( -2.000000000000000444, -4.000000000000000000, 2.500000000000000000 ) ) ;
#319 = AXIS2_PLACEMENT_3D ( 'NONE', #120, #189, #262 ) ;
#320 = AXIS2_PLACEMENT_3D ( 'NONE', #289, #433, #251 ) ;
#321 = EDGE_LOOP ( 'NONE', ( #42, #285, #172, #328, #131, #304 ) ) ;
#322 = PLANE ( 'NONE',  #411 ) ;
#323 = VERTEX_POINT ( 'NONE', #349 ) ;
#324 =( NAMED_UNIT ( * ) SI_UNIT ( $, .STERADIAN. ) SOLID_ANGLE_UNIT ( ) );
#325 = EDGE_CURVE ( 'NONE', #470, #202, #205, .T. ) ;
#326 = FACE_OUTER_BOUND ( 'NONE', #52, .T. ) ;
#327 = CYLINDRICAL_SURFACE ( 'NONE', #157, 1.000000000000000444 ) ;
#328 = ORIENTED_EDGE ( 'NONE', *, *, #436, .F. ) ;
#329 = VECTOR ( 'NONE', #330, 39.37007874015748143 ) ;
#330 = DIRECTION ( 'NONE',  ( 0.000000000000000000, 1.000000000000000000, 0.000000000000000000 ) ) ;
#331 = EDGE_LOOP ( 'NONE', ( #236, #59, #350, #430, #425, #422 ) ) ;
#332 = FACE_BOUND ( 'NONE', #254, .T. ) ;
#333 = VERTEX_POINT ( 'NONE', #278 ) ;
#334 = CARTESIAN_POINT ( 'NONE',  ( -2.000000000000000444, -4.000000000000000000, 2.500000000000000000 ) ) ;
#335 = VECTOR ( 'NONE', #246, 39.37007874015748143 ) ;
#336 = AXIS2_PLACEMENT_3D ( 'NONE', #78, #123, #414 ) ;
#337 = CARTESIAN_POINT ( 'NONE',  ( -2.000000000000000444, -4.000000000000000000, 0.3750000000000000555 ) ) ;
#338 = UNCERTAINTY_MEASURE_WITH_UNIT (LENGTH_MEASURE( 1.000000000000000082E-05 ), #431, 'distance_accuracy_value', 'NONE');
#339 = CYLINDRICAL_SURFACE ( 'NONE', #18, 0.5625000000000001110 ) ;
#340 = EDGE_CURVE ( 'NONE', #101, #20, #240, .T. ) ;
#341 = ORIENTED_EDGE ( 'NONE', *, *, #317, .F. ) ;
#342 = PLANE ( 'NONE',  #290 ) ;
#343 = ORIENTED_EDGE ( 'NONE', *, *, #226, .F. ) ;
#344 =( GEOMETRIC_REPRESENTATION_CONTEXT ( 3 ) GLOBAL_UNCERTAINTY_ASSIGNED_CONTEXT ( ( #255 ) ) GLOBAL_UNIT_ASSIGNED_CONTEXT ( ( #179, #28, #324 ) ) REPRESENTATION_CONTEXT ( 'NONE', 'WORKASPACE' ) );
#345 = COLOUR_RGB ( '',0.7529411764705882248, 0.7529411764705882248, 0.7529411764705882248 ) ;
#346 = EDGE_CURVE ( 'NONE', #20, #323, #271, .T. ) ;
#347 = DIRECTION ( 'NONE',  ( -0.000000000000000000, -0.000000000000000000, 1.000000000000000000 ) ) ;
#348 = CARTESIAN_POINT ( 'NONE',  ( -1.999999999999999778, -3.500000000000000888, 0.3750000000000000555 ) ) ;
#349 = CARTESIAN_POINT ( 'NONE',  ( -1.000000000000000222, 0.000000000000000000, 0.3749999999999999445 ) ) ;
#350 = ORIENTED_EDGE ( 'NONE', *, *, #346, .T. ) ;
#351 = PRESENTATION_LAYER_ASSIGNMENT (  '', '', ( #135 ) ) ;
#352 = CARTESIAN_POINT ( 'NONE',  ( 0.000000000000000000, 0.000000000000000000, 0.3749999999999999445 ) ) ;
#353 = ORIENTED_EDGE ( 'NONE', *, *, #132, .T. ) ;
#354 = FACE_OUTER_BOUND ( 'NONE', #166, .T. ) ;
#355 = ORIENTED_EDGE ( 'NONE', *, *, #291, .F. ) ;
#356 = EDGE_CURVE ( 'NONE', #134, #146, #14, .T. ) ;
#357 = DIMENSIONAL_EXPONENTS ( 1.000000000000000000, 0.000000000000000000, 0.000000000000000000, 0.000000000000000000, 0.000000000000000000, 0.000000000000000000, 0.000000000000000000 ) ;
#358 = DIRECTION ( 'NONE',  ( -0.2652461339019479003, 0.9641807343284088949, 0.000000000000000000 ) ) ;
#359 = VERTEX_POINT ( 'NONE', #306 ) ;
#360 = DIRECTION ( 'NONE',  ( -1.000000000000000000, 0.000000000000000000, 0.000000000000000000 ) ) ;
#361 = AXIS2_PLACEMENT_3D ( 'NONE', #348, #199, #126 ) ;
#362 = ORIENTED_EDGE ( 'NONE', *, *, #219, .T. ) ;
#363 = EDGE_CURVE ( 'NONE', #323, #470, #55, .T. ) ;
#364 = LINE ( 'NONE', #217, #453 ) ;
#365 = LENGTH_MEASURE_WITH_UNIT ( LENGTH_MEASURE( 0.02539999999999999897 ), #213 );
#366 = VERTEX_POINT ( 'NONE', #417 ) ;
#367 = FACE_OUTER_BOUND ( 'NONE', #321, .T. ) ;
#368 =( GEOMETRIC_REPRESENTATION_CONTEXT ( 3 ) GLOBAL_UNCERTAINTY_ASSIGNED_CONTEXT ( ( #338 ) ) GLOBAL_UNIT_ASSIGNED_CONTEXT ( ( #431, #102, #404 ) ) REPRESENTATION_CONTEXT ( 'NONE', 'WORKASPACE' ) );
#369 = PLANE ( 'NONE',  #320 ) ;
#370 = FACE_BOUND ( 'NONE', #30, .T. ) ;
#371 = CARTESIAN_POINT ( 'NONE',  ( -2.000000000000000444, -4.000000000000000000, 0.000000000000000000 ) ) ;
#372 = CIRCLE ( 'NONE', #63, 1.000000000000000222 ) ;
#373 = CIRCLE ( 'NONE', #310, 1.000000000000000222 ) ;
#374 = ADVANCED_FACE ( 'NONE', ( #315 ), #90, .T. ) ;
#375 = DIRECTION ( 'NONE',  ( -0.000000000000000000, -0.000000000000000000, -1.000000000000000000 ) ) ;
#376 = CARTESIAN_POINT ( 'NONE',  ( 1.000000000000000222, 1.224646799147353454E-16, 1.625000000000000000 ) ) ;
#377 = ORIENTED_EDGE ( 'NONE', *, *, #48, .T. ) ;
#378 = DIRECTION ( 'NONE',  ( -0.000000000000000000, -0.000000000000000000, -1.000000000000000000 ) ) ;
#379 = COLOUR_RGB ( '',0.7529411764705882248, 0.7529411764705882248, 0.7529411764705882248 ) ;
#380 = CARTESIAN_POINT ( 'NONE',  ( -1.999999999999999778, -3.500000000000000888, 0.3750000000000000555 ) ) ;
#381 = ORIENTED_EDGE ( 'NONE', *, *, #394, .F. ) ;
#382 = DIRECTION ( 'NONE',  ( -0.000000000000000000, -0.000000000000000000, -1.000000000000000000 ) ) ;
#383 = ORIENTED_EDGE ( 'NONE', *, *, #302, .T. ) ;
#384 = LINE ( 'NONE', #419, #265 ) ;
#385 = VERTEX_POINT ( 'NONE', #49 ) ;
#386 = AXIS2_PLACEMENT_3D ( 'NONE', #309, #21, #281 ) ;
#387 = LINE ( 'NONE', #438, #282 ) ;
#388 = ADVANCED_FACE ( 'NONE', ( #15 ), #133, .F. ) ;
#389 = EDGE_LOOP ( 'NONE', ( #241, #316, #294, #125 ) ) ;
#390 = LINE ( 'NONE', #318, #308 ) ;
#391 = ORIENTED_EDGE ( 'NONE', *, *, #363, .F. ) ;
#392 = CARTESIAN_POINT ( 'NONE',  ( 0.000000000000000000, 0.000000000000000000, 1.625000000000000000 ) ) ;
#393 = ORIENTED_EDGE ( 'NONE', *, *, #291, .T. ) ;
#394 = EDGE_CURVE ( 'NONE', #366, #323, #455, .T. ) ;
#395 = CARTESIAN_POINT ( 'NONE',  ( -0.9641807343284094500, 0.2652461339019479003, 0.3750000000000000555 ) ) ;
#396 = VECTOR ( 'NONE', #424, 39.37007874015748854 ) ;
#397 = CIRCLE ( 'NONE', #273, 1.000000000000000444 ) ;
#398 = LINE ( 'NONE', #210, #136 ) ;
#399 = DIRECTION ( 'NONE',  ( 0.000000000000000000, 0.000000000000000000, 1.000000000000000000 ) ) ;
#400 = DIRECTION ( 'NONE',  ( 0.000000000000000000, 0.000000000000000000, 1.000000000000000000 ) ) ;
#401 = EDGE_CURVE ( 'NONE', #385, #134, #387, .T. ) ;
#402 = CARTESIAN_POINT ( 'NONE',  ( -2.000000000000000444, -4.000000000000000000, 0.000000000000000000 ) ) ;
#403 = CARTESIAN_POINT ( 'NONE',  ( 0.000000000000000000, 0.000000000000000000, 0.000000000000000000 ) ) ;
#404 =( NAMED_UNIT ( * ) SI_UNIT ( $, .STERADIAN. ) SOLID_ANGLE_UNIT ( ) );
#405 = EDGE_CURVE ( 'NONE', #385, #70, #2, .T. ) ;
#406 = LINE ( 'NONE', #147, #187 ) ;
#407 = ORIENTED_EDGE ( 'NONE', *, *, #252, .T. ) ;
#408 = DIRECTION ( 'NONE',  ( 1.000000000000000000, 0.000000000000000000, 0.000000000000000000 ) ) ;
#409 = EDGE_CURVE ( 'NONE', #415, #311, #112, .T. ) ;
#410 = DIRECTION ( 'NONE',  ( -0.000000000000000000, -0.000000000000000000, -1.000000000000000000 ) ) ;
#411 = AXIS2_PLACEMENT_3D ( 'NONE', #69, #399, #295 ) ;
#412 = CARTESIAN_POINT ( 'NONE',  ( -1.999999999999999778, -3.500000000000000888, 2.500000000000000000 ) ) ;
#413 = DIRECTION ( 'NONE',  ( 0.000000000000000000, 0.000000000000000000, 1.000000000000000000 ) ) ;
#414 = DIRECTION ( 'NONE',  ( -1.000000000000000000, -1.365923996832131856E-16, 0.000000000000000000 ) ) ;
#415 = VERTEX_POINT ( 'NONE', #402 ) ;
#416 = CLOSED_SHELL ( 'NONE', ( #140, #237, #374, #307, #231, #89, #65, #167, #471, #16, #388, #9, #457, #268 ) ) ;
#417 = CARTESIAN_POINT ( 'NONE',  ( -1.000000000000000222, 0.000000000000000000, 1.625000000000000000 ) ) ;
#418 = ORIENTED_EDGE ( 'NONE', *, *, #200, .T. ) ;
#419 = CARTESIAN_POINT ( 'NONE',  ( -0.5625000000000001110, 6.888638245203861944E-17, 0.000000000000000000 ) ) ;
#420 = ORIENTED_EDGE ( 'NONE', *, *, #394, .T. ) ;
#421 = CARTESIAN_POINT ( 'NONE',  ( -1.000000000000000444, 0.000000000000000000, 0.3750000000000000555 ) ) ;
#422 = ORIENTED_EDGE ( 'NONE', *, *, #60, .F. ) ;
#423 = CIRCLE ( 'NONE', #248, 0.5625000000000001110 ) ;
#424 = DIRECTION ( 'NONE',  ( -0.2652461339019475117, -0.9641807343284088949, -0.000000000000000000 ) ) ;
#425 = ORIENTED_EDGE ( 'NONE', *, *, #81, .T. ) ;
#426 = MANIFOLD_SOLID_BREP ( 'Cut-Extrude1', #416 ) ;
#427 = DIRECTION ( 'NONE',  ( -0.000000000000000000, -0.000000000000000000, -1.000000000000000000 ) ) ;
#428 = VERTEX_POINT ( 'NONE', #72 ) ;
#429 = FACE_OUTER_BOUND ( 'NONE', #465, .T. ) ;
#430 = ORIENTED_EDGE ( 'NONE', *, *, #363, .T. ) ;
#431 =( CONVERSION_BASED_UNIT ( 'INCH', #292 ) LENGTH_UNIT ( ) NAMED_UNIT ( #312 ) );
#432 = VECTOR ( 'NONE', #124, 39.37007874015748143 ) ;
#433 = DIRECTION ( 'NONE',  ( -1.000000000000000000, 0.000000000000000000, 0.000000000000000000 ) ) ;
#434 = FILL_AREA_STYLE ('',( #253 ) ) ;
#435 = ORIENTED_EDGE ( 'NONE', *, *, #48, .F. ) ;
#436 = EDGE_CURVE ( 'NONE', #311, #447, #139, .T. ) ;
#437 = ORIENTED_EDGE ( 'NONE', *, *, #340, .F. ) ;
#438 = CARTESIAN_POINT ( 'NONE',  ( 1.999999999999999778, -3.500000000000000444, 2.500000000000000000 ) ) ;
#439 = VERTEX_POINT ( 'NONE', #182 ) ;
#440 = MECHANICAL_DESIGN_GEOMETRIC_PRESENTATION_REPRESENTATION (  '', ( #135 ), #368 ) ;
#441 = VECTOR ( 'NONE', #375, 39.37007874015748143 ) ;
#442 = PLANE ( 'NONE',  #336 ) ;
#443 =( LENGTH_UNIT ( ) NAMED_UNIT ( * ) SI_UNIT ( $, .METRE. ) );
#444 = CARTESIAN_POINT ( 'NONE',  ( 0.5625000000000001110, 0.000000000000000000, 0.000000000000000000 ) ) ;
#445 = ORIENTED_EDGE ( 'NONE', *, *, #405, .T. ) ;
#446 = CARTESIAN_POINT ( 'NONE',  ( 1.999999999999999778, -3.999999999999999556, 2.500000000000000000 ) ) ;
#447 = VERTEX_POINT ( 'NONE', #216 ) ;
#448 = CARTESIAN_POINT ( 'NONE',  ( 0.000000000000000000, 0.000000000000000000, 0.000000000000000000 ) ) ;
#449 = VERTEX_POINT ( 'NONE', #34 ) ;
#450 = DIRECTION ( 'NONE',  ( -0.2652461339019475117, -0.9641807343284088949, -0.000000000000000000 ) ) ;
#451 = DIRECTION ( 'NONE',  ( 1.000000000000000000, 0.000000000000000000, 0.000000000000000000 ) ) ;
#452 = AXIS2_PLACEMENT_3D ( 'NONE', #460, #235, #272 ) ;
#453 = VECTOR ( 'NONE', #27, 39.37007874015748143 ) ;
#454 = DIMENSIONAL_EXPONENTS ( 1.000000000000000000, 0.000000000000000000, 0.000000000000000000, 0.000000000000000000, 0.000000000000000000, 0.000000000000000000, 0.000000000000000000 ) ;
#455 = LINE ( 'NONE', #421, #185 ) ;
#456 = EDGE_LOOP ( 'NONE', ( #228, #341, #22, #459 ) ) ;
#457 = ADVANCED_FACE ( 'NONE', ( #332, #211 ), #322, .T. ) ;
#458 = CARTESIAN_POINT ( 'NONE',  ( 1.999999999999999778, -3.500000000000000444, 0.3750000000000000555 ) ) ;
#459 = ORIENTED_EDGE ( 'NONE', *, *, #148, .T. ) ;
#460 = CARTESIAN_POINT ( 'NONE',  ( 0.000000000000000000, 0.000000000000000000, 0.000000000000000000 ) ) ;
#461 = ORIENTED_EDGE ( 'NONE', *, *, #132, .F. ) ;
#462 = ADVANCED_BREP_SHAPE_REPRESENTATION ( 'rib5', ( #426, #319 ), #344 ) ;
#463 = VECTOR ( 'NONE', #51, 39.37007874015748143 ) ;
#464 = DIRECTION ( 'NONE',  ( -0.000000000000000000, -0.000000000000000000, -1.000000000000000000 ) ) ;
#465 = EDGE_LOOP ( 'NONE', ( #437, #355, #420, #283 ) ) ;
#466 = DIRECTION ( 'NONE',  ( -0.000000000000000000, -0.000000000000000000, -1.000000000000000000 ) ) ;
#467 = ORIENTED_EDGE ( 'NONE', *, *, #275, .F. ) ;
#468 = CARTESIAN_POINT ( 'NONE',  ( 1.999999999999999778, -3.999999999999999556, 2.500000000000000000 ) ) ;
#469 = AXIS2_PLACEMENT_3D ( 'NONE', #337, #300, #190 ) ;
#470 = VERTEX_POINT ( 'NONE', #395 ) ;
#471 = ADVANCED_FACE ( 'NONE', ( #429 ), #327, .T. ) ;
ENDSEC;
END-ISO-10303-21;
